<mxfile host="app.diagrams.net" agent="Mozilla/5.0 (Macintosh; Intel Mac OS X 10_15_7) AppleWebKit/537.36 (KHTML, like Gecko) Chrome/130.0.0.0 Safari/537.36" version="24.8.6" pages="2">
  <diagram name="Nacos Server启动_2.x" id="oXJuWI2aXmkUXOoJY317">
    <mxGraphModel dx="2506" dy="837" grid="1" gridSize="10" guides="1" tooltips="1" connect="1" arrows="1" fold="1" page="1" pageScale="1" pageWidth="827" pageHeight="1169" math="0" shadow="0">
      <root>
        <mxCell id="0" />
        <mxCell id="1" parent="0" />
        <mxCell id="ZbuWl8y95KLA_ZEsA9D--1" value="" style="shape=image;verticalLabelPosition=bottom;labelBackgroundColor=default;verticalAlign=top;aspect=fixed;imageAspect=0;image=data:image/png,iVBORw0KGgoAAAANSUhEUgAACLQAAAEcCAYAAADUNn9AAAAAAXNSR0IArs4c6QAAAERlWElmTU0AKgAAAAgAAYdpAAQAAAABAAAAGgAAAAAAA6ABAAMAAAABAAEAAKACAAQAAAABAAAItKADAAQAAAABAAABHAAAAADKjz+HAABAAElEQVR4AezdBXwUV9sF8IMECITg7u7uEtzd3SkuBYoUafEipYUW91KkuLu7a3F3DRIIJCHGe5+7zLC7xIBA+sK57y/s2M7M/mc29Pvm8DzhXrx48QYcFKAABShAAQpQgAIUoAAFKEABClCAAhSgAAUoQAEKUIACWsDZ2TkcKShAAQpQgAIUoAAFwlYgfNgenkenAAUoQAEKUIACFKAABShAAQpQgAIUoAAFKEABClCAAhSgAAUoQAEKUIACFKCArQADLbYenKMABShAAQpQgAIUoAAFKEABClCAAhSgAAUoQAEKUIACFKAABShAAQpQgAIUCGMBBlrC+ALw8BSgAAUoQAEKUIACFKAABShAAQpQgAIUoAAFKEABClCAAhSgAAUoQAEKUIACtgIMtNh6cI4CFKAABShAAQpQgAIUoAAFKEABClCAAhSgAAUoQAEKUIACFKAABShAAQpQIIwFGGgJ4wvAw1OAAhSgAAUoQAEKUIACFKAABShAAQpQgAIUoAAFKEABClCAAhSgAAUoQAEK2Aow0GLrwTkKUIACFKAABShAAQpQgAIUoAAFKEABClCAAhSgAAUoQAEKUIACFKAABShAgTAWYKAljC8AD08BClCAAhSgAAUoQAEKUIACFKAABShAAQpQgAIUoAAFKEABClCAAhSgAAUoYCvAQIutB+coQAEKUIACFKAABShAAQpQgAIUoAAFKEABClCAAhSgAAUoQAEKUIACFKAABcJYgIGWML4APDwFKEABClCAAhSgAAUoQAEKUIACFKAABShAAQpQgAIUoAAFKEABClCAAhSggK0AAy22HpyjAAUoQAEKUIACFKAABShAAQpQgAIUoAAFKEABClCAAhSgAAUoQAEKUIACFAhjAQZawvgC8PAUoAAFKEABClCAAhSgAAUoQAEKUIACFKAABShAAQpQgAIUoAAFKEABClCAArYCDLTYenCOAhSgAAUoQAEKUIACFKAABShAAQpQgAIUoAAFKEABClCAAhSgAAUoQAEKUCCMBRhoCeMLwMNTgAIUoAAFKEABClCAAhSgAAUoQAEKUIACFKAABShAAQpQgAIUoAAFKEABCtgKMNBi68E5ClCAAhSgAAUoQAEKUIACFKAABShAAQpQgAIUoAAFKEABClCAAhSgAAUoQIEwFmCgJYwvAA9PAQpQgAIUoAAFKEABClCAAhSgAAUoQAEKUIACFKAABShAAQpQgAIUoAAFKGArwECLrQfnKEABClCAAhSgAAUoQAEKUIACFKAABShAAQpQgAIUoAAFKEABClCAAhSgAAXCWICBljC+ADw8BShAAQpQgAIUoAAFKEABClCAAhSgAAUoQAEKUIACFKAABShAAQpQgAIUoICtAAMtth6cowAFKEABClCAAhSgAAUoQAEKUIACFKAABShAAQpQgAIUoAAFKEABClCAAhQIYwEGWsL4AvDwFKAABShAAQpQgAIUoAAFKEABClCAAhSgAAUoQAEKUIACFKAABShAAQpQgAK2Agy02HpwjgIUoAAFKEABClCAAhSgAAUoQAEKUIACFKAABShAAQpQgAIUoAAFKEABClAgjAUYaAnjC8DDU4ACFKAABShAAQpQgAIUoAAFKEABClCAAhSgAAUoQAEKUIACFKAABShAAQrYCjDQYuvBOQpQgAIUoAAFKEABClCAAhSgAAUoQAEKUIACFKAABShAAQpQgAIUoAAFKECBMBZgoCWMLwAPTwEKUIACFKAABShAAQpQgAIUoAAFKEABClCAAhSgAAUoQAEKUIACFKAABShgK8BAi60H5yhAAQpQgAIUoAAFKEABClCAAhSgAAUoQAEKUIACFKAABShAAQpQgAIUoAAFwliAgZYwvgA8PAUoQAEKUIACFKAABShAAQpQgAIUoAAFKEABClCAAhSgAAUoQAEKUIACFKCArQADLbYenKMABShAAQpQgAIUoAAFKEABClCAAhSgAAUoQAEKUIACFKAABShAAQpQgAIUCGMBBlrC+ALw8BSgAAUoQAEKUIACFKAABShAAQpQgAIUoAAFKEABClCAAhSgAAUoQAEKUIACtgIMtNh6cI4CFKAABShAAQpQgAIUoAAFKEABClCAAhSgAAUoQAEKUIACFKAABShAAQpQIIwFGGgJ4wvAw1OAAhSgAAUoQAEKUIACFKAABShAAQpQgAIUoAAFKEABClCAAhSgAAUoQAEK2Aow0GLrwTkKUIACFKAABShAAQpQgAIUoAAFKEABClCAAhSgAAUoQAEKUIACFKAABShAgTAWYKAljC8AD08BClCAAhSgAAUoQAEKUIACFKAABShAAQpQgAIUoAAFKEABClCAAhSgAAUoYCvAQIutB+coQAEKUIACFKAABShAAQpQgAIUoAAFKEABClCAAhSgAAUoQAEKUIACFKAABcJYINyLFy/ehPE58PAUoAAFKEABClCAAhSgAAUoQAEKUIACFKAABShAAQpQgAIUoMAHCER3OByire89eIauP8zAgtndESlSxBC9Rza6fvMRHj9+HqLt8+ZOi3DhwoVoW24UOgIdu01D6+alkSdXGnOHp07fwPjJ6zFtYgeEt7sech9s2nIC9eoUQTTHyOZ7PvfEoF8WoWnD4kiTKqE+1JOn7ogWNTKiRImEabO2IKqabtKgGDw8veHp9RpxYkX/5FNasmIfcuVIjbSpE+l9/b1gF/49fRNjRjQL0b59/fwQMUKEILcNyTZB7kCtDI19BHcMrg9awN0nf9AbcG2YC4T8b60wP1WeAAUoQAEKUIACFKAABShAAQpQgAIUoAAFKEABClCAAhSgAAUo8CECN24+hI+v/3thlqPHr+DNG9t/954oUWwkTRxH7/6fxXtw4dI9pEgezzzcnn3nkC1LcsSM6aSX+fn5qpDEvzi4awQcIgYdADB3wolPFrhw6Q7+PXMLGTIksdnXpq0nkSRJnPfCLLLR/QdPMWHKRlSrnC/YQIu/ui/sAzEBLbM5eCAzeVXgZtDwxZg1pZO+R8b8sRo1q+ZH/rzpbN5x5Ohl7Np7Dj/3rauXb991GleuPLDZJrCZPLlT2wR7okWNgradpuKPMS3V/ZoCr155IZpT8CGeG7ceYcSvy3Hq9C3EjeOE+nUKqzBOCfOw8n2ZOWc7lq86iGduL1VoJhX6966NJG+/M+aGbyfGTVyLbTtOY9mCnur756CXfug+7PfJeQp8awIMtHxrV5yflwIUoAAFKEABClCAAhSgAAUoQAEKUIACFKAABShAAQpQ4KsX8H/jD18fP1xWoYD0aRLC29tHf+Zw4cPrYEGH72cgZ/bkZtDl1u0nqFQ+Nzq0KW/aVK+cF7VrFDLnG7UYh/atyyNL5mR62evXPjrQYm7Aic8uIIGQs+duIYZzVIwbv1Yfr2zp7LoiycbNJ5E0aRz0HzzfPI/YquLJD12rmfPBTQwesViHmqT6izGWrTqA3XvOqYBIa2NRsK8+vn548PAZsmVNgeMnr+PK1fuIHy9GsO8zNti7/wJu33mMgvnTG4sCfN209RQiOkSwCbRUKp8H/v5vMOOvrfjj19Z45fFaV4UJcAdvF8r347sOk+FSNBN+7FkLV67dx7CRy5RzNB0Cks0WLduLBYv24Kcf6yB58rgq3LIV7bpMw+qlP74XADqjrtG8f/a8DY29q170IfsI6ny5jgLfigADLd/KlebnpAAFKEABClCAAhSgAAUoQAEKUIACFKAABShAAQpQgAIU+GYE1m04pipjLDE/b6GS/fV0yWJZzdYrI4c2RZzYlhYvU6Zvgm29FmDuwt2Qqh/GuHn7MX5RFSyiRYukF9kVeDE24+tnFFi74ahu4RM3juW6rVxzGGnTJMD9+890YKRxAxfz6Bcu3sXe/efN+ZBMnD9/F4kSxLLZ9Oatx6odkLfNsuBmnj9/hZFjlpubTZiyXoVO0up5qdji6OiAZ888ED58OKxYfVBVUfFG4YIZzO1lImeOlLqtks1Cu5kr12yruBw7eRX+fm+QIH5MNKxXFEeOXYFUKYoePaqetns7EquqREkSx8a5i3fw/IUnvu9YGTFjREOqFPFx8tQN7Dt40Qy07Nl3HtWr5kPJ4ln1bnp0qYby1Ybhqgq/pEuT2Ny1n78/Rv2+UlWhSYNDR66Yy2UipPuweRNnKPANCzDQ8g1ffH50ClCAAhSgAAUoQAEKUIACFKAABShAAQpQgAIUoAAFKECBr1OgcsU8KF8mF6rXG4WhP9dH9qwpsXDpPty99yTEH7hapXyoWC63uX3XnjPQrnVZpEtreXj/2tsbtRuOMdfLxG9/rlYhgVg6UPDP4r2q1c0zlCmVHR3bVkAkB8ujycOqvcweFbQ4ePiSqgYSFxXK50T50jnN/UhbltXrjmD9puOQyjGpU8VD5/aVkClDUr3NvoMXIC2Rrl57hDiqNUyp4tnQtFFxs+3RC3cP3RZGqnw8fuqO3DlSm61szIPYTUi7GTnm3v0XETFCeNSolg/1ahXRW/n6+WHOvJ3Ysu1feL5WwYsC6dGpfUU4qdY2MozPLFVTFqjP3LZlWRw/dQ0R1H66qPM2hpxX7/5z0e67csiVPRXcVOhj/OT1KmhxFU7RoqBKpdxoUNdFV/uQFj8duk7Fdy3KqFDEZexWYYoJv7fSuypVIpsOXMjM8VPX4eXlg7kL9qBf71ooUjCjcThEUW1uDh2+bM7LxAt3T0ycuhHHTl5DwXzpULdWIaRNnQj31HUaPHwRbt99oh2OnbiKerWLYMOmEzh7/jY8PF+raiRTkCN7SnRsUwESrDmswiJtWpbR+zutWiAlTxYHndpVRNbMyVXLHmeM/qW52d5I2iSlTpXQvEY2J6Vm7t5/qkM59ss/dH7G7K3qXG3DN5cu30OCBDExYepTm93dUgGt5o2Lo0WTUkimWjXJfSdVZSTQIuOmuieyZkpuvidVygS4fdvVnL977ykiRgwPadVlPVaolkQSqmlU3+W9QEtI92G9P05T4FsWYKDlW776/OwUoAAFKEABClCAAhSgAAUoQAEKUIACFKAABShAAQpQgAJfpUD4cOHx0PWpDjBkz5ZSh0lu3HyEzBmThPjzPnJ9jqvX75vbS3Di9l1XhI9gaaHi7e1rrjMmLl+5j/0qcJIieTy0bFYSJ1TgYvbfO5EvT1ozbLF05UEUL5oZlSvk1lUz+v28AOlVSEaqYsgYN3GtClUcVSGWCnq5hCu8VHsjGRI6GTpyKSqWz6VDLMdOXFOtXXZDAilDBjTQ2wwbtQy3VFWRXt2r4bVqJXPmzG29PLA/pN1Mm45TkC9vagzsWxe37z3Ga/VZjSHH+/fMTRVUKQPHKJExXYUmBg1dbFa6kc98/sIdvHz5WgVECiJ+fGekVJ9fqnS0bFbKDL7s2nMWF1W4IlP6JJB2TS3aTUASFf7p17sm7tx5gsnTN6uKJeHRoE5R1TLHH0ePX0O4cNsQOXJE1K9TSL1aKuMY52W8Skudaqo9VIL4MXQoI1w4y/WRSiHyXusxbOQSFCuaRftPm7VVh1Xmzfwezs6OqKPCLXfurlMtpZKrEFI2pEmdAFUr5YGPr48KQj3V6yWoIuPBw+c4cPCSPm/ZtoIKT81buAttOk3GioW9kVBVeWncchym/tlOh5u+7zkLvXrUUO+5aH06703fUoER6zZX720QzILJf7Sz2ULCLaUqDsLIIY2RMb0lEGVs0K3XLLPlVpzYzujdoxp69ZuL6lXyQ6rbuL/0QgNV5cUYLZqURNcfZqHvwPn6+so9OqBPbfP6ynbSqujPyRswaVwbvHzlabzVfA3JPsyNOUEBCsD2NxhBKEABClCAAhSgAAUoQAEKUIACFKAABShAAQpQgAIUoAAFKECBr0LgxMnryK+CJEZllMtX76OqCj6EdFy+cg9+fv7m5i/VA/7jap83bj7WyyQwEdB4+uwV/pnTQx+3cIGM2H/gkq4yYlQPGTW0iQpqWEIXEjKQtjnSikUCLdduPMD8hXvRt1cN1K5eSO8+W5YU+lWCJ2PHr0Wt6gXQt2ctvaxA3vRInDCWCrksQ8umpfQ+pAVMIXXcPLnS6G3kHIIaz1944OmzlyhTMocKcyTTP8b251UrmrXrj2Hq+LbImzutXhxBBXq69f5LV/OQ4IYMqWKyfcMgHXiR+SSJ4+hAi7T8kbCHjA2bT6iASF5EiRIJ/yzZg6dPX+Lv6V3grNrhIJ9UKXmmlu/TgRb9BvWHVA3549fWxqx+vaeqmUirHhmvVIgmTgYnVU2lKJq2+hPlyuRQVUdK6HU+vn5wcIigp40/SqpqNk0aFNOzcg269/kLT56+UK2nnFFWff6Zs7cjTaoEelo2Spk8vq7m4qmCIbLeeojZsEENINdARq6cqVCm8hCsXnsUbVUlnwzpkuDipXtwiu4Ib28/5FTBqlgxLdVPZPtpM7foSjX58llcZZn1epn/1HHy32u6vVF6dS5SfcW4XrJfaaNkfDdkXgyeqGuyRlWfeaAq1rgUzoyIVn4OqsKQVATaufuMrkAj9431+b708EKfAXNVxZeSukrNwSPvh3eC24ecBwcFKPBOgIGWdxacogAFKEABClCAAhSgAAUoQAEKUIACFKAABShAAQpQgAIUoMBXI3Dk+BVky2ppmfLwkRuuXX+EtGkShejzSSuZSKpljbTRMcbZc7fRqmlpM/AhYYsmDVx0ix5jG3ktpqqvWAcFcuZIibPnbpmbeKm2PZu3nsJB1UpHKqncveeG6zcf6vVnzlqqqZRwyWpub0zcUVVCpGWOS5FMxiL9mj+fJVBx7fpDHWipUTU/xk1YD9fHL1S4oITZqkgCDd16/WW+V0IhC/7qhnhxY6Bo4QwYMHihqoRyCw3rFkH8eDH1ducu3NZtZSSMsnHLSb3M0+u1fpU2OUZAIrcKc0j1FmNEd3LUrZa2bDulAy3if/joVfToWlVvcvrsTR1k+XPSeuMtqjrKE9y9+xTePr5mYKVgfstnMzdSE7+OW4XIkSyPeR8+eo68eVLpNkWDf6qHZt9N0FV48uVJB18fP7MCifF+azsJ78i4eu2hDnMY24T0NWaMqGZoSN4j90rO7MlxXVXLkZE+bSJdkSZRopjqvkuA2LGj6zZLeqX644E694yqjZT1PZYqRQJjdai87tpzDmL46pUXmrYejx971kRp1bJJhlRviRjREviRNlY//jQP0ya21yGbZ24vMXzUcvTu97eqttJWb9/lh5lIljQ2Nq3+CXJ9Dxy+qCq2zMb0Se11WGfoiKVIpMJVLZqW1NsH9EdQ+5A2VBwUoICtAAMtth6cowAFKEABClCAAhSgAAUoQAEKUIACFKDAFxV49swNf81dgE1bd6h/CWp5kPNFT4AHowAFKPAVCyRKpKoMlCqhWkbURuJECb/iT8qPRoGABSQUMky1y0mSJDZu336C8mVzIHq0KAFv/HapVF1p1GJsgNvcuv0Y/QYvQBS7NjaycavmpVG+dE79Pie7Y0SJ4qBa6LzR66SqRY36o5BHBUDKl8uFFMniYfzkd6GO5y9eIWrUSIiuqnrYDw/VWkdGrBhONquiRY2sK774+vnp5U0bllDtZZJg1t/b0URVLaldowD69aqN2LGcMLB/XZv3GjNjRrTApi0nMGPONixYtAc/q9ZDlSvkgRwznGrflDZNQvVqbA1ky5IcCeNbQi+yNGUAQYwqFfPoFjXymbfuOIXsKlyUNrUlUCSVVaJGddBBD2OvEvooUSyzMatfkysf+zF2VEuzPdPA4YvM1bLvTu3Kod/Af7BicW/4qGBM5MgO5nqZsL42RvWWN7BcG5sNQzATO7aTCjPZVoCRKj5JksTR706nwlPrNx9HalXxJYO6HhIqkcBN6ZLZINWDkieLg/mLduPxU3dd0WSjCg3t3/ELHN6GTEJwCkFucv+Bm67+M2V8Ox1AGTu6BTp1n6GvYylVqcbT8zUc1b0jY7MKHpUsnlWHWWQ+VkwnNG9SHC3bTVJVW9whbZ0k0CUthnRFHbWNVP4pXDA9tu04DfcXnti6/V/kzplS+c+XXeDJE3f92n/QfOTJnUZtmzHIfTDQorn4BwVsBBhoseHgDAUoQAEKUIACFKAABShAAQpQgAIUoAAFvpzA2XMX0LiF5V98frmj8kgUoAAFvh2B+/cf4u/5i/TP7GkTVDuM7N/Oh+cnpYASkEoUiRPFQo8+cyChisl/tAnWJUL48Bg9vJnNdqvXHYG0zokdK7pq7xNTtbGJiK4dK+lXY0Pr1ivGsoBeJdgRJXIkjP6lua4qIm1xzl+4C5eiznrz5EnjqeDDaxw7cRWF8mew2UWypHF1cGX3vnNmlRjZ4Ojxq7o1T+qU8c3tpUKJ/KxZfwSDhi9Bs8YlkFS1AcqkKoIENCREUaViXlQsnxu/jF6GydM3o5KaTpo4rg6GSNujrJkt1W4Cen9Ay+T4cVRVkj3qfNdvPImG9YqYmyVPHg8nT99EzaoF3wudyEZGOMd8QwgnGtYrpoIzKeEUNQqkEo5U2fmQES7cG5s2U/JeCfL4+vq/t5vrN1whlWcSvA32SPDj0pUHyjCP3jZN6oR4/vwVbt5yhYRbZDiroNLQnxqg/+D5qFOzMJ6ptkUn/72BHl2qYseuM3qb0Ppj+uwtqmJMSjOkItdv5NDGuHT5vj6Eh4c3HNW9KEOqDbm7e+hp4w+pBiTLjR9Z/lKFcqyH23MPJE3ijxQp4qnQVE3rVap91iPdoitP7tRIpe5N2Y+MwPZh82bOUIACWoCBFt4IFKAABShAAQpQgAIUoAAFKEABClCAAhQIIwEJs0RSpel3b1mnSt1b/iVrGJ0KD0sBClDgqxVwdX2MYuUqo2Xbzjh5ePdX+zn5wSgQmIC0QEmkQigSaJn19zYMG9hIV6sIbHtZLlVTZLx+7YMxf6xWgYRHmD6xA9p3mYbO7SqpVkGXVDuWZRg+uLEKuMTS24b0jxgxouHpMxV8uHxXnVdsXaHjlce7kEChghkgQYgJkzfC+7Uv8uZNixMq3JJQHUcqkNSrXQjLVx1SIYoYKFs6B06euo5Zc7ajZLGsKjSRWJ/GnPk7UaRQBhUieNe+xqq4ynunKq2IJLBT3CWLtokQIbzeJpxKchRW5yOGk6ZtRJtWZZEjW0rcU62Gjhy9gprVCry3L+sF4dX7q1fOBwkE3b77GKVKvAvVVa+SD/8s3odxE9eiQd2iSJI4tgr23NEBkKKFbau0WO8zuGk5poRvZHh4+MDR0RLYCO59xvpMGZOpEMZVuL8NbkhFn/RpE2PpikM6vCL7MyqUiM/YCWvR/rtyiBPHGVNmbEa0aJFRtZIl0CKfacLYNug/aIH+fPsPXTQOE6JXCTY9cnULclsvT58A169aexgbVHWYWVM62ayXkJT8+KtwiQRWHB0tgZ/SqmJLjx/nqHvroG4VdV2FUWbM3qoqrqRCXPXZ5D/VM6RLjGkzt6Brh0pIrD7buo1Hce78HfWdqKC/M8b3xjjgwSMXsXDJPtSqVshs/RTUPoz38ZUCFHgnwEDLOwtOUYACFKAABShAAQpQgAIUoAAFKEABClDgiws0a1yfYZYvrs4DUoAC35JAvHhxUb9OLcydt/Bb+tj8rBTQAnfvPUXXnjOQOVNyjBnZHANUsKBluwmYqEIGMlp1mKRaxliiHk+fvlJhkcJ6ube3L9ZuOIq/5u1EoQLpMf6372yqiLRW7YWkfU/TVn+gQP60qFAmNwrmTxeiaiDFCmeCS+GMaN5mAiJGjIhG9YugiAqNGCOSqv4yTrWGGTZqqQ4YSGgiZYq4GNivnt5EwgQRVTWV0WNX45dfVyCCOn9pDdS9a1VjF7oiyoQpG9V24VRLn0QYpNoMJVHVWQIbvn7+mKfaDI38bZX+nNI2ZsSQRnpzadkz7tcW+HnIInzXYbJenylDYhXayBvY7myWVyifC9NUMKJ+ncKIahUukXDO6OFNVDWY5Vi87IBqsRRFVRJJjaaNi9m8P6AZCSbFVMEgGWfP3VJVZyxBHvttL1+9jxSqqs2HjKqV82Lg0EUoWX4gfvyhuq6iIiGjDOkSoXKtESrskQ0jhzTRu5TrklkFYBo2H6uq2PjrakATx36n2/XcvO2Kn4cuxJWrD5FMtSCSCj7RnYJud2V/nivXHMHGzSftF9vMe3h6I5tq5WQ9du89p+6N5bo9UGAVeY4cu6wqpgCZMiXTb5Uw0+AB9VRwaROGq2sSKVIEfV8O7F/f3PXEcd9h0LBF6nszWVftkaDYiKGNkD9vOnOb4CZCYx/BHYPrKfA1CYR78eLFxzVF+5oU+FkoQAEKUIACFKAABShAAQpQgAIUoAAFKBAGAjnzF8O8v6apB0X5wuDoPCQFKECBb0fgwKEjaKKqYrFCy7dzzb+FTxrd4XCQH/OGqqrSpuMU1f4lF7p1rqLb+0hQZeHSfaoiiAqRlBqA2VM76qCB7Gi+CnREd3JUARMXNG45ztKqSIVEMqZ/16KnUYtx6N+7ttnuR6q+LFt5EHMX7EKPrlVUyCPk/03j/tIT0uYnSpTAK4i88nwNLy9vxFGtjuyHtOR55PpCVc6IDgnB2A8JOnh7+5jBD/v1Ac0/c3sJR3U+gZ2Tm2qfE0Gds1QtCa0hbWgeuT5HLBUQCuhz2B+nRIWfdfBIPreMtRuOq9ZIOdGgjgskyLFHVZqJGTOqtlm/8Tj+mdNNV7ax309Q81K9RCzs3Z+qZRKkkSowM/7ahk1bT2DJvJ7K2VdVO/HQlUyM/Xp6vcaFS/eQXlU1ieYYWS+Wa1638W/YuGqATcuhTVtPobAKTv06brWqXDhU73/IiCWq6osTOrWtaOwywNe+A+frdkatmpWCtK+aqqrESBCrY9vykGXGOH/xjgosrVDnH1VVHvJVLa2uo26tgujdvYaxifkqrZOiq9ZIgV0P+bzuLz1UOylLmyzzjR8wERr7+IDDcdNABNx98geyhov/KwLv/3b/r5wZz4MCFKAABShAAQpQgAIUoAAFKEABClCAAhSgAAUoQAEKUIACFPgogciRHNBMVfto2rCE+f5IkSKiWaPien7UsMa6lYwsk2FsF8M5KiaOa4PkqrKHVEexHnHjRoeDqlxhDNlWQgON6hUNNARibGv/KuGZ4IYEIYwwhP22ESNECLLdkVRDsa6IYv/+gOZjxXQKaLG5zKiKYi4IhQkxThA/Zoj3VKFsLtStWUhV+Iuh3yNBmHhxLcGKxIljQa6JpwrzJFHtnOZM6/zBYRbZqQRW7MMssjx2ID5yD0lbHuvhqNpq5sqeynoRwqtWThnTW6rJDB/YWK/z9vFFurSJMG3WVvTqVk0fW1Y0ql9UV+Kx2UEAMy2alFBtjiwBozf+/rh05R7GjmoOlyK2bZuSqvu5kgp3SSUZqdzTu0cNpLZqSWW96zix3w9QWa+Xz/spYRbZV2jsw/qcOE2Br1WAFVq+1ivLz0UBClCAAhSgAAUoQAEKUIACFKAABSjwnxdghZb//CXiCVKAAl+JACu0fCUXkh/DRiC4Ci02G3OGAqEsYF2hJZR3zd1R4IsJsELLF6P+6AOxQstH0/GNFKAABShAAQpQgAIUoAAFKEABClCAAhSgAAUoQAEKUIACFKAABb49gaxZkuoqI9/eJ+cnpgAFvqQAAy1fUpvHogAFKEABClCAAhSgAAUoQAEKUIACFKAABShAAQpQgAIUoAAFKPB/LlAwXwbIDwcFKECBzykQ/nPunPumAAUoQAEKUIACFKAABShAAQpQgAIUoAAFKEABClCAAhSgAAUoQAEKUIACFKDAhwow0PKhYtyeAhSgAAUoQAEKUIACFKAABShAAQpQgAIUoAAFKEABClCAAhSgAAUoQAEKUOCzCjDQ8ll5uXMKUIACFKAABShAAQpQgAIUoAAFKEABClCAAhSgAAUoQAEKUIACFKAABShAgQ8VYKDlQ8W4PQUoQAEKUIACFKAABShAAQpQgAIUoAAFKEABClCAAhSgAAUoQAEKUIACFKDAZxVgoOWz8nLnFKAABShAAQpQgAIUoAAFKEABClCAAhSgAAUoQAEKUIACFKDAlxbwf/MGb9QPBwU+RMDb2wdy73BQgAL/DYGI/43T4FlQgAIUoAAFKEABClCAAhSgAAUoQAEKUIACFKAABShAAQpQgAKhKeDh6Q1Pr9fv7TKSQ0REd3K0Wb5u4zE9X7lCHjxydcPe/RdQq3pBm21k5u8Fu+Dl5Y22rcq+t04WPH/hgfsPnga4zn6ho2NkpEgWz36xOX/pyj2M+HU5ypXJgYZ1XczlIZno3msWKlXMg/Klc4Zk8wC3qVJ7BP78rSVSp0wY4HpZ6OPrB4eIEQJdLyt8/fwQMULQ2wS5g2D24e3jizt3H+PGTVd9Li5FMge3O3O9Ed4IHy6cucx+IjTO395JzvnK1Qf2hwp2Pm4cJ8SPFzPA7bbu/BeHj1xG7x41AvV+6eGFAQMXYMTQxnCMElnv5+69J0icKDbCKYPOPWbg+45VkCVzMjxze4lIkR0QTd2nHBSgQNgIMNASNu48KgUoQAEKUIACFKAABShAAQpQgAIUoAAFKEABClCAAhSgAAU+q8Dc+Tsxf/Eem/CKpwq55M6ZGmNGNIMERtzcXiF/3nS4cesR3vhbTkce7E+cuhGxYjqhZPGsNufoUiQT2naagsYNiwX4oP/AoYv4dewqZEif2Hzf4ycv4PrYHZkyJDGXubl5wMkpMqZN6GAus56Q8+nUbQbKlMqGGbO3IW5cZ5QtmcN6E3Natr12/aE5LxMJEsTEuPHrdLDBPqtRtFAmRIoUESPGLMe9+7bhmxTJ46Hn99X1vl64e9js03rmxL/X8dsfq3Hx0n3EixsdzRoXR4M6Rc1NpDrMzDnbsXzVQR2MyJUjFfr3ro0kieOY21hPjJu4Ftt2nMayBT3VuTnoVUHtQ4Iog4YvwoWLd3D9hitiOEdFzuwpUDB/enh7++pra71/YzpzpmSQ8MqDh8/w67hVOHj4ChwcwqNsqRzo1a26djG23bXnLCZN36hsXZEuTUJ06VgRhfJnMFbbvEqY5I8J6zB0YAPkzJZKr5Pg0+QZm7Bm3TFIuCp3zpT4uW9dJEwQC+7unhijjm89rqprmCB+TDhFswRILl25r7xiIVrUKOZm1SrnRY2qBcx5Y+LfMzcxYNBCFVJxQNSokdGtUxVjlc2rk9pXrNhOmDx9M3p0qarXNWn9JzauHIDIKrxiPf6atwPp0yaGhLxkbN91GleuhCyEkyd3auTJlcZ6d5ymAAU+QoCBlo9A41soQAEKUIACFKAABShAAQpQgAIUoAAFKEABClCAAhSgAAUo8P8g0LieC9p9Vw7ur7xUMCAytqngwabNp/Spn1ShjEuX7+tAi/VniRc3Bvr2roUhI5aoh//RMG3mFuvVSKxCBr36zrFZ1rZ1WTPIkCtHShWYaWGu37TtJFatOYxJ49qay/YeOI+/VeAmoHH/gZsOs9SrXRhtWpbRgYJO3WeoFkJAORW8sB/71L6WrjyEfLltAwQuRTLi0JFLNpsvU9ttXvMT4sSOjiqqgosEfKyHhCGMqjZ+fm90OMSYD4dwiBIlkg7/dOg6HTWr5cPAfnWxZ98FjJ+8Ec7RHVGpvCX8sGjZXixYtAc//VgHyZPHVeGWrWjXZRpWL/1RB0qsj3nm3C3M+2fP2xZJ7yqlBLePqhXzolG9oli97qgK1TijZdNSere37jxGi7YTkT1rcvMwvn7+OHvuNvZsHaZCPuHRqft0HR6ZOK417t9/pgNMo35foc63rn7PeRWU6dlvLrp1rohiRbNgy7Z/0fWHWVg87wekShHf3K9MSNWTX39ficdPXsLH289cN2rsSpw4dR39+tRS4ahomKJCJO2/n6ZCO720/6wpncxtZaJT92lo3aIMcudIrZe3aj8RvbpXV0GopDbb2c88fOSGXv3moGkjF1Qslwst203SlX9qVrMNvsh5Pnv2EjWq5MeGzScgTrFiOdnvLtB5qVp0W71HQkNBjU1bTyGiQwQGWoJC4joKhFCAgZYQQnEzClCAAhSgAAUoQAEKUIACFKAABShAAQpQgAIUoAAFKEABCvy/CjRqPhZjR7cI8emXKZEdnh6vVbudBOjSoVKA77t67YGuPpI3d1okTfKu8ojrE3fs2HXGfI8EKZ4+fWWz7PylO+Z66wmpfDJw6CJUr5JPh1lkXdbMyTHml6bo1nsO7qn2MFIJRYIl1iNX9lTo16u29aIAp1esPmIuz5YlhTltTLzyfI2ipX8yZtG45Z/mtLOzI3ZsGIwlyw+oQIaTClvU0OGUdGkS4446LwmlGIGWPfvOo3rVfGaFmx5dqqF8tWG4eu2+qnbyrnqNn78/RqkwSP68aVT45op5LJkIbh/58qTV22/bedrmfTIj1UasAyPuLz1RovxAvd2e/edVe6LH6n5oheRJ4+ogkr//Gx1g6ti2vPpszqpyyyVVnSQRGtcvrt/TqlkpFQI5jqPHL78XaJkxeyvSpE6oAi3vzl+q8qxeexSD+teF3EsyBvWvj2p1R2KfCoYUK5oZT1VLn/MX3t0HT5++VKGbW2bI6NnzV/j3zA08VSEUGWKeMb1tuEU+V6/+c5FbVUPp0KaCvh4jVTuh7upeSZI4tk1Y68zZm5irWmYZY9Rvy9FQBb5kNGgxVr0Xql3Wc/T5aZ7yi6CO+0pV66lmbK5fc6qwVuvmpW2W2c9cUd8LDgpQIHQEGGgJHUfuhQIUoAAFKEABClCAAhSgAAUoQAEKUIAC/1mBy5cvY//+/WjevHmg5/jixQssW7YMVapUQbx48d7bzsvLSz04elfu/b0NQnHByZMnkS5dOkSLFi0U9xr8ruS4165dQ61atYLfOJS3sL9GJ06cwI0bN1CzZs1QPtLn2d3Vq1dVef+oSJQo0ec5APdKAQpQgAKfLCDVTcLLE/sPGFUr5bNsrfIXazccRYO6LmZ1EWmH8/ufayAP+O0raDxRgZaDVpVRbt12hZsKJ1gvu//gmc2ZSJBk8rSNWLbyILp3qYJ6tYrYrM+XJx0mjG2NYSOXYPGyAyq8UA6VVCuYCOHD6+1eqgo0UnHjU0c0x8g4tHuE3k2hEv2xYlEv1SInJi6r9jfdes3Sy2+qFke5cqYyLWRhoQLpVRWaI3j92keHSVKpINBt9bmNcffeU0SMGF79XRnbWKRfV6iWRP6qEkyj+i7vBVqC2oe0WZoyY7Pex8XL9+Cg9i2vMhrUtbXTC63+uH3HVVdMkTCLMfLnTQtfX38VuHmoAy3Sekkqn3h7++gWSHJ9XB+/QPJktv+dePnqPdVW6RD+mtYZdRv/ZuwO8nllZLUKDUnAJGWKuDrEIoEWaZc0aNhiSHseGfdUZR4J0pw9bwm5PHr0AvsPXoSj4w0VNHmmjz30pwZ6W/lDwk8/DV6oKs04Y6BqZSStlGRIW6Re3aqiyw8z0biBC1qpAIq0GiqYL4M+H5n28fXDlav39b27ff0g/T77P06evqGd7JdzngIU+HICDLR8OWseiQIUoAAFKEABClCAAhSgAAUoQAEKUIACYSJw6dIlTJ48OchAi7u7OyZMmIACBQqYgZaLFy9i8+bN2L17tw56SKClffv2aNq06Wf7HG5ubmjdujX69OmDevXqfbbjGDs+duwYpkyZon9keuPGjWESaLG/RnIuYv+pgZbOnTvj5s2b+uNK4KRIkSIoVqwYcubMaRCEyuuAAQOQLFkyjB49OkT781f/Gj382weQIXrDV7yRXKN8+fIF+f0M6OP/vxmGxvnOnDkTr169QteuXQMi4TIKUCAYAV/1AD8kv3sloNC09QS9t5ZNSuh2ReFVi5pDhy/j2IlrGKwCBRII2LjlhA4Z/Plbq/eOnDF9YvTt+S4garQcsl5m3XLongortOs8RbVEioKfVTDhz0kbMPvvne/tVxbUrJofb9T/ho1aplr/uKJLe0v1mKPHrqLfwPkBvsd6ofw+krFz91n8vWCnTL432qsWTZkzJ4NsK22aIkaIoEMnDg6WR6vx48XE7r3nINVVjEDNpbdhEqlMkiRxHLRoUlK36OmrzimlCodIW6ABfWprO+OAV1S1lj8nb1CtmNrg5StPY7H5GuQ+VBalfp0iqsWPL3r8OEe32qlUIbd+r1O0oEPI0lLqmdsryPHTpraEUS+rcIcMCa3IcCmSGYUKnlVtkqaiuEtm1XLoNMqqdk9SjccYEnLpP2gB2rUug0QJYxqL9WvcONH167HjV8yKLs9feOCeam/00PW5uW3GDIkxckgT+KuAVLGyP6kqO3V0ZRVvH181/zOG/txQtXKKio1bT2DfgYv6fRJGmfXXNsyYs10ZFELXDpVV6CYituw4pa7LeUjopXaNQjoAM/iXJVi/8QS6damsKtGk1C2PVi7so87jKQYNX4SGdYvi9Nlb5vkENCFtjKw/d0DbcBkFKPB5BBho+Tyu3CsFKEABClCAAhSgAAUoQAEKUIACFKAABf6vBa5fv45WrVrpgIs8cHdycsKRI0cQ7u2/fP1cHy5mzJiYP38+UqRI8bkOYe7Xz88PY8aMQcuWLRFBPaj6GoerqysyZMigK+88e/YMO3fuxJw5czBo0CBUrVo11D6yBFkcHR1DtL/Bgwfr8IvcXxzqwaG6Ri9fvvwgijNnzqB3795YtWoVHBwcPui9X3pjDw8PfPfdd+jRowfy5s37SYeX6knyU6lSJaRN++6B6iftlG+mwDck4PXaG5Ej2bbpCejjp1EBh20bBuKvudt1yEC2kQDL76Nb4texq9C6/UTdOmbchLUqoFEHjlEiv7cbqZSyYPFuc/n5i/dU9Y1nNsukEogxpAJKy6YlUaWi+j2himzkypHKWPXeazQV1oju5IiypXOY1TNeur9G+bI50KdH8JXNdu05q9+fLWsyXQnm1u3HGDFmBcb/3loFV8Lr4yVTlUuuX3+oA0AxYlgqxr328YGDCk3IqFW9gA6o9Ok/DzWq5sWFS/exedu/el3EiJb/ppDwS5w4Tio4cwZx4zhDwhyxYr6rPvfSwwt9BszVwRdpqXTwiCWsoXfy9o+g9iHXRNosLV6+T7foiRLFQbcPihM7erCVaoq5ZEG8uKqqydDFqoJJUVWFxRfLVx/WFXwiOljOX6r5JIgXQ4VBjuOFu4duUVSyeFab/xb8ZfRSVR0lpmrbU0xVpvG2PnUd6nEpnBHTVTsiD08fpEgWF4uW7UNUVQHH4e0xrN9w5+4T/TmcY0TVi6UKjlS0kTCL/ZgwZb1uZ/TbiGa6dZGx/rkK6Vyzuq+kJdM/f3fH2PFrMGHyRiyZ3wPPn3voa3FXtYhKnSohcijDZOrcjNG991/4uV9dm2uVzKqdlrEdXylAgS8jwEDLl3HmUShAAQpQgAIUoAAFKEABClCAAhSgAAW+AQFPT09MmzYN7dq1+2LteT4XqwQfpJXAwIEDESNGDH2YPHnyfK7D2ew3Y8aMNvOfa2b16tU6hFG2bNnPdYj/xH5TpUqFEiVK6HOpXr06ateujfXr14dqoEWqs4R0nD9/HokTq94VHB8t8PjxYzx8+O5B8Efv6Au80dvbG1LtKTRGrFixdDjm999/x6RJk0Jjl9wHBb4ZAal+8eqVt2oPF3ygRdq2SNsdXZXEX/UpejukEsmPP9TEzDnbVAWX8SiYP62u4mGst30Nr9rXvHuvn5+vXm29TM7JGHLMGtUKGLOIr0ISQQ15b8oU8c0WM4+fusPZ2VG3x3FXrYeCGtmzpdDVPOLEdtatdXbtOadCKfl0OMTDUxk5Wox27Dqj1juZx5BWQpHeBjEkgPLHmJaYNmsLho5cqtoupUbHtuXRf+A/KsRiqUwi7W6SJY2NTat/0gGaA4cvqootszF9UntdKWToiKWqqkkstFBBnsBGUPuQMIuEYqbN3IqM6ZPgyNGr2LP/PCaNbRPY7szl0VUoaMr4thg3fq1qG7UWadMkxPedKqFtp6mIr0IsMqbM2ISde85g9ZI+OpwiLY669JipQsDhVPiolAqn7MWx49cx/6/vTSPzAG8nhg5qpIIk67FwyV4VEHFS1VQKw0dVXpEQjP24dOWebtXUp//fGDm0iW7xJOHjM+duQbyth1RVkZ+ECWJZLw5wWj7rzz/WxZNn7jp8JdWDpNWQBFqkck68eM6Q48hwU4GYCCrUJMuNIYEtqcjDQQEKhI0AAy1h486jUoACFKAABShAAQpQgAIUoAAFKEABCnylAitWrID8yJDWPOXLl0fSpElD7dNK5ZRt27Zh//79ugx+hQoVUK1aNfWA6t2/Xl27di2WLVsGeehduHBhpE+f/r3jS4UHabVz7do1vb5hw4Y22yRMmFD9S9vXePTokRlosdlAzcj/81+qfUhrHC8vLxQqVAhSzSVaNMu/Pv7tt990cEECMQsWLEDbtm1x/PhxXQ2lS5cu5u5evHihq01IO6Ns2bKhY8eOOhSUO7elbL7se9asWfozS0uizJkz66CNHCe4c5B2O1LFYu/evepf+UZEjRo1zFZGf//9N+Q87KvOXLlyRT8sv3Hjhq4EIRUhYseOrc9XqpzI5z148CBu3bqF0qVL630aAQ2xP3z4MJo1a6b3ceHCBWTJkkW3UIob992//g3JNTKB3k7IdV+4cCHu3r2rDaTtSvLklgc8xnGlTZM86M+aNat2tN+HtJqQaxs9uuVhm6wPzlC2EcOVK1ea95S0plq6dKkZKpBKN3KfN2jQQDbXbY7s3V1cXHRlmNu3b+v9HT16VF8LMQzsXpF9devWTV708PX1Rffu3SH3q9zbQQ25DtJCSl4TJUqk22UZoazLly9j4sSJOmgh5y1Veoz9SfhCAhPS9mr27Nm6gsr48eN1hRGpalOuXDnzsCdOnMDUqVN1qyVnZ2f93fzUa2RYJEiQAP/88w/u37+PMmXKoFOnTroay4wZM/Q9KCch3xWpjPPnn3/qc/qYe+RTvl/GuUpFpXnz5unrniNHDm0l97u0K5PfETJkWzHq16+frsAk3/vp06dD7gOZliCbhAGN31cBXQf5nVW3rmpFoj6vrJfqQxwUoEDIBJ49e6kf1EePHrJqWoHt9fzFO9i+8wwypEuM4ydvYM36I6haKZ/N5hXK5oL8WA9pOeTm5oFmjYpbL7aZ7tJjOg4evmKzLLiZ1Ut+1O1pHj92R+JEsbD/4CX0Uy1wjHY39u/38/NXrX28sGvTEL1KKpOsWH1IhUw6qHZKVzFhimp1NLWzXnfl2gNI+MUY3q99dXURY75IwYyQH2MsX3VQ/V0YWweBpELN2XO3dYsho8JI4QIZUbhgemzbcRruLzyxdfu/yJ0zpdkm6ckTd72r/oPmI0/uNGrbjEHuQwIt8//ZjZzqNVWqePrcpEpL+67T8Puo5sZpBfqaMnl8jPu1lbn+2g1LUDKxCtlIqHndhuMqbFNCh1lkI9m+bq3CWLvhmAoA5ceYcWtUqCiertoj631VUEXGtFmbsWnrSV29R8Ik0maqb0+9Slf8mTh1A+rUsvx3lWUpIC2E5szbqdoN1cTN2666Yo6b20tUq5wPvfvPxZgRtp8nJEEWY9/Ga5xYlv/2yaDCP9fVZ71x8zHy5EqNkyevYdTvq1QoKZVqq/QvypTKhl7qmHFVpRtHFW6SINPU8e2N3fCVAhT4wgIMtHxhcB6OAhSgAAUoQAEKUIACFKAABShAAQpQ4NsRmDt3LuRHwgO5cuWCBBCsQw0fI7Flyxb9AFvad8iDbmn1EjlyZNSsaSmxv2TJEv0w/vvvv9cPiGV7eRhvPSRk0bp1a9SpUwdt2rSBPJQfNmyY9SYoWrQokiRJokMAct5VqlTRQRTrjYYMGYLTp0/rfchDdXk4LRVdJNwgQ0IDUo1D2qnIQ2h5QJ8yZUqMGjVKtzMygi+7du3SD6flgbY8QJEH3PXr19f7kLCFnKOEa+ThvVju2bNH/atvy0OToM5BKkNIq5N8+fLp87pz544O3siOpZqOBCvSpEmjj2P88eTJE20qIRZplTJ58mT9KgYy5PNKSKZx48b6XCU8cu/ePdNPqmZIeEbayEh4pkiRInofEnKQsI+MkFwjvaHVH1JNRlzluklYZdGiRTogtHz5ch1mkuNKWEgCT1JxRqqy2A9/f38dCpKAx4gRI8zVQRnKRnKscePGwbinNm3aBHmPBCGMIdfaGIG5S5hB7gO5DhLykfM02sYEdK/ItZH7UsImRpWgQ4cO6fvD/n41jm28SthBAiByz8gxJcBljKtXr+rAkVSradGihTaRYJO0upJ78NWrV/oY4p06dWpICEba+kg7LLl21oEWCe3I908+W2hcIzlHsZDAmoRE5LPL91OCNfnz59ehG3mVc5TPId9ho+XQxxz/U75fxrnK/SSfX8JUEkz566+/9L0uITbxkxDQyZMndZUguaZSZUXuHbGX73ujRo1UNYM42lZCgBLikfcFdB3kmJFUuxS5vyVwxkCLiHBQIGiB8KrahIxDRy4hhnMUvPJ4rapphFetcyxtZYJ+97u1Xl7emPn3NvyzeB86t6+AerWL6H327DtXt7fp0KaCWaVj9NiVOjTy7t1Qf1c+xW0V8vh52ELrxXq6cX0XFZBJoiqetFa/F96tXrBojwpPHMXUCe11hZPX3j6qZZLDuw3UlNEi6JHrcyRPZqmqkStHCkwc29ZmO2NGqnI0avmHMYutO06pIENKpE6ZAL6q7czDR8/NiiDnzt9WYZ285rZe6vgScAhoyO+z5SoYU1u1IpIh8zIkPGM93FS7m6RJ/NXv+Hg6vGG97tqNRyokdF2FWVIjVcr4we7jiapK84+qfDJnehftJPtqWNcFRQtnsnG0PkZQ02vWH0XRQhl09RQ5f39Vncfd3fb8X6i2Sf7+fogU2UFV66lhszsJpezYfQ4SGJGKMQGNfaqCjI+PP4oVyWSzeqZqS/TC3RPlyuRUVXAi4o9J63BCWYwb3QplSmbD9z1noXoV2+CUzQ4+YCZ92kS4d99Nh1rq1S6s/nvQFblVsGVw//rYf+AChvzUQFWtWY28udKqQGxMNb3mA/bOTSlAgdAWYKAltEW5PwpQgAIUoAAFKEABClCAAhSgAAUoQIEwEZAAgVTWCMshoYuAhru7u65UINUKZFSqVMkMoAS0fVDLJNxhVBSRYIOEGHbs2KH3J0ECCVhIGMOolJEzZ04dIJAggDEkeCKVPXr16qUXSUWFCBEi6NCCsY0ER+TB9IQJE3R4QR729+zZUz9Ul20kFCNVQaQ6Rd68loc9sg+ppvHgwQNdBUS2O3v2LLZv365DODIvlUwk0CKhD6leI2PDhg36oXeUKFHMoIpeof6Qh/Tnzp3TD7vlIbcMo8pGcOcg5/P06VNd3UICFPJjDAmzyHoJ7ViP58+f6+CGsa1sJ+dqBFqkykixYsXMt0iwZdCgQarFgbd+0C4rjH0YrZMkwCH7kEBLSK+ReQA1Ie+RQIk87G/e3PIvlCUYIIEQCfcYjhJwGjx4sOlj7EMM5fpLtR0JA4wdO9b8DMEZSmUaucbSpsj6npIQj/U9ZRxLXuXzB+YulUakwogEWWTaetjfK9LGSO4V+d5IKEKGtEqSz2sEXKzfbz0t100exkn1IglLZMr07sGZfEekEtCPP/6o3yLfkX379kHCQVI9xBhSIUgCUcaQUJcEZIz7WwJPEhgbPnz4J18j4xjGq/hJCErCKlI5RgIuUhVIprNnz659ZdtSpUrpbT72HpFqUh/7/ZJKPzKkUpE4ODk56XkJrkn46dixYzpMJsuHDh2q70vjd4WEXSQYJtdTtpdRsmRJSMUpqcZkHViyvw6yrdw/EmjhoAAFghdo07KMrn5Rt8kY9XdzLLRuP0GHBEqXyKbfXKZUDhUuyBzgjvxUEDKc+p9UzOjWe7auWDF/9vdI8TY4yN5Y4gAAQABJREFUUih/Bkyf0A7SFue1ql7So4vld3Vxl8wqtGBp4WLs+NiJayqo5oVypXMYi8zXuHGd9bS0ODLG3v3nsGDRbl0tJbZqVSNj8C+LkTxpXLRtVdbYTL9K250bt1xVCCSe+p30xGZdUDNSkWT02FX4sWdNHWKRKjapU8XH4uX7IQGZi5fvY4zLu/928H79LtDi9vyVbomTLUtyPFchj6mq9ZCb2ysVusivDylGUsVm2swt6Nqhkvrvn9hYt/Eozp2/g87tKmhDw9E4x4NHLqrWPPtQq1oh9fe15RFuUPuQUGJN1abJfj/JksTVISNjv4G97t57DtmyJlcV7CLoc1u87ACm/NlGby7/rVmhXE4sW3lQfY5EKpidRlU8u4zlqw6hQZ0iuiVV7RqFbHbt6fVaVWtZjeJFsyBfnrR63fFT13QLo/hxY+DoiSsYOGwx2rYuo1v/GG9++dILq1WYRqrKSJhFqgBJcOq3kc10C6J8edJh+KCGuH1XtdtT1+VTR6XyeXTVlSXL96mKQBfVtO29Gtz+X71SFQxd3YLczMvTJ8j1XEkBCoRcwPLbMOTbc0sKUIACFKAABShAAQpQgAIUoAAFKEABCvwnBaQFhTzc/38YEhKQh+wfM+Qh/YEDB7B161b9QFiqNBjthiRkIBUSpPWP9ZAHxdbhg1OnTukH/dbbSEhDQhPWQ87z559/1tVSxFce5o8cOVIHEeQhuLTwkTCKtHWRIVVPZMh5GA+75WG0VG8xhgRlJMggbXskmCCVRaTCg1ScCWhIZQd5eG2EWay3Ce4c5NhSaWbAgAH6M0ibmvjx4+tdyEN4qRYjn8F6xIsXT7fzMZZJaEhaE0lYSSpxyAOeS5cuYd26dbqShrRsks8tYRGjtZQcwwizyH6MfUhVCglDhOQaGceXVwnESEhEqo5YP+iX6y7rjCHnJ0EN+yFVLOT6SjBEztdojyTbBWcon1uOLVVBrEeJEiVs7inrdWIYmLv1dvbT9veKfL7KlSvr+0sCLVLpR8JRUjUnuCFVeeQ8JHAkVW1kP8b3RCqeSPUTa0v5nHJPWA8jfGEsk3kJX0iATO4lCSlJWEM+q7z3U66RcQzjVa6XUXlFlknoRgI/gY2PvUc+5ftlfMflXI0wi5yfXEf5XomJXIeAhnwWaR1mhFlkG/luSWBMfj9ZD/vrIOsk0CVhLA4KUCB4AX/13w3SAiZOLCdMm9hBt3Vp3maCDg9ky5ICRlhE9uTr648IqjWdjAPqQf8SFXBwcoqCEsWyoFXTkqhcMa9ZhUVvpP7InCkZZk3tpNvsGMsK5H2/1aFUhrl46a6qAPIuYGhsb/8qgYZBw5fgzzGtVBuhd61punWqjO86TVYBHV90alvRfNv6jccQO1Y0pEqR4IMCLa9VQMXLyxeTp29Gwvgx1H8jxESa1AlVC6LDuq1Sg7qFEUe1nTHGvfvPEOttuEZCLNIK56UKN0RQVXDy5UmtK6UY7YXkPRPHfYdBwxahVQd1zqodT6KEMTFiaCPkz5vO2GWwr8Hto3P7dw72O5PPV6PBKHOxn7q+1mP8lPWqSomrXpQmdXwdZpF7whhdVBBHqrQMGLJQV2pxVu2q6tQqiO9alTE2CfZ1y7ZTWLrikN5O2kB16VBRh3Cs3yj32IRxbXRIRpYnTRIHQwfWt2nnJGaPn7ywfttHTW/fdRpTZmzBXVUxKHPGJGqf7kgQL8YH7WvlmiPYuPlkkO/x8PTWYaEgN+JKClAgRAK2/9daiN7CjShAAQpQgAIUoAAFKEABClCAAhSgAAUo8N8TkAoFMnbu3Klfw+IPCTZUrPj+gwV5aCuhEqlwIW1LPmV06NBBt+KQihlSiUUqN6xcuVLvUoISMuRBvvUw2vPIMmk7Iw/erR8ky3Ifn8D/JakEIqRtUe/evXXrEwmkSDsQeQAtYRN5NYYEKqz3nVKFRuyHVLqQiidyHhLMkYoTsp+AxrNnz1S590QBrQrROfz22286EDFz5kxIVQgJ6Ei4QUI28hnshwRurD+PVDSRYbQOkOoiy5Yt0+1VpHqHhCy6d+9usxvrh/uyQirPyBD7kFwjvbHVH1IJRIZULLG2FTPr4IxUmzHO1+rtui2LtKaR++WHH37QVUikFZYEYIK7jo8fP9a7MsILxn6t7yljmfVrYO7W29hPB3SvSFugZs2aQc5DKpRIGEcqCgU3pIKLVDiRFkFSkUWum4Sy0qVLp1tISaDM+p6TaQlwWQ/xth5S0UcqvkiISwIt8iptpSS88anXyPo4Mh3QPST3T2DjY4//qd8vOR/7Nmryu1juj4DuReP85XsTUKhPvn/295b9dZB9yPuNgJKxT75SgALvC0gVkQGDF+DW7Sc6XCFhlVbNSqnvTyS07zodyxb8gPsP3VTVkFv6777NW0+hU7vyuKPa8kgroXGjm+O1twqPdJuB9KpKx5VrD+AYORIiqIoeDg6W4Iu3t58OmEiFllzZU2HfwQs4e842IChn9kK1rpF2Ow2b//7+iaolvwxpogIp8bFrz1n0HjAXMWNExa/jVqkWSV7q7ypv3brHQ4Viojs5QiqJeKvz6tapCqSxz4LFe3VrIOPv70NHrqJwqf4BHufNG3/1+8lBr8uUISkO7Bhu8/e+rJDWSFeuPkTzxiV1pZPJ0zep3/URsGPXGYwc0ki/V6qibN8wSFdykZCLUVFFr3z7hyyXNkpyru4vPVQ4xlKJxnob6+mC+TLg2L7R1ot0gCaofRgBJJs3vZ2JrNoCTR7Xzlz1ysMT9ZuONeeXzOuprskrhA8fDtZBHGMD2bdU3enWuYr6e/g54qkqK4axsY31q2OUyO+df58eNdG1YyX1e9tLv996e+vpaI6RzVm5xmVLWv6uf/jITbeFiqLuu7UbjqFY0YCrCZlvDmYiU4ZkGPpzfVWJJyEc1DWVIdWATp+7/d47JYB1+txNVU3Gts1U4wZFbQJV771RLeg7cH5Ai7mMAhT4CAEGWj4CjW+hAAUoQAEKUIACFKAABShAAQpQgAIUoEBIBCToIC1B5CFtaAyprnH06FHdGkUqTMiQYIIxjLCDVDyREIoxrEM+4dXDCakkIkGY+vXrG5voahPmTAAT8j5pw7Nr1y7dXkX2ISEYCbBIBZIPGVK1QR5mS0UdaTki4YDARqpUqXQwQdo22TuG5BwkbCABGgka/fLLL7q6h7R8Ej9p0SOBjmjRogV2eJvlUtpfAhJSqUaCFjJk/kNGSK6R/f6MtkgSuDDa/thvE5J5uYY//fSTDrbMnj0b7du31/dCUNdR/GRIhZ/06d/9i3vreyqgYwfmLg/C5Mc+tBDQPmSZVPGQ40pVFKnOIkGuoB6mWe9HQi0SOhIzeZWAy8CBA/W1l8/8MZZyH0nLrn///Vd/Z4zKQqF1jazPP6hpw0AcpZLLxx7/U79fco4SNJLAl3FO0gZNhn1AyfqaS4UVCZhJMMU6vCNVb6zvM72jAP6QylRG67EAVnMRBSjwVkAqisRQwZD5KiwiIQFjNKhTFAXzp0fCBLF0oOX0WWnTBkhFkhLFsqkgpgPGjGiqqo5YKomsWd4Xly7fU5XhHqnf337wVX8f+vn5q/eEe1vpzBJGSKXa9WRSVS+8VGWQDx2JE1pChVlVC5yWTUoiowqbRHeOos/bSZ17dFXFI1q0KLpCzL37T1XrmoV46vZSBV+iIb9qb9O4oaUdYKTIEVC+bHYMH9g4wFN48PAZOveYYa4zfneZC9REUtWyp2PbCojhHFX9jo0ICb7I5671e2vkzJbS3FTem0BVdQluSNgluDDLp+4jYvgI6lpYQkayLzn3jm3L6qowxr69vZ10uMTBwRLkkOXiF9wIrz5n/HjBf87A9iNBF/kJaEgFnFw5Uge0Si+LosIkj1xfqPvtjW6BVLFc7kC3lRWOKhgTN66lRVVAG0qVHPmxHtHU/ZVYteOSsXXdQP33WUdVAejU6evYuOUkmqvqRMZoVL+oDjcZ84G9tmhSQt+vga3ncgpQIOQCDLSE3IpbUoACFKAABShAAQpQgAIUoAAFKEABClAgWAGpoFKzZs0gqxMEu5NANpDghYQS5IGxBCOkhYy0HzIeCMsyaTe0ePFi/YBbHviuWbPmvVYlEsaYMmWKfsAvD+glACPBEushD+0lQCLtPqSqzPnz5/V+Zf9SeaFw4cK6copUv2jbtq2usiKtho4cOaI/v/W+7KflM8g5rF69Grdv39ahH/ttjHmpLCKfZ/jw4WjSpImuUiKfu3Tp0sGeg7T3kQfkxYsX159FKmzIkAdQUvVFPsfNmzdtWgwZxw3oVc7b2dlZt0QpW7asbgEk1Vo+ZIT0GlnvM1asWLo9k3FdpcWNVOQQv6ZNm5pBAuv3BDYtoZhOnTphzJgxKFeuXLCGcr4FCxbEokWL9D0l7WSk3ZK0KgpsBOUu78mUKZO+hyXMIMO4f/VMAH9IZRkJDsm1kvvAGH379tXhnIDa2hw7dgxSfUTuUwkiyTU3HlpKkGvEiBF6n3IdpYLOvn37dFsrCXgENSQIlStXLkyYMEG30zGqh4TmNQrq+MY6o7qMBI3kfD72+J/y/TLORVoLSQWcunXr6vtSWnRJiySj/ZX8/pDvm5yrVGOS76EcV+4puZ7NmzfX579ixQpcv34dQ4cONXYd6Ovly5d1uCnQDbiCAhTQApkzJg002JEyeXy9jVRVkR/7USj/u2CsVM8IbDv7933qfJxY0dG+TfkgdyNtiKZP7Ghu069XbXO6cIGMkJ/AhoR4ls7vFdhqvVyqkhgjqmMkNGtU3Jj9z762+66czblJoKVxfdvzlmBN88YlbLYL65kM6ZJAfgIb8jm6d353PQLbzlheuUIeyM+HDOt72/hvBbnu8h2w/h7IPtOmDrhqoP3xgvpM9ttyngIUCFrgXVQv6O24lgIUoAAFKEABClCAAhSgAAUoQAEKUIACFAhGQNrYyMPyoFptBLOLIFdLuKBNmza6dYqLi4sOFrRs2dLmPVKBI378+OjVqxekNdCpU6fQuXNnm20aNWqk2+5IqEGCIdKOR1rRWA9p7SIPqeXzlC9fHlKJQsItgwcP1ptJu5px48bBzc0NrVu3hoQspPqF8SDAel8BTVeoUAESOpDqKUG1DpHAgLQ7unjxon7wLSEMefAt7VeCOwepCDF//nxdnUU+p1RkkSCDDHmoLg/dxSekQz6bhEEkUCQhmSFDhqBVq1Yhfbu5XUiukbnx24k+ffro4I20fZJrLxVHXF1d7TcL0bwERKRChlhIdY/grqO0aZKWQ3JPyb0g1UnkPjRaKdkfNCh32Vba9jx8+BAlSpTQ7aDs328/L9dcgk/StstoCyTv37Jli/4c9tvLvLSzGjlypH6PBMzk88q1kyFhKjn/33//HRJokXkJSQV1H+o3vv2jatWq+t4VR+sRmtfIer8BTUtFFjkPuSbS9kjGxxz/U75fxnnJ9ZTqUWIp5yS/B8XeerRo0UJ/b4sVKwYJwMjvl4kTJ0KCKY0bN9a/j9auXat/t1m30bLehzEtwTlpQRWSSi7Ge/hKAQpQgAIUoAAFKPD/KRBO9WxVRcQ4KEABClCAAhSgAAUoQAEKUIACFKAABSjw/y0gD3OlAsDOnTv/bz5IzvzFMO+vaShUIN8HnbO0S5FWOVL5ILAh1Skk8BHUQ3qp8uHl5WWGBOz3JaER2Y+3t7duERRYUEdCLdJiJrhKG/b7/9D5J0+e6IflAX2moM5B1kn4wj6AIVVGunTpols4SXuakA5pryLnEjdu3JC+JcDtQnKN7N/o6empq2BIy6bQHkEZyrGsz1eCNRIQsm55ZX8+gbnLdnJvyXojoGL/Xut5Oa5UEvrjjz9QoEABvWrbtm26cs/UqVOtN31v+tGjR/o6SXUd+yGVWyQYIQGwkAax7PcR0PznvEb2x1P//319X1t/Nz/2+B/z/ZK2VRIWkmCNnIs42rcGM85Zfo/Ij/3vCbkP5H4Iyb0g++rXr5+uFmQElIz9B/d64NARNGnRFicP7w5uU66nwP+NQHSHw/8358oTpQAFKPBfFHD3yf9fPC2ek5UAWw5ZYXCSAhSgAAUoQAEKUIACFKAABShAAQpQgAL/DwJSVSOoMIt8BmlBEtyQYEhA4RDjfRICCElwIrhzMfb3qa9BnUtQ5xDYusyZM+sKNbNmzUL37t1DfHry0P5TwyxysJBcI/uTkuoX8vM5RmBOElSQVkvG+UpIRFo5SbujoEZg+5P3yL0V0gDDwoULdZsi69ZCUiVGKhAFNySsEtiQKj1S9Si0x+e8RvbnKtfFfnzs8T/2+2UcP6BzMdbJq4RurIM3xrqg7hNjG+P15MmTkJ8BAwYYi/hKAQpQgAIUoAAFKPAVCzDQ8hVfXH40ClCAAhSgAAUoQAEKUIACFKAABShAAQpQIGiBjh07YtOmTZBqHRJw4HhfQFpJ3b17F0WKFNGtZfbv36/bvTRr1uz9jUNxyebNm3H06FGsWbNGV4KxrrLyIQGkUDwl7iqMBdzd3XU7o6CCeGF8ijw8BShAAQpQgAIUoEAoCjDQEoqY3BUFKEABClCAAhSgAAUoQAEKUIACFKAABSjw/yUg1SHq16///3XSX/hspZ2MVESRFk3p06dH5cqVdWWbzx0Akko4UhVGKrSkSJHiC39qHi4kAlIlJ6SVdkKyv+C2cXFxCW4TrqcABShAAQpQgAIU+IoEGGj5ii4mPwoFKEABClCAAhSgAAUoQAEKUIACFKAABShAgdAWSJw4MeSnQoUKob3rIPdXtmxZyA/Hf1egTp06/92T45lRgAJftYD/mzcIr4KPHAEL+KrKcxFDqfLc69c+iBzZIeADheJSuaYyPua6fur9IO/39fVDJAc+Og/FS8pdUSBUBMKHyl64EwpQgAIUoAAFKEABClCAAhSgAAUoQAEKUIACFKAABShAAQpQ4D8r4KMe2Ac15KG+ESoIarug1kmQIqjxfa+ZOHfhjt5k+67T+KHvX0FtrtcdO3EVm7efMrc7ffYmXMr8ZM7/VyeePH2BBs3Gwu35K5tTnLdwN/6cvM5mmTHzzO0lbtx6ZP64v/SEl5c3XB8/D/Dnledr463m69oNR9G20xS8eRsQMVcEMnH23G2M+n2FudbbxxcPH7npeZkuVu6d9YOHz2B/jeXatOk0yXz/x06M/n0lxk9e/8Fv3733HFq2mwBvb98g37ts1QGsXnfE3Mb9lReev/DQ88fVPda73996Wr4D9x48M7eTiY+5lo9c3bB81UFzP9dvPsKVa/cD/Xn85IW5rUzI9WvfdSquXn9gs7yn+s5cuGT5Dtms4AwFvlIBxsy+0gvLj0UBClCAAhSgAAUoQAEKUIACFKAABShAAQpQgAIUoAAFKPBtC8hD8ZVrDmPmnG148PA50qSOj97dayBPrjQmjIQiRo5Zjj37ziOc+l/J4lnVNtURJUokcxtj4u69p+jUYzrq1iyIxvWLG4t1AGPEr8tx6vQtxI3jhPp1CqNpwxLmepk4d/42jhy7hmGD4urlq9R5ZcuaUk8H9YezsyN695+LFyoYUqdmYbzy8EJ0pyhBveU/sW6LCnrEjBkVMWNEszmflWsOoVmjEjbLjJnFS/djy45TSJwoNq5df4jvWpRGhAjhMeaPNYgfz9nYTL8+efISzZuUQPPGJczlEjj5ddxqJEoQC4N+WWwut5/4uW9dRAhvqXuQLm0iHD56GTt3n0WJYllw67aruh9WYMakjvZvQ/feszFmRHMkSRzHXPdYhW1ix7Y9N3NlABMSGDl89NJ7a1KmiIepM7cge5YUcIxqWxFGjpcsieW+sX9jgXzpMHn6RixffRAN6hS1X23Oyz3fqt0k5M2TFokTxsKmzcchhu2+K2duIxMvVMhFAkFrl/U1l3/MtZTWiROnbkSsmE76O7VwyV4VbrIEaMwdq4mLl+/i9u0n6Nqxks21PHPuFq7feIj48WPCOriUI3tK/L1gJ/r3qWu9Gziq7+vHVLex2QlnKPAfFGCg5T94UXhKFKAABShAAQpQgAIUoAAFKEABClCAAhSgAAUoQAEKUIACFPhUgXUbj+kwRKd25ZA3d1osXLoPHbtNx9IFPc2AwMAh/6gKFC/x55jWuvrGb+PWYMRvKzC4f/33Dj9GhSXk4furl97mOm9vH3zXYTJcimbCjz1r6QoUw0YuQwznaKhWOZ+53catJ1G6ZFZEjxYFUr1i38FLkKoxPw9zNbexnvhePeCPo4IS6dIkxqQ/2uCnIYtQplQOeHh4w8kpsvWm/6lpqW4yffZWHDx8GXFUuGfYqKX6/Fo3L6MCDS9VSMEV23eexiGrUEfeXGlRs1oBvV3dWoVQv3ZR/DHpXRWXksWzYFA/2+sxQoWQYqiwjzFeuHug78/zEdUxMpydo6BqxTyIEDGCsVpXXRk3fh3Sp0tkBh+k8oiHp7cO2Dx67Ibbdx/DxyfoKjvmDt9OuD52x7+nb6KzCjoFN4q7ZFbnlQ+dus1E7RqWzyuVSSJHjqRDSmVLZceBwxdtdiMVfYoXzYI2Lcvo5R2+n4pLl+/bbOP12hdTZ2zB9FlbbZaPGdkcubKnwr37T3UwqE6tgioo9ABv/P1ttgts5lOuZby4MdC3dy0MGbEEmTMlRV/13ZDqO0PVfIsmJZEiRXzM+GsrYqnAU9+eNVEgb3qb09i45SSqVsqH4er+OXb8ms06malRd5TNsrkzuyChCjJxUOBrE2Cg5Wu7ovw8FKAABShAAQpQgAIUoAAFKEABClCAAhSgAAUoQAEKUIACFFACc+bvRNnS2dCoXjHt8VOfOjh85AqWrTyIbp2qQFrK7D1wCb8Ob4LsWVPobVo1L4WhI5folidSZcIY0tpFqkmkSZ3QWKRfz128o1q3eOL7jpV1NZJU6kH9yVM3VGDlohlokeOs33gcA9TxZcz9ZzdcCmdClUp5dPWVMb80g0Okd+EL2SZq1Mi4fPUe3NwsVS16dK2My1fuQypX+Pm/UdVershmNsNJVW7JlCGpzbIvPSNtgjZvO4UfulY1Dz12wlpVXaYgFizeg/Jls6O4S1Zz3foNx1QIyLatjLnSbkI+uwwJr2zbcRqtmpXS809Vq6Iu3WeiYIF0aNOijAr//IPZc7dj6MBGiK0qhFiCTauRP286DP2pAYzrun7TcRW8eVctZdees7rKybkLd1G70WjVggrw9fXX03Kgu/csrYj0Qd/+8fiJuz5u6RLZrBcHOJ0wQUxzeb9etfFSVdtp02ESCuRPryr6WO5RcwM1EUkFXZYs2w8/v3cBFPeXXujXu7YKaL2rMmT9HmO6jaqy4qvuOxmTpm/Cs2fuevqsMowePSry5kqNRWrfm7efVG2dfHX1FPnMcm8Z41OvZZkS2eHp8VpXabl15zHc3T1Rq3pB/K7uh1u3HqNShdzo1rkKwocPB1mfPKmlCo2n12v9fZk5pQNSp7T9vhnnxlcKfCsCDLR8K1ean5MCFKAABShAAQpQgAIUoAAFKEABClCAAhSgAAUoQAEKUOCbEZDWLjduPlZhFhfzM0uQwaVIRpw5awlGRHKIiOTJYuPu/SfmNrfvuCJNqgRm6EFWyAP20WNXome3apinwijWI1mSODr8Iu1ujPY6N1UliqyZkpubrV57GM/cXqmQSiRcunIPy1cdxpJ5PRAjpqUdT+GCGVSVDts2M/LmTVtO4chx2+DK3btP9X4nTP0fe+cBH1XRRfGbQqih995771W6UqUJIr0IIqggShUEBEEFFJCmoDQpgqI0EZDee++9hhZKQklCQr57ZnmbTUhCCAkfCWf4bd5782bmzfxf2WXn7LnL7e1jBeFjsmZJKeO/72Ty/fz85edfV8kGhFJyCpSG9UuLr+8juXfPVz7qUtuUGT1usYb3SaZOJwlUbLJJOrevKWnSJJHvxy2RIQPeNcKbzduOSSJ1lXm3SXnjmGEq6h+Ec1q8bKdAFHJBXWuyZ0ul7daROHFcBFwb1CttFdWQOCuNGGft+sOyaH5v4zxj7UQoJktggrz1G48IRCJ79p2RLJmCh9mB68vmrUc1xE8i6dWzgaTRcDRIEH2UK5PbPq5vhrWW777/W1q1Hys5c6SVw0cuSp+eDeWtGkWDHatV88rSuGE5SaiuLp4q+PBRtxaE99m8ephpN+SflRpGyTpn1r7r6khTt1YJqVgun5UV7hLX5bjRHUwYnT5fzFQxzzWJr8fvfWiWvd5jFZUcOnJJGZaUVqEIXRImdDPnzF4hlBXH8DsIsSSqU3FzczXCEZxvvJro2EMmXCOr1UHHSi9yLtEGXFaQEPYLrNJquCOIxy5duiWurs7yt94bHh63NT+p3YVnzu+bVLT0UB1Xkpu6cL9xFPWYTIc/3T6oLQXzB91vDru4SgIxngAFLTH+FHIAJEACJEACJEACJEACJEACJEACJEACJEACJEACJEACJEACJEACJBCcACb006ROoqFtTtrD2aDEseOXBWFirAS3i/5fztGwLHc03Iy/bNx8TEYOb23tNsvvflhkQtVUq1zoKUELwgL17vm29Oo/y4g40D5cNJo3q2jqet/3MYIOZ2dnsz1h8nJp3bySCkmSG1EDMo+duGzEBqaA/kmmQheET7GEJ1Y+lp0/miTVqhRUJ5EgoQ7yf5u3QUUgp7Fq0heDZ8vR41ek5yf1JF68ODJXBSsHDl2Q4kWyW0WMyOSohrSByKWphqNJnTqx3NP+7tIQLwO/micF8mcy4WCWqbvM4K8XqCAnnlhOJGMmLFVByy7tYy3JnTO97N57WnxUDAFBS2gJTie9VBAEYQ+YWSkgIFAFHUFTtpnUpaOohsk5d+66VUSFOP4CF5bGGqYHLyvdf+hrxCidOtQ0YYQCNJTO8RNX9BwekX0HzqrDiauGaPI1Ipat6sTyWPfnzpXeCGHcE8VXd5L9smfvGRMOZ5MKf+AU4+LibJxErGOEXO7YeVI+6FhTUqeyiWmu3/SSwyrK8dfwUeElHBeiC1yXGGP7zj9K+bJ5JY6rq8RXN57+vRpr2KH4RnAyYuSfUvutonru3tYQSm7hNRuhfaPHLpbi6sjyVvWiJsxP4QKZ9dq4HG7do+o8BBFUaOlZ5xLOQq07jjdV27eqIh+8/6ZZf69pJXmjYn4T2mulhuAa1K+ZyYczztqNh8z6jZt31V1nrVm3/vRUtx/VAYWZIJJhIoHYSiDo6RhbR8hxkQAJkAAJkAAJkAAJkAAJkAAJkAAJkAAJkAAJkAAJkAAJkAAJkMBrSKB50woyfvK/MmrsIhUP5BE4hFy85CmJ3OPZacB9xNXVRZav2GtECSlSJFKBRZCIYOGibbJ12wmZPb27vU7IFQg0PG/dkyXLd8nVq7c1nFB+cX0i7Jg1Z53kyZ1e7quwAqn7R3XVBSX4BPwkDQmDsCtWqvJGAWnWuIK1aV9CHLN3/3l1imkg19TtInWqJHbHkYfqLuLmZnN5gRhhjY4VwhyIcJAgZKnV8GnnEYgx1iwfLPHjxTXldj8RxZQoml26dHrL5JUpmVvOnL0m8xZsMoKWM+euyux5m6Rfr4bSpIHN5aNQgSym7KkzHsZN4/zFG2Ybf+CukS9vBhN6plnr72XMyPZSTEUrSBARJXaPb9bxJ3u21FJBhR679gSJc7ZtPyHvvDdKEieJb0QfKAe3jzrqjPKh9hH8Dh0+bwQ8GdInkwrl8kqtmsU0tFF+E7Lmisct+U9DFCH00Mgxi8VLQ0SVLZ1TumvYqRmz1qE5uXTF0zjC5M6VQR7520L1wA0H7jLDBjc3Zaw/7g79ra5873o9CFcgskPDQzWoW8ruIjIeoqb3Khv3Eohwxk5YJi3VTeatmkVkwcKtGg6rropJgoQ71nGxDFDhDFxsLul1HF66c/e+fXfOHGkEwiUIWi5evKnXVnnJpi5EVkJ7F9Vlp1WLIJGUq4tNmIRz97znMkf2dLJ6+SCZrmGf4EhjpSHD56u4ynZv+fkFSN3Gw80uHx8/qVTR5nAzdfpq5VJC/vhru17btrqbthzXayhswVCNaoUlYQbb9Wsdi0sSiC0EKGiJLWeS4yABEiABEiABEiABEiABEiABEiABEiABEiABEiABEiABEiABEiABBwIt3rVN0P+9ZLsRAWDiu0nDsnJQxQ9IcP1o22mCdO1cU5o1qSiBGupl5pz10q7zeFn21xdyXl1CRo1dIj9+30FSJHN3aDloFSF5+g78TX6e0MWING5rm19/u1B6958pE8d0Nm4fvTXczZCv55tK2bOmDar8ZG3syA6hhhwKWXCLHitJ4vgaRiedfKxhWCAc+PSjekbU4uPrZ3dHOa6OLwjjU1xFKVaCkKBi+XxyX91YHFPxotnsYhbH/OrVbEIYK6+S1p23YLPZPHT4ollWqVTQ2h1see++r/TWcDpWssQVCBEEsUbfAbNk9rQekjJFYhW0BKgQJ3RXF6t+5TfyS04d6/Ubd6Xnx3DrCJQW7X5QkU42E94of76MUq50bhXNZLQLXj7s/pOGk0plBC1ww2nTorJ5oa6Hio4Q4sk9UTw5e/6aIDwTwiaVLpHThGCy+ntMhUG5cqYNFt4H7jmW+Af9C81Fx+q3tezZd5o5b9b2t0NbGRHMvoNnZe++s3LqtIe60PiZUFhxNSzQjt0n5YG6z2TJnNqMJ2HCuILQVhAsXb1217joYBleglDISrhO/ltjCyN07vwNyaXXzzVl6ef3yBTxvOUleXKlCzbO9OlSqGuRpx7r+c8lXGgQxgmiGIRPstKg/s3sDi2VagyQZQv7m12ODi25c6aTWm8VN4IWq16C+HE0YlLY0/ouT9yPrPJckkBsIhD2lR+bRsmxkAAJkAAJkAAJkAAJkAAJkAAJkAAJkAAJkAAJkAAJkAAJkAAJkMBrRgAT662av2Fe1tC/GDLbhHzBNsLMIKRLU3VDiaMuLUitNBzQb/PWy3YNUfPL9DUqXohjXDPgnIF0VkUuXt4P5IwKIXp+XE9Wrt4vVSsXtDuOJEuaSNq2qiztP5iori3e8qkKMNzivPiUJJwufpn+n0Ckg3ENG9RCOnWbpMIVUZFIPYFDSwIVESBBkOGuLjSJEycw29YfiEdCpqxZgpw6HPclDyHggcDCcte463Vfww+56TGCnFUc60J08/vMz+xZtRoMs68jjM2mrUdl6DcLZOzIjuKnwguIS6w05dfVMleFM3fvPpDuXetY2VKuTG5p8/546di2uhw8dE48rt2RMqVym/01qxaRVh3HmjpWBYhf4CozZvxSK8sskyRJIL/9EuS2k03Hf+HSDS17VbJnT6vOMxuMyCSJsoPTTWk9RscPJ+mxcqnA45ZUrlhA3VXekKvqEBORlCF9CtOvRE9YwS1o2fI9KtAIlLy5M0ihgpk1hNGbusxizivCKO3adUr2HTxnwiFduHTTCFl+ndzNhKjy8n4oH31Q24RNCu/4CO2TJXMqUyRHtrRy4pSH3PT0klSp3A3v/oNmS6oUScTztrf4aUgnvOZ13SyVKuSX3eqOM/TL5gJWL3IuQ/bv9z83ycYtR03oJ3//QPn6uz9NkcvqjpNaw4MhNWloc/wxG0/+IFySz0Ob+MYx31pPkTx0sZm1n0sSiMkEXvzdIyaPnn0nARIgARIgARIgARIgARIgARIgARIgARIgARIgARIgARIgARIggdeEACbvV689LFMndjEjhlvHAxWCPNIwLpboxMf3kfj4+JtQKa3eqyQPnoQKshAdPnJRMqRPLqWK59DQRHGNW4i3ClwcE0QHaBsvq13H/SHXB2soFhcXZ3t25owppXOHmvZtrCxfsUfDDHnJO43KmnwIZ34c3Ul+nbnahO15qGFbIMJASqeOJAirc0TDCRXMn9nkIazL5q3HtN85zfaz/uzed0berFbEXmzr9pPGrQQZmTOmkvvq3LF772l1RsljLxORFTjH9O/dxAhwUN5HBRwWo3sPfFQAVE/qaiihsROXBWsOoowC+TLIoqU7Zd2GQ9K2ZRUVegRN9Y7VMEaK2ySE1xmsjjgzp34SjOsxda754cclwdqFoARhoh488LO78DR6u4wULJBZRo1ZJEMHNpdmrUdJv88bqXhpn3L1kdNnrkkfdeWJSPp5/AdGYGSFVWrXqqoJN3Tzprf8vXSH3LnzQJYu321eIdvLn0/7MKKdPRuCGgiVEGrqWamwCmSshOsinYa5OnjoguTNk9HKlk8/qSe7NBzSHRUPNahfSrp1n2rG26v/DHuZ8FbCO5eh1StRLKcUU0cgfxUxYcx1ahU3xeBSA1FRWGngkN9VhOOq13fCp4ps23lc5s74VLKqmw0TCcRGAkFPudg4Oo6JBEiABEiABEiABEiABEiABEiABEiABEiABF5xAgcOH9Ff3JZ6xXvJ7pEACZBAzCawe8++mD0A9p4EIkngzLmrGsrF34ToOX/hugwZvkAqlstrF3mU1TA1cDiZMHm5tHqvsvirsGXaLHVl0RAnJTRcD0QjIdOyf/dIgbyZ7U4S1SsXkp59Z8jCRdsEIY3g4DJ12n8a7iebCakTsn5o27VrFhPXOEGClsTuwZ1VTpy6IsNH/qXhheqI4750aZPKFyoOQfJWoUVaDemDVL5MHiNu+XHSP+pyUledNhIa4YujaMYUDOfPjFnrJEXyRFIofxb5Z8VuFXFclZ6f1DU1ypXNo+GO0sr4Sf8aZ4+SJXPKXhW3pE2bLJwWg3aZ8E1PikJQZDm/3LjpZZxYgkoGX/u8RwPp0GWiZFTXk5bqvOOYUiRPbDb9AwLk9z83S+OGZZ5yMXFyuvLUOe33eWM5duKSJEoUV6b/tsaEQHJsN7T1AvkzydI/+4W2K9S827cf2EMhIcwS0iEVRl26fFM6qztLaOmsusssWrZTOrSpZt99UkMT5cqR1oSTsmdGcGX2tO7KZZO5HxCCK6pSWOcS7Qc8fixO+s9KOfWaKVZYBS16jpydnSSuhlC6pk47a1WgVKlcPqtYqMtPutWRooWyPbWvdsOvn8pjBgnEJgIUtMSms8mxkAAJkAAJkAAJkAAJkAAJkAAJkAAJkAAJxDgCv07/Tdq1fE9/dekW4/rODpMACZBATCDg6+srs+b+HhO6yj6SQJQTOHHSQ74a8YcRKSBETr3aJaTHR/Xsx0mjApApE7rIV+qQMv9PW0ihvHnSq4PLh08JH+yVQqxUrlRAhgxoJhN/XqEhVBaqa4iLVFDBx6Av3g1RMuxNhLNxDLvjWPL8xRvSs88MebNGYXVnKe+4y75+1+uBbNUQSc2b2va7J4ovo79tK18MmiOt3/9RBTpu0r51ValQLreGe7FXC3elZfOK0qvfLA2v9NCEFxrYt4mULWVzY4Gjypjv2smwb/8wYh44dWTNklIG9W9mjgWRyuhxi+3te9/zsa87rkDYAKFMypTuxs3m+MkrkiqlTfDhWA7rEEfAYcbV1Vlu3/GWVRrqqfZbxU2YHqssQkGNGPWX9tlH3m9bw8q2Ly9q+B6411hp0pQVxikELjxFVWiBhLFEZYJLDs5Pxgwpnmo2uQqGIPAILbm5Yhp7p30X3H6mz1wnNasXsudFZAX1Pvn8Fzl0+KIkTBjPOKQk0GVEU2TOJdreuuO4LNB7CmGpar1ZTIVRmfQ8286ts7OzfPZJfbmljkkr1+yXYkWyScO3KXCP6DlhudeLAAUtr9f55mhJgARIgARIgARIgARIgARIgARIgARIgAReIQID+/eSocNHSuk3qqtNeGb9kj34r5Ffoa6yKyRAAiQQIwk8ePBQzp4/L/e87km/3j1i5BjYaRJ4EQK11PkErik31fkjtYpXnEMRK+TTECxzZ/RUEcQDcdawP4kShD/Z/+vkbk91qV7tkiqWKSmet7zNBL4VQuepgs+ZsUJD3AxVQU7ZUjmlb89G9toQd7T/YIK6fsTVcD1usnPPKRMGqXixHPYyEEosW9hfrt+4K8mTuxsnmjfrDZVGDUrby0we94F9PeRKmVK55b9/BskNrZ9KQ9yEZJdehSETx3SW+xoyCOGMjFOHNnLqjIdx38iUMUjAARGKlWbOWS8eV29JEnWhOXD4vMkuXjSH7Dt4TlyVf0Llv2HTERWvHDdij7te9+XWrXvS5ePJGj7IRebP6imn1b3kq+F/yF+Lt8uAvu8Y8dG/q/bINBV8IKTNj6M7GoEQHHpWrT5g3FcQRmq+Ord8PbiF1RWpVqWg1KtTwji+WEKWcZOChzqyCu/Q0Dxbt52QkiVyWllPLRHSasJP/0oiFYzEj+dmroet209I5Ur5JKm65IRM+w+clyEj5ofMNtu3PL2D5W/aclRDTt2Rpk0qBMt/1gbG1V5dXrJkSqWOO+724jNnr7OvWyv+Af6yet1Bday5IvGeiM3hpPK85/LSFU/5XMVQY75rq6GlHkkHvVbz5c0glz1uy0Y9t7jP4Bbk5e0h2TRU0CM97pz5m8z5hkAstNR3wGyJGy/OU7tuhuD0VAFmkEAMJ0BBSww/gew+CZAACZAACZAACZAACZAACZAACZAACZBAzCXQpGF9SZo0sYz8/kf94vyU+Pv5xdzBsOckQAIk8AoScHVz1QnM5NKpXSt5953Gr2AP2SUSiH4CriqCSJvm2aFwHEP5RLZXjoKBkG2kS5fUuJc45qtWQEP3pDZiE8d8a/34icvSrlVV6dC2WjBBiYs6XDRtVNaIcNTkRNq0qixFCmUNVsb73kMT5gYuNEjrNx42TiGlSgSJXqzjhLWEiMWqH1aZhPHjCl5WgpijYf3S0qxxkPACDijJk9nCN2XNnEru3L0n3vd9pFKFfCpIaSpxXF0kjYpmPuz0loajeSxbth+XurWKC5xrtu88KRAdpU6VWF08ygjGnjpVUpk381P5+ddVOsZ4smjpTtmlop4v+7+j4ZbyWl0x4hi4w1hCI4hZShYPEqTkyZXBXtZawXEgPsmeNY0R7CB/6sSusuK/vZImTVKpUTVshxTUwzgePw40YXVwPXR5v6ZUr1rEat6+TJjQTUqXzCWN3g4SGNl36splj1tG1GPlxVMxxwfv1wjG2tr3rGXxItmfKoKQUW5xXKRxg7Jm32N1coFYa/LUleqoUlRy504vnp5ekTqXEDuNGtFaSpXIZdpe/EdfwbV8/sIN8XvkL35+AfbQTq7aB7yga8+UKaW9nylTqAjrSbiiJEniS3cNOZQ3z9Pnq3O3n4w4xl6RKyQQywg4eXl5BcayMXE4JEACJEACJEACJEACJEACJEACJEACJEACryGBPn36yPbt22XdunWv4eg5ZBIgARIgARIggdeNgHucHa/bkJ9rvBWqD5AC+TJI4YJZBS4hx1RQAPHEgD7vhNvO7n2nBSKBlUsGBnP0CLcSd5IACcRIAt6PQhdUxcjBxNJO06Ellp5YDosESIAESIAESIAESIAESIAESIAESIAESIAESIAESIAESIAESIAEXlcCUyd2kSNHL2oIoKtStXJB+fTjusHcScLiAkeWNi0rS7z4bmEVYT4JkAAJkMBLIkBBy0sCzcOQAAmQAAmQAAmQAAmQAAmQAAmQAAmQAAmQAAmQAAmQAAmQAAmQAAm8HAII04PX86aM6VNI9651n7cay5MACZAACUQDAedoaJNNkgAJkAAJkAAJkAAJkAAJkAAJkAAJkAAJkAAJkAAJkAAJkAAJkAAJkAAJkAAJkAAJkECkCVDQEml0rEgCJEACJEACJEACJEACJEACJEACJEACJEACJEACJEACJEACJEACJEACJEACJEACJBAdBChoiQ6qbJMESIAESIAESIAESIAESIAESIAESIAESIAESIAESIAESIAESIAESIAESIAESIAESCDSBChoiTQ6ViQBEiABEiABEiABEiABEiABEiABEiABEiABEiABEiABEiABEiABEiABEiABEiABEogOAhS0RAdVtkkCJEACJEACJEACJEACJEACJEACJEACJEACJEACJEACJEACJEACJBAtBB4HBkZLu7GlUf+AgCgbiq/voyhrKzobCowh1wSv3ei8Cth2bCRAQUtsPKscEwmQAAmQAAmQAAmQAAmQAAmQAAmQAAmQAAmQAAmQAAmQAAmQAAk4EHjkH77IARPtLzrZ/qxjdO/1ixw5dsn0as36g/JZv+kOPQx9dffe07JyzX77zoOHz0ulGgPt26/qiuctL2ne5ge5c/d+sC7+Nm+DjJu0LFietXH7zj05d+G6/eV976H4+PjJjZt3Q33df+hrVbUvly7fJZ27TZaICjwOH7ko337/l72+3yN/uXb9jtnG+htvBrG+eu22WGKZs+evC47lmDxveUvdxsPtxz599qq0bD/WsUiw9Zlz1svkKSuC5YW3MWvuOrl8xfOpIne9Hkjztt/LFY9bT+2zMrDv0JEL9hfGjQSGjvlYx3kIL2Hc7T8YH16RUPdt2X5MPu39a6j7HDMvXLppNo8ev2Q/Nxi3dS199c0C2bDpiGMV+/ovM1bbz4uX9wNzLnE+Q3tZ7eG+v6TtR/QVHmd05MFDPylVqY943/ex94srJBBZAq6Rrch6JEACJEACJEACJEACJEACJEACJEACJEACJEACJEACJEACJEACJEACry4BiBr+XrJDMMl99dpdyZE9tfT+tKGUKJbD3mlM6H8zaqFs3HxUnPRf1coFtUwDiRfPzV7GWrl85ZZ06zlFmjYqKy3frWxly94DZ2X02MVy/ISHpErpLm1aVpbm71S078fKkaMXZefuMzJscEqTv0j7VahgVrMe3p/EieNL7y9miZcKQ95pVF7uP/AR90TxwqvySuxbpSKcpEkTSNIkCYP15+8l26VNiyrB8qyN+X9skVVr90v6dMnlzNlr8n676uLi4iyjxi6R1KkSW8XM0tPznrRtVUXatqxiz4fgZOSYxZIuTTIZPHy+PT/kypf9moqLs833IFfOdLJj10lZt+GwVHmjgFy4eEOvh79k6sSuIaupGGOajBrRVjKkT2H2jRj1t2TKmFKKFMpqth8/fqzXmU0Mgwx/FVHd9Lxr9oX8A+HInN83ypSJXcyuVh3HqlgldEHKZ5/Ul3q1S2p7j6Vtp/Ey+pu29mOicpLECaRMqdzSb9Bs+XVyN/vYHI8574/NsnHLUcmUIYX4+fnLwcMXZfPqYXLqlId8/NkvUrRwVlP8+InL0uOjelL7zeKO1aNkvbByGjhknt5rR6RShfyhtgnB0Of9ZkqX92uacZ1T4RAEIp/2mSYd29WQapULycr/9us1FHT/OTYEEZS7u+3++PnX/8yYUyRL5FjErN/1ui+5c2WQEUNaykMVTTVo+q1ed8nEycnpqbKOGTinjx4FyKqlX9qzPa7ekcm/rJAhX7xr8gJFxXGP6aJkB8SVFyJAQcsL4WNlEiABEiABEiABEiABEiABEiABEiABEiABEiABEiABEiABEiABEng1CSz7d7cRQ3T74E0pWTynYFK/a48p8secz3Vi3yYsGfTVXPG8dU/Gjepo3DdGj1kiI0b/ZZ+cdhzZKBVLXLzoKffv+dmz4Sjy4SdTpNHbpWRQ/6Y6WX9Mfpz0ryR2jy913iphL/fvf/uketWC4p4wnly/cUc2bzshcHT5ctgNexnHle5d60iK5IklV470MnFsJxn41e9So1oRefDATxIliutY9JVahxPGlGn/ybYdJyVFikQy7Ns/TP86tq2hDhv35Oy5G7Jm3UHZvuuEvd8li+VUfmXMdtPG5eTdJhVl7MQgF5eqlQvI4P42sYBVaYSKkJKo2MdKcOPo9+VsSRA/riROHE/q1y4hLq4u1m7j0DHmx2UqYkgnzk9EC3CRgVgCApvrN+/Ixcs3jVjBXimclWxZUssHHWvKF4Pnypzp3WXL9uNy/bqXqfHX4u1GGHFNxS0+vv5i2xZpWN82xjPnrsrAofPk+2/b2a/DcaM7SmAYIoiECWznu33rakbkMX7yP/Lxh3Vl/abD9h4GBDwWvCb+/K89D2Kgrp1q2bcbv11aWr9XRa93L3m76Xf2/CyZU5nrHxkD9H6I6oR7JF7cOJJWhUYd2laVMROWStkyeSSOw/mxjunq4iJDv3xX/lt7QMqqSAdpz95TUrlSAXmrelE5cOi8xInjIg/1vMHBxUpp0iQVT08vHZu3oI1TZzzMrvfbVpP6dUpZxezLTVuOyLIVe+3bWPlzbi9xixO+fADXSIcPJgar9+Chj2zcdDRYHjYavPONXgdB2cmTJ5IFv30elME1EogAgfCvyAg0wCIkQAIkQAIkQAIkQAIkQAIkQAIkQAIkQAIkQAIkQAIkQAIkQAIkQAKvHoEZs9dJzeqFpEWzN0znBvZ5R3bsPCV//r1NenSrJwgps2nrCRn5dSspXDCLKdNBJ8CHakgTuLs4ujUgxMnxk5fV5SVtsIEuWLhVhSeJpJc6v0AoAQEKQpf8NnejXdCC4/zz7x4ZoMdHmjV3g1Qqn0/q1Slh3FdGDW8jcdyCxBcok0BFDCdPX5E7dx5gU3p+UldOqpsGnD0CVPiwc/cpk+/4J5E6t+TLk9Ex66WvwyFj5er9AlcRK/0wfqm6y5SVOfM3yls1C6s4oaC1S/5ZvlvFB1ft2+GtYOxIEK+sXntQOrSpZrZvaYicjz/9RUUSuaSTungMVFHGtFlrZOigFpI8aSKxCZsWS+mSuWTowOb28/rPij0qvAkS1qzfeNg46xw5dlmatPhOQ1DBZeWxWceBLl8Jcl/Bdot3K0pKFe0kShRfLl26ZQ9VdF5dXnDtQCiF+ti2EsbwWd/p8tWXzQXuMHCGqVwpv+mnVSasZYA6wDRuUFYa1C8tp057BHPq8bh6S27p8RzdeyBoedHUtcfPcuz4lWDN+KrDi5/fI6lWe3CwfGx8/11bKVooW7D8abPWSlYVzUCQg/7PnL1eFqlTDxyHcJ/BMSauCl6QcJ+t3XjIrE//ba1x6lm93ra9dcdx2bLtuLogJZHJU22hmnbsOmWu+ZbvVTLtXr16WwUvcWTPvjOSP18m2bP/bKhuKSdPP33N4drdtj3oejCdCPEnX96I31+//fqJJFQBm5WcnR3ULVYmlyTwDAIUtDwDEHeTAAmQAAmQAAmQAAmQAAmQAAmQAAmQAAmQAAmQAAmQAAmQAAmQQEwj8Fgnys+dv6lilkr2rkNkUKlCXjl02CaMgBtD5kzJ5bKHp73MxUs3JEe2NHbRA3Y89PGV7374Wz7v8bYKVTbYy2LlvLpPFCuaze76gbxyZXLrhP1O8fV9ZCbqFy/dIbfv3FeRipucOHVFFi7aoU4NPSVJUls4nvJl89gn9FHfSitW7Zede4ILVy5ftoWlGf/TcquYWSIET9YsKWX8953MNkQCP/+6SjYglJJToLqDlDb9uXfPVz7qUtuUGT1usQmzgpA1c+Zvks7ta0qaNEnk+3FLZMiAd43wZvO2Y5JIJ+XfbVI+mNMFhAiLl+0UiEIuqGtN9myptN06xj0DXBvUK23v36QpK40YZ+36w7Jofm/jPGPtRCgmR+HQ+o1HNEyPtxEkZMmU0ipmlnB92bz1qMDpolfPBpImdVKTv+DPLYa5Na5vhrWW777/W1q1Hys5c6SVw0cuSp+eDeWtGkWDHatV88rSuGE5SaiuLp63vcVHXT8QTgiheEJLKzWMknXOsB9OIJYLD8IjwZ1m4aLtRiyFMUEAtWPnCbNttYeQPp+q2KdMydzy68w1JnxO+XJ5nukMsmX7MQHHb4e2MiGZ8mi4HLyshL5dvnJb2rWyiXys/Bddet/zUTFVPeWbx97UytX7VCS0R8aO7GDPw0rbTj8alxgrc+KUf5VP8NBF8ePFlZHD2wpcYZDGTfpHXXH85fPuDcx2ThX5JEwY14Rf+v7HJRo+KqmU1BBhaXXprAKdBQu3yRe9G5lrEQKfCtUGyLfDWhmRS/XKhY37C0IHNWtcQd2ZFou31wMjLOkqrPEAAEAASURBVELjEELhPsySKZUJ3RUvnk1EYw6sf3zVTeewXo/hpTy504e3O9g+d72v4MjERAIvQoCClhehx7okQAIkQAIkQAIkQAIkQAIkQAIkQAIkQAIkQAIkQAIkQAIkQAIk8AoSgFtKmtRJNLTNSXs4G3Tz2PHLcuOmt73H/Xs3kf5fzpErHnfMxDpCBo0c3tq+Hyvf/bDIhKqpVrnQU4KW1KmSGlcJTK67ODubeidO2hwtbmoIlMRJEhohgvOTfRMmL5fWzSsZUcL9h76m/DEVObi5BU1bJlOhC8KzWAINU+jJn84fTZJqVQqqk0iQUAe7fpu3QUUgp+1Fvxg8W0OyXDFiBEzcz1XByoFDF6R4kez2MnB8OXrskkDk0rRxWUmdOrHcu+8ju/acUZeTeVIgfybp93kjI14Y/PUCFeTEk+pVCpn6CBuzeNku7WMtyZ0zvezee1rD6zwyghb7ARxW4FTSSwVBEBQglJKVAgICJX78oLFnyphSihbOJufOXbeKGKEBXFgaNyxjXtYO8IMYpVOHmkZQhHNw/MQVDft0RPYdOCtucV01RJOvEbFsVSeWx7o/d670Rgjjrq4qEIHs2XtGx9hYNqnwB04xcDXx9n5oHeKp5Y6dJ+XNGkWk++fTzb72rarIB++/adYh8kFyFOiYDIc/cCjBfoQdmjp9tUyd+KGKNDbruQlfSNHtg1pSolh2adlhrIz+pm2w8+jQfKircPoBd/QPIpu7dx/Y1y9euik+Pn4mH5W9VADicfWO6V/2rDY3osTuCfScudvbBjuEC3LMw07HEE8Qj0ybuU4a1H063I/lhoQ61SoXlM4fTVYhTlV1u0ks6dMmMy5ECFvVpGFZWbFqn7qxrFTBy9uyQ12JcH7OPLk2rmo/48ePY8QsaCu0hFBFVsghuL+sWL3X7uwTsnzKFO7SW52WwksIOWQlhJJap24y9+/7GoFM916/mF3+GkoMqc8XM0O9H8aO7Gj28w8JRIRA0NMxIqVZhgRIgARIgARIgARIgARIgARIgARIgARIgARIgARIgARIgARIgARIIEYQaN60goyf/K86NSwSuKDAIeTiJU9J5B7kmgD3EVednF++Yq+GhwmQFBpCJn58N/v4Fi7aJlu3nZDZ07vb8xxXGjcoY4Qdfb74TV1QSsqxEx4acueAKYJ2Z81ZJ3B1uK/CCqTuH9VVF5RkZt36M2nKCnEMR1LljQLGYcLaby29VWyyd/95dYppYNxAUqdKYhdPPFR3ETc3m+PE0eOXZI2OFcIciHCQIGSp1XCY1ZR9CUeKNcsHC5wzkHY/EcWUKJpdunR6y+TBTeTM2Wsyb8EmI2iBGGP2vE3Sr1dDadKgnClTqIAtZNOpMx7GpcMxzE5AwGPJlzeDJNPwP81afy9jRraXYipaQYI7R2L3+GYdf7JnSy0VyuZVUU2QOAdhYN55b5SKg+JrSB1b2evqhlKnVgn5UPsIfocOnzcCngzpk0mFcnmlVs1iJpQPRBlXPG7JfxqiCKGHRo5ZrKKNh1K2dE7prmGnZsxaZ46NMFFwhMmtrieP/P1NHtxw4IoybHBzs239yZM7g6xePkima1gjOAEhjJBNKGITwvy5aKspeu36XRX5+Iu1DUeVgvkzC0LbDBzyu+lffg1hExAQIOnSJreaN0uEy8qs/an6hi08U9IkCYzTS64c6ezuJhD5WOmeinD8Hz0Wx7wE8dwknr6Gf7dQXXRu6nXuLLtVrOQfgJBB/jJERUoP1H3o+nUvs462rmjoojNnrxtB0LhRkRde7Nl7VtLruYDjTXgJ1w2YzNVr62N1+MG53LTlmEwe11muXrsjcPDpq4KjXv1nSIe21fXc5pE5v280TZ6/eF1DfAUPAYYdh9SRx89vg7m2Zs1dL6vW2O5HuBjd9Lwrn3xuE56gbKvmb0iBApmxatIjfQZ83HOqtWlfJk+eUIYPbmXfxgqcmdKls7kEOe64f99PBWsppHrVoNBajvu5TgLPQ4CCluehxbIkQAIkQAIkQAIkQAIkQAIkQAIkQAIkQAIkQAIkQAIkQAIkQAIkEEMItHi3kunp30u2C0LZ1KhW2Lg+HFTxAxIm/9t2miBdO9eUZk0qSuDjQJk5Z7206zxelv31hZxXJ4hRY5fIj993kBTJghwqTOUnfzAZP3ZUexPeZ+g3f0hRFY507fyWfDForopj3I3bR28NdzPk6/mmhuV64dgGQrfEjRs8/Injfmt9i4b/SZI4vobRSaeT7lMkR/Z08ulH9YyoxcfXz+4GgbA2cAEprqIUK0HYULF8PrmvbiyOqbhOyltiFsf86tVsQhgrr5LWnbdgs9k8dPiiWVapFPqE/T11rOit7hRWunP3vllFiKAe3epK3wGzZPa0HsaR49GjABXiuFhFQ11WfiO/5NSxXr9xV3p+XN+4i7Ro94OKdLKZUD3582WUcqVzq2gmo13w8mH3n1QQkkrAO3265NKmRWXzgkuJx9Xbhrd7onhy9vw1I+5A2KTSJXJq2WRi9feYCoNy5UyrzBPY+wX3nETqVIOEkEOP9ZpB+UsqfrmobWA/1pE8b3mrSOqxfRuuO3CV6dHrVxN6Km8eW/gaSwxkKj35s1xDOeXW8DuWIMnaV1tD+MB9CMKLeo1HWNlGFAO3G8e8Tz+uI00bVZBpP30kCN+TKqW7tH6vivbLS95u+p3Mmd5D9h08Kz/8uFRm/PyxaWvAV3NVUJRHar8ZFCoIoqcnBkOmDByF4MCyacsR+/Gx4vPEcQjrO3aflPIaeisiqfV7laXfoDnat8pS+61i0r51Vbl+00vvxXUaTqi1Cp4SyNwZPe0OSGPG/2OYb1RXnYJPxCj7D55T8dgGgRNPhvTJzbVxTQUxCLVl3Qd795+VLduOm/vT6ldIIVGguvjs3H1amXWzi8wgTBo7YZlVxb7Mmjm14IUE95dbGraqYf0yAjHXoGG/a2ikJvayWIETDu5DJhJ4HgIUtDwPLZYlARIgARIgARIgARIgARIgARIgARIgARIgARIgARIgARIgARIggRhCABP/cGDAy0pfDJktCGuDhDAzCdSNpWnjCiaECvJaaTig3+atl+06Mf7L9DUq9oijIWG2mhf2n1WRCybzz6gQoufH9QQhh+AogpeV4OqSMWNyI3j4VAUYbnFefEoSTiC/TP9PINLBuIYNaiGduk1S4YoY5w44tCTQ8DtIEFi4qwtNYgchBvIhHgmZsmZJEzLLbCcPIeB5oGIFazL+rtd9DT/kpscIclZxbASim99nfmbPqtVgmH0dAoNNW4/K0G8WCEKv+KlDi6OYZ8qvq9WtY7MJi9O9ax17vXIqjmjz/njpqC4dBw+dEw8VK5QpZRNM1KxaRFp1HGvqWBUgfoGrzJjxS60ss0yiTie//RLktpNNx3/h0g0te1WyZ0+rzjMbZO++s0bEAqeb0nqMjh9O0mPlMk4vlSsWkE7tawRrs2K5fILXD+OXSNq0SaV717pmP1xbcB1Z28j87oe/lWMcad3ijWD9DdZgOBuffDZV3mtWyVxvW9Z8bS+J8EnouyVMse94soJrNke2p8/1ndsPVFgUuljLamPbzhNy+sw1a9MIgm7dvi9/L9llz8PKPXUmsRJcVnqoG1FEUsUK+Uy4q9//UMGURm3apMItT09veagCkG6fBrmlTBzbWdzVUamaOhgtXLRd/lFXpWk/dTWHQKisokWyapgpZxOyCsISuL6UUpFSrhw24RCcaBLrtZk3d8Zg3bJCfzlmQiiD+wwpaVJPx11Pra9au18GDZ0vQ78M7uRjFUQorO++/9twexHXG6s9Ll8vAi/+7vF68eJoSYAESIAESIAESIAESIAESIAESIAESIAESIAESIAESIAESIAESCBGEvBUB4XVaw/L1IldTP/h1vFAhSBwu7BEJz6+j9RJwd+Ekmn1XiV58CRUkDXgwxrOBA4QpYrn0NBENgGJtQ9LtLlw8XYNxVPGZFvtOpYJuT54+HxxcXG2Z2dWwU3nDjXt21iBY8c1nZB/p1FZk4/wPT+O7iS/zlxtQqtg8t9yEkmnjiQIq4NwLXCQQYI7xOatx7TfOc32s/7s3ndG3qxWxF5s6/aTxq0EGZkzppL76sKye+9pdUbJYy8TkRU4x/RX5woIcJDg6mExuvfARz5VkVBdDSU0dmJwR4wc2dJKgXwZZNHSnbJuwyFp27KKOrsETfWO1TBGit6ko8cuyWB1xJk59ZNgXOEs8oM6lTimQgUzy1V1bHnwwM/uwtPo7TLG+WPUmEUydGBzDZM0Svp93khDSe1Trj6O1e3rEIwsW75HHUWCh6WxF3iy0ujt0pIpQ0qZNXfDcwta4Kyybccp+ax7g5DNPnP7ypVb6rpS7Kly12/eETjHhJVaNKtoWKDPVlq6fJf8+fc2GTWijZVllnBCyqDX3mU91hWP23ZnlGCFQmyMm7RM4PQDzmnTJDXipjRpksgf2v7337RVlxRnHfMJI2BJmMB2v1VWQUub93/U9rMZBx40aYnKxkwIEjB5XL1jGJep3Nfu3IOyNeoOMUKq+nVKSi8N3xVaWrP+oF3QctPTK7QiJg9hrEaM+ktZtFZHmiBRm1UB4aWGfP27hqTykHGjIx/CyWqPy9ePQNBT7vUbO0dMAiRAAiRAAiRAAiRAAiRAAiRAAiRAAiRAAiRAAiRAAiRAAiRAArGWwJlzV8XX19+E6Dl/4boMGb5AnTTy2kUeZTVMDUwYJkxeLq3eq6zhYQJk2ix1ZYkfR0pouB6IRkKmZf/ukQJ5M2voonJmF9xQTp7ykELq6HDX64H89OsquXPnvjSoVzpk1TC3a9csJq5xggQtCLHimE6cuiLDR/6l4YXqmPAr1r506gZihTXxVqFFWg3pg1S+TB4jbvlx0j/GHSRJkoRG+OIomrHaCGs5Y9Y6SZE8kRTKn0WdMHarQ8dV6fmJzXGjnIakyaFuJuMn/St+yrdkyZyyV8UtadOGLYxwPI4J3/SkKARFlvPLDQ0zAyeWsNLnKj7o0GWiZEyfQlo6uO6gfIrkiU01/4AA+f3PzdK4YRlBiCPH5OR05alz2u/zxnLsxCVJlCiuTP9tTaguNo5tOK7DecNJ/0HM8lHPX6SUcijmEObJsay1brmFWNvPs9y89bhx/smWxRbm5nnqIgwS3IRCJohP0qqAJKzkGHoorDJWPlxRrDRvZg9Jqtfds9Ka9YekcIGsUkVFKla6eNlT79tHsmvPaSlUMItM/HmFTBzbyS4wgVsQQj0hZBTEaHFcnw5ZdU7vd/dE8dVJKJ4U1jamTPjQat4sIco5evxysDzHjU1bjjpuSrUqT4fXArtRYxbL+B86StFC2ezl3eLEMeGi/vhri0yaslJy50on03/+SK/R8J1w7A1whQQcCFDQ4gCDqyRAAiRAAiRAAiRAAiRAAiRAAiRAAiRAAiRAAiRAAiRAAiRAAiQQWwicUFeEr0b8YUQKCJFTr3YJDYNSzz48CB6mTOgiX6lDyvw/t5r8vHnSq4PLh08JH+yVQqxAxNL7i1kabsXXuIGUKpFdZkz5OJjwJESVpzYRzsYx7I5jgfMXb0jPPjPkzRqF1Z2lvOMu+zr6sFVdLJo3te3HRP7ob9vKF4PmSGt1soivYZXat64qFcrlViGAvVq4Ky2bV5Re/WapWOOhCS80sG8TKVvK5sYCR5Ux37WTYd/+IT37zlBRkJNkzZJSBvVvZo4FkcrocYvt7XvfC93VBOITCGVSpnQ3zjbHT16RVCltwhR75ScrEI/AYcbV1Vlu3/GWVav3S+23ittFDigGYQncMry8feT9tjVCNiEXL90UuNdYadKUFbJ0+W7jwlO0sE2QgLFEJG3dcVwW6DWTSEUV5VXgU0zD3XTrXDtYf9zc4kiWzKki0txTZSDacHIKEjmhwNr1h6XqGzZhhZ+ff7A6/hq6CSKPkPmucVzk8JELRiAC9xSkO3cf6LXqZMQgK1btf6arTLADRXAjZ/Z09pIQRp27cMO+ba3AQeWyCm1y5kxrZZnlx13qCNxT+g6YLaf0+ihXJpekSmUT3WzYdET6DJwlbVpWNtdAzz7TZMTQVpJIhStIYID0mzrg1KhWyKw/zx9XvbaHDWqubjbFQ60WEBB0A8GpadGCPsHu9YuXb6oL1AG5rUK3eRpCCffEGxXzh9oWM0kgIgQoaIkIJZYhARIgARIgARIgARIgARIgARIgARIgARIgARIgARIgARIgARIggRhGoJY6n9SoVlhuqvNHahWvOIciVsiXJ6PMndHTiCGcNeyPNTEe1lB/ndwt2K4smVLJmuWD5fqNu0YE4xgGJ1jBSGys0BA3Q1WQU7ZUTunbs5G9BYg72n8wQR0o4mq4HjfZueeUCYNUvFgOe5liKtBYtrC/6VdydYbA0N+sN1QaNQhyjpk87gN7+ZArZUrllv/+GSQ3dFwQE4Rkl17FERPHdJb7KrxAOCPjuqKNnDrjoWFinCRTxhT2JiFCsdLMOevF4+otSaIuNAcOnzfZxYvmkH0Hz4mr8k+owgSIFuBGgjHc9bovt27dky4fT1YRhovMn9VTTp+9piKkP+QvDe00oO87hvu/q/bItJnr1CElm4Zi6mgEQnDoWbX6gHFfQRip+erc8vXgFlZXjOtGvToljOOLJWRBCJzQ0o7dp2TrthNSskROuXTFUz5Xsc+Y79pq6KRH0qP3NMmXJ4NMmrrChE9yVccQuOFAXFGsSHZBmxCalNBxVq38tNOHdTwIbCDK8dWyO3adlo7tgkQ5CMcE0RKERrfu3JOadb+yqgVblqvaP9j2N8NayvqNR1TsVFFdgFykRbsxYnPCySPrNx02riFFCmXVMofFz99fx3hcxSQlgrXxohsQ4XTq9pOc0fOWPJnNtQVuSIePXpK6tYsb/tYxPG95y/KVewXhi1xdXOXrIe/Jqv/2ySc9pwpCQQ37dqEJ/wQHpObvVFBnnKnSuetk6ashoY6fvCSLl+2ULu+/Kf+u2id/zeul16+XHDh0Xt56OzgvMEZoq5AJ13lIMQtCPa3QPiTQEGP/aOgviLeQcE49NFwV3FxOnr5qHGXOnL2u57iA9OhaV8qrG1Ro7jEhj8ltEgiPAAUt4dHhPhIgARIgARIgARIgARIgARIgARIgARIgARIgARIgARIgARIgARKIwQRcVQSRNs2zQ+GEDPPzPEOGGCJkeJuQ9dOlS2rcSxzzVfehoXtSG7GJY761fvzEZWnXqqp0aFstmKDExdlZmjYqa8QPanIibVpVFogSHEUn3vcempArVr8gWICTS6kSQaIX6zhhLdGeVT+sMgl1kh8vKyVKGE8a1i8tzRpXsLKMA0ryZInMdlZ1LLlz95543/eRShXyqSClqZn0T6OimQ87vSX+6oCxZftxFRsUFzjXbN95UsUiGTVcTmJpqIIGjB2hc+bN/FR+1vBOCDuzaOlOFROcki/7v6PhlvLajwtxDNxhIJJwd49vxCwli+e078+TK4N93VrBcRAqJ3vWNEawg/ypE7uqoGGvpEmTVGpULWTEUaNGtFaWuUy1pSocOnb8kly4cFP7728cgfz9bU4hceMiHI6NT9asQaGC4FoSMiGElI+vLQTTyK/biOUag3K+Po+UaykprOcZDjlb134dsnqo23AcOasii8YqZML5/G54a4HLSOaMKY2IqF2bKqbeCQ2bBXcRhHKCkCi8BMEOXH8imgoVyCIrlwyQffvPGVcY1NOuyKcfp5Qc2YK7s0yeulJu376v10ItE4YI5/ut6kXNtftZ3+ky8utWet3YHE9wbf48vouMmbBMICTbs++ctNbQYdVUNIT2U6VMIvcf+KqYp4KG66ofrLtw2IFjD5KrHqNiuTxGiBWs0JONuPHc5Lye20ePAiR/vkzG6Qm71m8+LOMn/yt5c2cwIYY+6FBDihfLqcKXiLMJ7XjMIwFHAk5eXl62p4ljLtdJgARIgARIgARIgARIgARIgARIgARIgARIIIYR6NOnj2zfvl3WrVsXw3rO7pIACZAACZAACZDA8xNwj7Pj+Su9RjUqVB8gBfJlkMIFs8rW7SfkmIpjGr1dWgb0eSdcCrv3nZbO6qaxcslA494RbmHuJIGXSCAwMFCFKqpUYYoyAt6PghyboqxRNhSlBOjQEqU42RgJkAAJkAAJkAAJkAAJkAAJkAAJkAAJkAAJkAAJkAAJkAAJkAAJkMD/m8DUiV3kyNGLGgLoqglz8+nHdcXRnSSs/sH1ok3LyhKPLhNhIWL+/4kAxSz/J/A87P+VAAUt/1f8PDgJkAAJkAAJkAAJkAAJkAAJkAAJkAAJkAAJkAAJkAAJkAAJkAAJkEBUE0CYHryeN2VMn0K6d637vNVYngRIgARIIBoIOEdDm2ySBEiABEiABEiABEiABEiABEiABEiABEiABEiABEiABEiABEiABEiABEiABEiABEiABCJNgIKWSKNjRRIgARIgARIgARIgARIgARIgARIgARIgARIgARIgARIgARIgARIgARIgARIgARIggeggQEFLdFBlmyRAAiRAAiRAAiRAAiRAAiRAAiRAAiRAAiRAAiRAAiRAAiRAAiRAAiRAAiRAAiRAApEmQEFLpNGxIgmQAAmQAAmQAAmQAAmQAAmQAAmQAAmQAAmQAAmQAAmQAAmQAAmQAAmQAAmQAAmQQHQQoKAlOqiyTRIgARIgARIgARIgARIgARIgARIgARIgARIgARIgARIgARIgARIgARIgARIgARIggUgToKAl0uhYkQRIgARIgARIgARIgARIgARIgARIgARIgARIgARIgARIgARIgARIgARIgARIgARIIDoIUNASHVTZJgmQAAmQAAmQAAmQAAmQAAmQAAmQAAmQAAmQAAmQAAmQAAmQAAmQAAmQAAmQAAmQQKQJUNASaXSsSAIkQAIkQAIkQAIkQAIkQAIkQAIkQAIkQAIkQAIkQAIkQAIkQAIkQAIkQAIkQAIkEB0EXKOjUbZJArGRwP37D+T6jRvi5eUdG4fHMb2GBJxdnCVlihSSKlVKcXVxibUEfP385Pr1G3L79m0JDIy1w+TASIAEXlECiRO7S4rkyQXL1ykFBDzWz03X5abnLXms60wk8CoTcHNzk5Qpk0uqlClf5W5GSd9u374jX387Sv5bsyFK2mMjsZ9A4iTuMnPqJMmaJXPsHyxHSAIkQAIkQAIkQAIkQAIkQAIkQAIk8MoRoKDllTsl7NCrSODLr0bI4qXLX8WusU8k8MIE3PVL6tEjhkrpksVfuK1XrYE5v/8hYyf+JL4PfV+1rrE/JEACrxmBurVrytdDBr4Wo965a48M+Gq4XLt6/bUYLwcZewhkyJBOZv36kyRPljT2DCrESNp17ibnz1+U8uXLSMvmTSVJ4sQhSnCTBGwE/AP8ZfGSf2Xh34ulYdNWsm8HRVC8NkiABEiABEiABEiABEiABEiABEiABF4+AQpaXj5zHjGGETh67LgRs6RLn1a+7NdL3qxRLYaNgN0lgdAJeHl7y+y5C2T0uAnSd+AQWbnkT3F1jT1vC76+vvLd6HHiFi+uDB/6pTRuUE/ixIkTOgzmkgAJkEA0EVi3YZMMGPy1LFu+Spq/01gKFSoQTUd6NZoNCAiQXl8Mkrt370qP8h7SpvBNSRIv4NXoHHtBAmEQuOTlJhN3ppHfD4r0/WKw/DxxTBglY3a2pzomQczSvFnj10ZgF7PP2P+/95XKl5O6dd6Ujp0/krkL/pT3mjb5/3eKPSABEiABEiABEiABEiABEiABEiABEnitCETLzGWgxnTop5Oj+w4ckmsaoiUwgDEeYtNVFS9BPEmfNq20b91C6tetFZuGFupY/lq81OSv/meRxI3rFmoZZpJATCSQ2N1dPuzcQfx18nHMuIly6fKVWGUlvn7jJnNaFs6dKfny5o6Jp4h9JgESiAUEqrxRUVYv/1vyFy0rk36ZJhPHjIoFowp7CDduesqd23flswoe0rXUtbALcg8JvEIEMib2k+HVL8rFu26yRR2GYmu6fvOmGdqHnTvG1iFyXNFAoHSJYqbVgwcPU9ASDXzZJAmQAAmQAAmQAAmQAAmQAAmQAAmQQPgEokXQUqxMZXPUwMRpRNIWEXFyeroXKnphipkEfPx95PSVizJwyHA9tyL168RuUcvylavNiaKYJWZer+z1swm0btHMCFrg2BKb0uq1Nlv0XDmzx6ZhcSwkQAIxkEDcuHFNr/fsOxADe/98Xb75ZMK8VeEbz1eRpUngFSDQsrCnbLng/gr0JHq64OfrZxrOmCF99ByArcZKAgkSJDDjuusVu/6vECtPFgdFAiRAAiRAAiRAAiRAAiRAAiRAArGQQJQLWvYfUJ9mTY8rdhGn4i1jITIOCVIkJ38/CZzRVAYOHh7rBS3eXvd40kkgVhNImiSJGV/g49glNLx3/4EZV2wKoxSrL0QOjgReAwI+Pr6xfpQBAY/NGBPHtS1j/YA5wFhFIEk8/1g1Hg6GBEiABEiABEiABEiABEiABEiABEiABEiABGI6AeeoHsDaDbYQD07560d102zvFSIQ6Kqhdwo1eoV6xK6QAAmQAAmQAAmQAAmQAAmQAAmQAAmQAAmQAAmQAAmQAAmQAAmQAAmQAAmQAAnEFgJRLmg5ceq0jU28xLGFEccRFoH0hcPaw3wSIAESIAESIAESIAESIAESIAESIAESIAESIAESIAESIAESIAESIAESIAESIAESiDSBKBe0RLonrEgCJEACJEACJEACJEACJEACJEACJEACJEACJEACJEACJEACJEACJEACJEACJEACJEACSoCCFl4GJEACJEACJEACJEACJEACJEACJEACJEACJEACJEACJEACJEACJEACJEACJEACJEACrxQBClpeqdPBzpAACZAACZAACZAACZAACZAACZAACZAACZAACZAACZAACZAACZAACZAACZAACZAACVDQwmuABEiABEiABEiABEiABEiABEiABEiABEiABEiABEiABEiABEiABEiABEggygg89PEVvJhIgARI4EUIuL5IZdYlARIgARIgARIgARIgARIgARIgARIgARIgARIgARIgARIgARIgARJ4+QS8H5V++QflEUkgggT2HdwnTk5OUqRIkQjWYDESIAESeJoABS1PM2EOCZAACZAACZAACZAACZAACZAACZAACZAACZAACZAACZAACZAACZAACZBAJAmMHz/eCFqmTJkSyRZYjQRIgAREKGjhVUACJEACJEACJEACJEACJEACJEACJEACJEACJEACJEACJEACJEACJEACJBBlBE6dOhVlbbEhEiCB15eA8+s7dI6cBEiABEiABEiABEiABEiABEiABEiABEiABEiABEiABEiABEiABEiABEggKgls377d3pzjuj2TKyRAAiQQQQIUtEQQFIuRAAmQAAmQAAmQAAmQAAmQAAmQAAmQAAmQAAmQAAmQAAmQAAmQAAmQAAmET2D69On2Ao7r9kyukAAJkEAECVDQEkFQLEYCJEACJEACJEACJEACJEACJEACJEACJEACJEACJEACJEACJEACJEACJBA2AX9/fzl58qS9ANaRx0QCJEACkSFAQUtkqLEOCZAACZAACZAACZAACZAACZAACZAACZAACZAACZAACZAACZAACZAACZBAMAKnTp0KJmCBmOX06dPBynCDBEiABCJKgIKWiJJiORKIIgJ+fn7y+PHjKGpNZN++fXL//v0oa+//1dDevXvlr7/+sh8eH248PDzs21G9gvOwa9euKD0XUd1HthczCeD+njZtmpw9ezZmDuAl9xr3OXg9ePDAHPnWrVty5MiRaO3Fy3pu8lcHzz6Nvr6+snLlShkxYoRcv3792RWes8Ty5ctly5Ytz1mLxUngJRFwchNxTfOSDsbDkAAJWAR8fHysVS5JgARIgARIgARIgARIgARIgASigQC+7w2Zfv3115BZ3CYBEiCBCBGgoCVCmFiIBF6MwM2bN2XmzJnSqVMnqVChgpQpU0Y+//zzF2tUa9+5c0c6duwoy5Yte+G2wmrA09NT3n77bfnqq6/CKhIl+bt375a5c+fa2xowYID88MMP9u0XXQkpItq6dat88MEHAqVwdCQIcnr16mWa3rlzp3z33XfRcZjXrk1Mfr8KafPmzVK/fv1gIiyrX4GBgTJ+/Hg5c+aMlRWpZchrNlKNRKBSeMfp2rWrNG/eXB49ehSBliJX5MqVK4aXNbk0Y8YMwXHD69fzHsmxreh+bkJgOHbsWMOtXLlyUrVqVfOsOXTo0PN2O0LlHccWoQrPKBRWe9H1TOvXr5/88ssvkjx5cgkICHhG755/96JFiwT367MS7lu8L//333/SvXt3WbNmzbOqvFb7IQJ9KanBLpHW12yvZvr+XH66SJoGL+XQEj9/0LHRh3dUWFd6gkiKGlF//BwfiVTXz25t9Dgdr4q0uyOSpUPUHycKWwwsOESk1I+2FstMEikwMOKtQ7gTlSm09jK3F2l8UCR7V5FGB0Sc3aPyiGzrJRAI6/0nsocO2d7x48flxx9/lKZNm5r/j+H/ZLNmzYps8y+lHj4TjRkzxrxPjhs37qUckwchARIgARIgARIgARIgARIggaggsH379qeaCS3vqULMIAESIIFQCFDQEgqUmJhVIrWz5EnqFBO7/n/p88t0NMEEPCZnly5dKg0bNhSoUHv06CFJkiR54bEnTZpUZs+ebSbWX7ixMBrAL+fhnLBkyRKBuOVlJQhAevfuHSWHw0RyvXr1gk3K40tsfEmcK1euKDlGyEYOHz4sqVOnNtkHDhyQNGn4C+yQjCKzvXbtWmnbtq388ccf0TL5HdE+LVy4UB4+fCi///57RKs8V7khQ4bI9OnTn6tOZApjHJ9++mmoVY8dOyZ79uwxTkkREQSE2kgkMjt06GAmbpydX/wjCp5dLVq0MOOwuhKdz02IPt59913BddqsWTOZMmWKQLCRNWtWc71YfYiKZWhje9F2Q3tWWm1GxzMN7ykbN26UgQMHGtFPunTprMO99CXO2YULF4wACdfM999/L5bI6qV35hU8IIS5uLYnTpxod1OKlm7GTyVyS4Us278ROb1UJEM5kbf/EElZK1oOF6xRJxeRBPq+fXq57fjnVdSUrbaKI3Q7Ko9f8EuRGioMeeQtsran7XVhrQow4gTrzqu24ZRez4XXeVu30peXwDsRswkOTN9MhUJXRFySv/iQ3LKJvKti0cytgrcF8Uo55Xp0jsiZn5WlnstCXwQvE4u38H8NLy+vGD3C8N5/nndgob0/wjUPny+w/Oijj+Tnn3+W1q1bi5PTq/v/56tXrxoHOwhwGjdubETU0SXEf17GLE8CJEACJEACJEACJEACJEAC4RHA98phJfzYgIkESIAEnpfAi88WPe8RI1F+YaMEsq1NQime6unuNsjuKtt1X8I4r86XUejl2vcSSBI3J0kRT2SNrkd3GlU9ngysqAdjihABCCWqVKlifkV/8eLFKHUCCNmBo0ePmtiAPXv2lLp160qhQoWkZcuWZgIvZNnIbOfNm1fix48fmaoRqoMwQOgvJoFXrFgRoTpRUShTpkySMmXKqGhKMBF37dq1YG25urpKwYIFo+2LbIRMyZ9ff+2tCV/S58uXL9jxuRF5AufPnzeOHtWrVzf3FEKK3L59O/INPmdNXE8bNmyQDz/8UE6ePCm4x6M6oc3ocKsI2c9z586FKbSACK906dJSvnx5Wbx4cciq0bYNsV+OHDmipH24SoT2n6ToeG7ifA0ePFjSp08vc+bMMZNPRYsWlTfffNOIWkqVKhUlY7IaCWts1v7ILEN7VlrtRMczDROL+AV9xowZrcP8X5aYDIYjGMRdLi4uxkUNYkecR6YgAngfnT9/vtSpU8d8hoLzHCZcozzdVcHCCXVo291D5L/OKk5wVWFLlSg/TJgNXt1hO/5OdVH5t7UKMVQckbNRmMWfe0cOdZzx1PeNDc1FLqj9Lsa6Rts/+9NzN/VSK6QqIHJtp835JHlOcbq+MUKHd0qUQSR+igiVfWYh14QiSVXUEjIV7CcS8FAFLSN1j7/IlkEixdWpBa47r0HC+wHcFPF/m99++01u3LgR40Yd3vvP8w4mtPfHdevWCZy4Bg0aJJUrV5YSJUpIly5dpFWrEOKo5z1YNJaHmwzEsRkyZJBkyZLJ+++/b8SW0XhINk0CJEACJEACJEACJEACJEACUUIA39cXKFDAvKwGrW3sYyIBEiCB5yWg3xC/+im56jRSxHeSYVXiSoM/HsqjwKA+x9MRpEroJPpV8yuTCiR3FhdVtdz1C5Q3M7vI7YcOHY6mXn60wkfuOYKJpuPEtmYh1sArYcKERmiCEDTZsoXyRfkLDNxy5oBwpmzZsqG2NHr0aDMJmiVLFvNFNCbsixQpIhDBWKIOTC7v2LHDfLGJX0hDjIH+wv0Fy+LFi5uJQUyy4wvPgwcPGgEKvryFIKVBA51AeZKuX78usK3et2+fpE2b1oRCAgcIBGrWrGkVE/wiH44Db731lty9e1f+/vtv43ZgFcBEJI6HUEonTpwQfBiB+021atWkc+fO4ubmZopGZHxWm9Zy1KhRZpIT4U6shP7CVQXHgvsJvuStXbu2ETPASWbbtm3mF/YYB9xwMLE8depUwT4ksIL4B2PHJDd+gT9y5EhJnDix2Q/ukydPNgIFTGriy26MD18iI1l1vvzyS+O0g/ORKlUqc55wPpBQHhN8YLx+/XpzfA8PDyN8SJAggQmrhF9X4th9+vQxv7zExAOOi3AXcJLBhISV0Ff0r127dibLYonrCiGa0HaNGjWkW7duEifOq/3rbmtMUbnE9fbtt9+aJnEt49qDg0vcuHGj8jDB2vr3338FThL4teyff/5pQn6FJVjChLh1X+C6xL1i3Re43hAOZdOmTQKBFa7ZSpUqGVEEnhfYt2vXLnOdo6517iH4QLu4x+A0BKEZ7Br3798vJUuWNJNahQsXtvcZLhNwhtqyZYsJUwahFSZ08MI9jl8y4xmCZw7uESRMBiGUGcR/eD5+9tlnZoIM17uVrP5E5LmFcU+YMME8lzJnzmyuV+uesdqzlnCDQggyiEOshHsK9wiea/g19RtvvCGffPKJEf2ENX6IjvC8QEJfcR/179/fPFccn5vYj1+2w00FvLEOwQuY5M6dG7sj9GxdtWqV4NcHmPDHvR5eetazxnret2nTxjhioF38pw/PDLwnhDU2nAuEVMIkGEKdJUqUyDxT8ByF481PP/0kly5dMiHkwBHPcFwHuCZwL4X2rHyRZxpEPjgHaBfXIUIw4ZfxuKbw/LKEUri+MC7cy9Z15Xid43xDPIZrCM9hCGDat29vxFbW+cF1A7cXiMFy5swpeE6nSBE0iY4QQjgmxCu4dyEwtZ6ZeFbjvQH9sxJ+uQ+BC47zKv+C3+rv/2OJ5wpeOFf4fIP73PrMElX9CYyfToxk/dqOoCazvi+S9S2RdGVE7l0RObVIhQwjgu/P2UQkbQmRh9dFdo62CUdQInV9kTIDRJLlFLnvIbJ3gjp6TAqqG2It8OFFcQrQcEu+T9wvnPTebrhNZM8YdW3R52z2OiJuKrI4v1Zk66cqqnAQEmRsKVLsYxVg5BDx8RQ58pvI4WHaZxUBwXnGNY1qL4KLbe2HhxCjwigdQ3F1cnmgY1RR4Z7eIoHaF3sfxopkqqqvSiJLdbzFNJRlYIDIRj3ukxQYL4841Z4vskvbujgr/PEjtFP5oVpfj1NC20qgz/v/OqpDzhNBY6J0IvXmact6Rlz0P2fNtotcPyCyqpaY4xTurn2prCKS5CJX92nd2iJlp4hke/K5ssF6Ha+PyGIV9yUoJJKnrUjGiiLuGZXfamUzVWNpbrT1vMBgZaQuMIemilPpviI3DqqYZrdI0S62/WUHqmBFBU/rlfktrVuonZ5nHSPELEgef2hbWiZvBz3HOpZYnhzDAuJzL154v8ZnItyX+IzxKiS8v8IZDp974NBVrFgx86wO67M6xMphfb7HeKz3Svx/wPq/ET5bhPbej8+IeP7j8zmeWWGl1atXy7x58+Ty5cvmvRGfNfC5BSm096d79+4JPhdCFIn/O1gJTnv4bIi+hfdeaP1fCv93w2c5vL8jbCX+/4Z28dnCSnBqsf4PkydPHiubSxIgARIgARIgARIgARIgARJ45Qg4OoJbcx34Xo+JBEiABCJL4NX4disCvV9zxl8qZ3ORD4vFkXF7HkWgxv+vSNHULnL0xmPTgSK6fvjJenT26PAt2/Gi8xhhtY0JxpiWMIHrmDCRBzEEXkj45R4mErNmzWq2X+QPJr4xGY0QOvgSFZNkloDCahcTdRBHIB9ffOILX4QbwcQfJq4xEYlfRiP8B37RDtEJhDf4shMTsAgDgGRtY0ITbgD44IAvjocNG2a+1HZ3dzeT1xBHYOITE5no09ixY027cI9xTJjQhqgDwpBatWqZOPNwG7Emoq3jgR8cVTBJvHfvXvNFMMKx9OrVyzQXkfE5HhfrqOOYEA4Ck+voOyYYz5w5YybdUQbXICaIIdxBn/Cl9pUrV8y44TCB/kGY884779gnMPEFNNj5+9smP7Afv9KEEABfXt+6dctMfsKeHF9sQyCBdlAHE+2YYIX4AJPgOLf4pToSjo0vzCEywWQtxCr4BSjECUiYGLXagWgne/bshjH2QZDgOKGKPPTLcVIWXCBMwPkDB/CeNm2a3UkDdSKbJk4Yr5PFxyJb/f9eD6IH3C944XylTpcpWvqEc1m/fn1zLrGEbf3HH3/8lIgGE72YBIEgAOcJk+m4LyBcgmAEkxe4T3EfQmSACX88AzBhgW0IGHCvY3IeCecek/W4dlEGoiZvb2/5559/zDMAzwGIKXDfQUSD5wYmUTCZhWsS9yeeAZj0x3WPvmMSDJM2aM9xIhoTKugjnoWYCIMwAhMreH5ZKSL3NZ5bW7duNePBPYHnCH49jj5BRIcJppAJdeAGYiWItt577z0j1unbt695hkGIgxTe+HFvYYwQwuE/TnB9gTjNem5Zz01wx3MF+Qg1g/ttwYIFZqw4Z2jHqhPesxXnBvclns3hpYg8a8AAE354fkDoBOHSpEmTzLMI7wthjQ3nGc8FPLMh3sF1hHq4FiBqgQAQ48bzC9cWrhO870FQgnA7oT0rX+SZ9tVXX5nnM843BCN4XuJ6x7MPE5l4r4NAEecpeXKdBNcU2nUOZnhPhjAT5wrPQNxzCLkH8RFCkI0ZM8Y883GNQsyDa99KuAZxnYMNnrN4T8T1XrFiRVME7ychJwfBGPcazkVo16nVdmSWuB5jU4LgFcIyy8Xt7bdVGPEiKaE+FzK2UMV6MXHKrUKNgzNUIPFEVIF2C6gQ4rxO8h6drQKKaiJvDFdhxR51PVkhkqahyJs/6RvqFJtAIq2KXqyUSgUWby9UAcsyFTn8KJJFhRY1J4osUlHJVc0PmeJkEKcSg9WRJI7W+cu218lFRSH6WalMP30AXVKhyGgRDb8jeZuKxFGxy9rGtnK5e4pU+U5FLHMlcM84cUqeT9uxiXwDj84QJ4g8mmwV2fa1juWX4Ed2VeFI4/9U+KKCm81fiiTJoWKVD/VDnn7W36PtWn0o/onqN3z1GHN0qZ9r75wSKd1HAncMFCffM7Y2cyrHZFr/6hrl+Yzxx01mG1tF5XlH63voZ2LvXSKzMyurNiJFtA+Lyyl/FZikK6uCFWX9REDiVH2qClP0PXfLEBXqxNfzUNIcP/CiCn3c3MUpcRaRY/O0+ENbv9JXtQl9Dvys204ipVR0AmHLv9Vt+93TaxtFxSnJMJFzK0VuH9fze0CVxX+q6GaAinPWqZDlmAQ+uCROcfS4ifSawX7HdEvrJH/+Sf+zt5JI0gTO8rLuU4hcrRc+u0Boh20ssW2tO+Zb5fH+jHU8+0MmvH8gLCJeKNe9e3f7My9k2Ze1jWcv3mvwOQV9xv8pkML6rB7e53vUw/M55P+N8B4c2ns/nvdwOsFncnzOh4DcUYCC9vC5He9PHTt2NP/XATuIh/F/KQhVQ3t/wvs+wuahH5YTG8aItpo00eeXpvDeC63PF/j/Ac433quxhJAV71PWeyPawbnG+M6dO/fUexb2v4zk7/dIIPqJCQmuP0j4rGsJWGNCv9lHEiABEiABEiABEiABEiABEiABEiCBpwm4Pp31auZcfxAoU3b7SZcSbvLPaX85dTcw1I66OYu0yhdHymV0kUIqJtl7NUDmH3kkay8H2Mu7a3iiPmXcpKyWSRzXSU54Ppbuqx6Kp34X6Kr1e6hoplp2V0mbyEWueAXI3EOPZPZxf3v9elldpH6uOFI0vYvcuP9YftzpJyvOB8iwinGlWjZXSajfV+tXs7KldUJtX3+s+Vikhrb3+Sof2XktQBY2ji+T9/hJhQyuUjmrq3jceywjt/jJRV0OqRRXCmq/t1wMkKn7/eToba2sKb260Lybx1XKZHSVjImdZd05f5ml/Tp+x7b/h6px5ZLXYxm92yb2+V63r+j2pXuB0qpQHHWxcZYN5wLky02+8jAgdHbmQJH4g0ml2Jbwa2288OtGZ70m9EfsL5SGDx9uxCD4BSIcHTCxjF+IY5LRSvjyE7/Cw8QxEiar8eUznAqsL0gxsYtf/EFkgmSJMcyGwx/8eh2T5kj4dSC+eEQ7+HIek/H4AnjWrFl2oQS+jIWrhWPCJC8ELZaaFpOGmOBDniVoscrji9cRI0aYTQgy0C9MNMI1xHIqiMj4rPZCLjExCdEIJmDRJpKjAwWEJZigtRKELYMHDzYT8igHcQoSfqka1heaUAhj0hIOBlYCd5wnCAYaNWpkZZt2MMGOhHMIJx38ihST5fhCGpOv4I5jYbIWfQjtF/5w1YGo4XkTxgORDdpHOBhM7mJSGusvkho1aqxf9qd7kSaivS5+vQpBRFgJ1ynuLzhrfNZ3YFjFIp2PyRVMfiOMDBJEGvjFLkQiWHdM8eLFs98XODe4jnFfoH8QDuA8oo5lt2jVRR6eFRCyhGwTQg44TVhhxjARgl/yWgn3B5wqUA4CNUyoQBwCgQbuXyTr+QGxCp4LENmEPA7q4X6x7l+EGMGzA6Ivx2s5Ivc1xolJrDJlbBPLEDLgeDgGJoqelXBv4hkD9w5r8gl9R8KvrMMbP56nQ4cONWOGew1SyOcmJqogiMN9bjlqVa1a1YhvIEpC360U3rMVYkM8S5+VIvqsgUgA7wG4ppEgToHIBYIW9CO0sUGAg1+949fplnASQg48LzBJBoEVJvPwC288f7Ds16+fCSmHsHKhPSsj+0zDZBx+PY9nqsUe569Hjx7GxQrjgmAECbwdfzEf8jqH4AbXMwRNSAjltHnzZjPJCOEO2IMJ2kF/4TbkmKxnJiYDcS+CI56ZjoKWkC5L4IFnOq7xqBa0wEEnpiVMDOLzR1gJrml4tuH5cubseZk574kAJKwK4eVnqaZClSrqAuIq8kAdT26pgM1ZRRKPvW21lqkYwnLiuPa3SO7G6pRS3yZoSaYCBr0G5LC+l9/bK+KhAggrldH3BBVByBoIMTRd0veSDBVUoNE+uKClnAomSnTXB0xmbfOkyN8N1HZxi62O9fexft5ejn5oOqvHguhFRS2BmzOJk/8ddSb5Ql1hNohsam3+TyCXbUXx1+mKOqYs9hGpNFyk1lSRK/oc3NRHRRvrbIWK9BaJl1QC/9Tr2ee4Lc9d+5K/hU3QYsvRvzrOJaXtW4EnVCijghanHO+pyEWFMiiR821Vxv6jM7ragTILIjb+q7tVaNPJ3q5hnaqIzSUF3OFMc32/7g/6v5Ekyabj2B7khHPGVt3p8hyRhGn0w+i7KkaZpP8psn0ek1MT1XVmXNAx4qcUqThY/yOmZS3XGjjErO8T1CZK+3raBC2XN6oQ6Fcb29Q6xsf6/7w7O4Pa+x979wEfRZn/cfwXAqQAoQgCUkVs2LCABUWw93Lq2T3Lqf9Tz66nnme9s596nuXsvfeGXVEUxYYiTZogINIh1IRA/s93lieZLLvJJtlNNtnP83ol22aemXnPzDO7+/z29+jeQrfvNl67ryu+UumjTq2W27KiUrvnP7cG120Fd6pD3P/psa4j4ef9fd36+5o+/Njf97cK6PD3dZvKovXVexX9Hebe69VX0ftjfU7w70P8+9Z479Ure3+v9lwl+rORnot1fdTzjz32WPCeQQEmej+mz0oKplHRPlBgpIIi/WciBcLqs4fe4ylbpUr09UnP6Zqkz3D+85o+d2nYOn1equpa6DPf6f2cfmDgi96X+IBm/5xu9ZwCWuqrFC5eGLyvqq/l12S5CkTyw8DWZH7mQQABBBBAAAEEEEAAAQQQQACB+hdw3xQ3jOK+srX/jFxle7vAkH/unmvHvLEi5oq3z82ygzZpZk//VGyPj1plJ23dzP69T57t+NjSYKgiBbwooKR5tsuk8G2xLXJfWO7Vs5k1c8+r3Ld3ru3ULdveGF9iw2cW26GurmsG5VrLnCK739W3c8dsu3O/PHv0h2J74v1Vtn3ntTO6eRUsor83jsizf39VbJ+6IJovT2phJ72x3CYuKrU1bhotfwsXsHLZLrn20S8ldueIIjvTBencvk+uLVixxka4eT52wSoK3OnUMseOfyuynbu44JmebZrYYy7IRRbn9W9uG7Rqbqe+474Qd6W3G+YoXPS4vwuYmbl4jT3k3Pp1zrZjtmxmw2eU2KsuICiZZejQocmsrk7qUqevvpCMVTbccMPgV+D6VbxK3/4DY01Wref0y0j9Mly/GHz44YftpptuCjrgfAYTVaaADB/MosfqbNR86kzzX5CqUzc6i4qmjS6+s1fPq5NQHdn6QlUBLercVkdiOOuHvnAN/wJQ8ylDgzob9Ut/DfGgoo5odfqqk1Wd9b4o60K46MtqdajqS2Z9GaySyPaF6wjfV4esMslEd7r7adSBqcARBdvoS0sFHKiTXvOokzORol/t+33up1fntLZfQwSFi7Il+KJgBH0JreUrYEGBQupQVme0H6pDnRq6r+AYfTHui+/k9Y8TvZVlODBHX6THO54TrVPTdXbbutVWW1ZnljqfVsdCuOgcUfCKMunU1DNcX1X31UGvbEQK+PLnhTI7KNgj+viMd14ok4zOSXWmX3nllUHGDAVIqUO4qqJ2wQezaFod+/oVttbL/5JZz6sjRG2FspOo88MHs+i1qorWT0FSOs/9Nuo8VlCElhEOJkvkvFZgQHjfqE3SMasghESKsiLpvPHBLOF5qtr+8LTx7uvcUUeHD2bRdKpXHWlqF8KlsrZV2W+UGaqqkmhbo+PBB7OoTrXTygSlYy/c/oaXp/2jQBYFqviiQBj9qR1Su6GAP2XSUDCdjicFLsUrOg5q2qbpWqPzU1lglN1HRe2yipwqCxKJPs6V4UjtcTi4SJ3Buj6qqKNRGX+UxUXZYHRuhQNGdZz6zk9Nr+NP10Rf1Mmq7DXRRW2LziXf4Rn9ek0fJ3Idr2ndqZov1rGtdkXZnWLZ1Wo9lHHEBYIEw9J0ddfMgS5gto0LVPnqz5Fqm3V2wSOnuywuu7msHi7QQwETbXpHXpv2pjvQLnUZTj5ymV0estIx/7Ws4umR1zpsFcmqsufb5avXNMeswNURLjOHR4Yy6u0CWVwpXTw2EjgRnmbyW+FHLujCLa/PsS6jiLuGri6KDLszJWqa8Bxz3jB7eYgLxjnXZSe5yOxwN60CZzR8joJHipda1oDby+cocO9lWrhrRHY7t0IumEblty8it2v/Z610ARzTh7rgngMjAS0FO7roaFfX8H9Epkh0+2e4Onzpf08k6EfZV5QFptMPkcwqy/uZbeSW89nfIoFEE191b1zPcfvsMxd0c2fFACFfV4Vb91lEgSibH+8yyGzs9kFPt21ORTNPAABAAElEQVTufWUrF8C3cHZkytVuO39zRlUVZb9Z4tre1YsrTrnQneNtelZ8LoFHec1c8IoL/k/2eZ/Aoms8iQIclL0qVlGmSL3/V6CGglR/HDXaHnv6pViTpvw5vc9W0Ijet+hzUfgaF2vhiby/T/SzkerXZx0NR6dMZbpOKghPn8n0/k3XSb131/ue8LVGZnrNl+jrk57X5zsFo+hzna6zCixWxjeVqq6FPqAlelhavUeK9d5N78fC169gIXX4r12H9e3Zpx+vwyXWblE69jWsEwUBBBBAAAEEEEAAAQQQQAABBBq2QIMJaBFzifsu4u+fFtlzh+fbiZs1syfHr/1CN7QPfneZXP7wqvvCdW2Z6bKefHRCU1NAiAJM/uyylWzkgj2OfGm5fb92KCBlV1EZ4II+9nQBM9cMLbInxkXqfvuX1fbI/rn2l+1z7EEX0LJR2ybBl9rKjvKry37yxazIvJpfX5Uow0svV/93c9ZYp3yXOjg7y2VRKdXLFcqkBavtmuHuC29XmrgIlRv3zLVvf1tj/3SBMCrt8rLs7H7N3fzux4huEa9MLLGX3J8v6+WV2BW7NbcWTd3wJSXr1q/pWrvvhfd+dmWQkeU1F8SyswvU2bVb06QHtPh1asi36ijTl5rqMGzRokXKNkWpo//2t78FHeL64lMdb+rsVQkP96HH+qWgflEZ7oRTquzwY00Xq0Rvgzo//Zd5yiSiesJFr0VnLVAHvYoCMaKLgl18hgq9Fh0M44d0Cq9rItsXvRz/WF8wq4Q7nP1ruvWZbzRckzppFYjjM8uEp4t3X9uvddav8aOLOoejbcK++iJdRXUo4EdfziuThH51qg5x/fpT66TnwwFLmkeBEdHF7yf/fHjYDP9cdD3h/eunaey3CirSL2j1xX6sQIdUbL8649U5r+wqvqPCL0edLgoECXfSxzsvfDCSfimtjn4FuWmYJHWyHHig6yCspPTs2bPCqxqqTBmC1EmkIbV0bvvsQZpQ57s6s6pTtI0K0lKnU3RR0Fg4oCWR81oO0ftI52h0OxS9LD3W+aBtCLuGp6tq+8PTxruvdQkH+PnpFKBS2bmv6cLnnjqelNlL9UWfo77O6rQ10XX4IJboNsLXrVsdm+p8C/+qW/fVoeOLgkz0nIITDznEdShXUmrTpmlddF5oWbr1RcEc8dpyP034OPdm2kfR2+XPMQWoaGgIBVIqm4uyrWioJG+ofRkuujbpGPdFZv665Z/TrYa0CgeQhV/L1PvaB3pfoCCwlNss/8lsgvvrspvLtHGwC2hx6nl9zI792o018qPLPOKCQhaMc9lQ/lG+O1aMtdIXd7WsbS50UbhnWdbWLvDl3ZNdRpF33Jt098Z45QLXMJYHMwX3V7isH+Hy68duiKF7XU/0g25YoI8sazcX1PFhVMDT8jnhOVzE+tpjzA2pU5rfORIAs2RtIE3FKUOP3Pv6Cbdb6a9vW9ZRw1zEuwvYGfaRG7qoZSR4JHo9p30YmtfdXTS54mM9+tllf3HDKJXmbW5Zm7gO9fluW+e4YJms5olv/6KxZfWWjrrTssY8YHbUp2YfnOHenLr3Y0c5nyFHuQbafVZaPjEy7Td/dctxwS7budtDX3bZV9wyPzq4rJ517uzkbJVZZ4ILrHBDMllOa5dGL+qas+z38mwt61QQemLVUmeWF3pi7d3mBS4zzYp1n2+Ez0Rfq3R9VTYuZavy2brSYbMVVKP3w8p+puBKDcmjLFvxSiLv77Wt4c8b8eoKP69AZGXK0lCmGrZTAS3+GqD35uFrlNq8cOBN+Prk6/RDy2q4O32u0/tBH8Ce6LVQGdTCRdclvf+JLnqPodcoCCCAAAIIIIAAAggggAACCCCAQCYJNKiAFu0YBYo8OarYLto5xz6Y5r5IjSoKKtmwVZYdt0Uz27pDtnVp7SJMXNnEBaIooGXbTtn2qxumxwezBC+u/de3YxPTaDzvTa1Y77BfV9sgNzRQ15ZZ9qFb5vkrm9urR+a7DDAuC8zoEltcXBos886981xAS6n7y7InD86z/Gbu++2mpfb6H/JtzJzVdoXL3uLL8Bmr/V0b6YYhUvnULceXn9x25rpglU1dVpZRbkgkbdeOLrPLUX1cQI7blu6ts4LXexRk2dgF5Z0yfn7dfuWGLQoPLzTKLWfzDhGP8HSZel9fZqpTOvyL+7qyUEeQvnxWJhH90k9Fwx+og813/GksdpVYX5wGL9Twn774VYe1/7W+qhk1apQVFhaW1ajMKlqfW2+9dR0fBf689tprFQJa9AWuvsz1RY/V+RruhK7N9vnAD3UWKyNKuCjgQ8OpaL0OPfTQ4CU9DhdvKnMfTBB+Xb/kV2CEhnLRkCq+aIgF/QoyOnOLfz36Vp17+lOWmHPPPTfIjqNf/qtTOJGOPwXUjBvnOufWFmUgUIaNcPCQfy1Tb5Wmvr6yQun480Et4QAIdVYoQ4HOK/3i2JeqzgsFFhx00EHBvBqW7L777jMN7aPjVX/RHVS+3vCtzkVl2PBDjOnY03HjizJOKbOKOuajO/U1TfRy1AZpKCAFxUQHhakDStk6lLnFd6Ykcl7rV8Ya5sx3ECmDkTIaJZLVQeemAkWUvj98bvrtq2r7/XSVWercV0BRdCCKhqVRho5EizLyqPPtf//7X9n+iJ43WW1NuN7wtqlDTG2GhkjzwXbhaXVfx7GGT9Cv0pUhSNlLZKAS3VbWpk1TdixdZxTAomDRmhaZKehUdWnYpHhF0ygoTFlaNJ3aCZ1fiRR1WCrDQbgokEbtd7KvweFlNKT76jCWab2Ulp3cwZkdWfQmJ7ogB9fGDRnsMpW4IPBsFwjR7kmzmV+WrVrWCncddUPmlI682bIOd0EgW7vA3A9ej2TxyHJvzr93GVESKQqoGfZ3lwLIBXRMcoExU10Qhi9ddnXBI7f5R5Ggm9VufQpHWVbRvMjzvdzxN6vi+5HyGcrvBcMKFU53kc19Ik8umeayl7j3OqNc/SWzyif095q08vfWvZ32tIuEv9Gyeh3tIuzd8sc4GxVZKYtJdbbfzRZkfWm1g8t+4j4bzX3HpXI70gUETXZ1fRtUW+HftIdderCHrXTLa112mauc8+5uWhcI44PHmrSIDDmk9d/U1fP9f10WHTedyra3RG6r+l+qT0SuNAl9hF0w2mWG6WClOb2c/ZTI6/rf1rXfC0OPy19pdPfUPip4RZ9r/PB+6bqRyjqpP2Uxueaaa4I2W9eL6OtPIu/vq9rG8PUxelpdW/SZQtdE/YjAB9kqULKya010PXqs91f6HKRhhxTQoqxhfhi9qq6FsQLXVeeG7v2bhoWMLrou+SGbol/jMQIIIIAAAggggAACCCCAAAIIINBYBRpkdMNt36yyxUVr7Nrdci06lOOgntn29jH51t5lOHl27Co7650VQdpovwPbuudnL4ueK/Jqy2ZZwbSFxVl+8uC20A1LpKLsK7+vMDvw+WX2+s+r7PTt3Jf7x7ewndwwRDNdnWe/t8INF+SGDJpSEtz/3mVveWls5P6/vynvYFRdy1wQjC9uU4KyZO1y9KCoJPKc/3/Vzs3tngNybdHKNXbfd0V20xcV6/PThW+XrSpfhp5f6b6LbpA7PLxRSbqvNNP333//OsEaSaq+QjXKZnLHHXfY6NGjg1/aaeiEBx54IMgGEu4s1dAJ6gxdtGhRMByDhpbQr86TPTSBOpHVAX/bbbcFvyBU56fWJ/zrRnXM65ftyoKhzArhP/2if8SIERWG1lCWiffffz/oSFd9ml+dz+Hgkdpsn74c1nA9r7zyir388stB8I2GCdFwGPpCWr8+1TAe+nWlfDVNuPhf9Wu9fbaX8Ou6r1TtqkMW6nxXIIsCetQJX1XWjHBdql9/GqpIHfn6IjuRYBbVoX2tjmYFQqjT/5577inLrBNeRibf96nZ68NAWYs0nJaGggmfEzr+1Hmh18PZMyo7L/Tr3ZdeeilIu6+OKJ/BxHfoKMOEgtoUZKG/eEXnhoJDdLzoHHvwwQfLOoU0j7K26Bz517/+FbRBOjbVieR/iaw2SOn1dcwrqE3nr+rR9oS3Ufd926HOH18SOa+1TWoDNXSLtkUBH8pyVFV2EL8MZeJR0J3m07AnGnZKmWJUqtp+va4MNTr3tc3hYB9fv4y0fTLSeS8LLUvnbzhAyU8f71adYeecc449++yzdvnllweWquuLL74IhiJQ26SSrLYm1rYpqE/tu7LryFsdZRqGSME5KgsWLLDrr78+CLjTL9L1C3I99h1qsdrKmrZpylIle2VK0XGlc0PDNmhooOoWDQ+h9l7BirpGatglBTlpH6noeFDHn7ZDHZg65vy5lMiyFDQVPbScAjt1vET/aj6R+hrjNNHZmFK6jfkdI4ETG51tNvgVsw12NBv3XGSRRS7DSo7LvLH+AZFsLTu57B5NQ9kKup/ihiO6xEqbd7esJs0jwRQ+oGLcM67e7SPBE8r00qyLC6y42AWS7Bd/cxTEMn2Y2a7XRab3U/bcyw2Xc4VbdmeXbs0F2Wy4t8vo8mwkYGO5C7CY7NqojQ8z2+YmK83d1C3XZTTptTbj3f5D3byXuQZs98jf1v9yQ/m44OYZbjkqYx519bqMIwNdlph2e7o3762stMuxboifcyKvV/a/1GWpnPSm264jXC97Zyud6IJMfKnJ9mvejru4YJafIrV07OcysYzyNZbf9r/HDZXk9kk42Ma7z40EaNuGRwaZY2yN+zBVvMTV28/tp27O7yS3vn8sr6uyey4Djy2b64abGhzs48B/sat/tTvv2znDcFFAS6wsNuFpGsl9vWdQ5sd0D2ZRFi21tf6aI37fVkdffxJ5fx9v98W6Pur9kQJ8tXwFrOv99gsvvBC8r9NnIAWV672PnlOAu4JcdL3R57FwRq94y9SwQ7rW6s8H2Gvaml4LFUypIOXw+0rVp+f0GgUBBBBAAAEEEEAAAQQQQAABBBDIJIEGGd+w3A2xc5UbemivXk2t/wahX+i5PXeky2Ay3GUmueCTItMwO7luyJ9m7s+XqW74n+3c0ELtXdbx6DJxYSQryp7dK7Ls1j3bFBwytTASIDLbfQ973ZfFNuipZUGAySnbNLNiF5QywwW19HSZU75xgSy638NlV/l6Zklwf37V8SfRq1P2WIE0h2/W3B78vjgYkuh9l8mls8tCQ6m5gO88rnkNic+pzm91xKlTVh2IGn5GHdh333132XAIqk2du8rYog5GfSmqIAj9gj7ZRUEy6mxVp7Z+va7x3hV8oowL+kW/vjhVh6PWNdYv/AcPHhxkX1HQii+nnXZakD5cATBnnnlm8IWwnguX2m6fskVonW655ZYgI4WGWVFQgL4IP/vss4POf2Xbue666+zUU08NLzr41aVMta3xsq2o7n/84x9BZ7QCWJQKXZ2/yprhs1FUqDTOA/1KU7ZaL/26Ul+gJ1o0BJUyfyhNvNZXQUX6FSul/gUURKHhbZSFI1ZRZpXp06cHHff+dZ0DGk5I54X2rTpK/HmhTvenn346CBLRr3rVeX7jjTf6WYP2QMEQgwYNCoYlKnsh6o46+tVWaL3Uxmg9/NA0mlTZjZRWX0Erel3ZfnR++w4SdbQoW5WOeWWJ0bGrwIxYGTUUnKVfBfvhyFR/Iue1Ol6UlUq/eNb2KLhEwVrqcEqkyO2yyy4Lzk0tT9vsM1hVtf2qXwEk2mZlIlEATnRR8JnWR51EOu9l8dZbb5kCH8PDDETPF+ux5pe3Ai20z7U/1K4o+4dvR5LV1mj50dumDkG1kfqVuIIAdWwps44fJk37WMeE72xTJil17j311FPB5mjfR7eVNW3TdP1QYI06BHXc77rrrnb11VeXdV7G8ov3nNZXnrfffntwjdRjBYt6U3lrW3Su6dqgLAXxztVYy9DxrqBTBcr4ogBHZa5Jp+E6/Lo1+lsFhxzyogtmcUPQrN/X7EvXNn57YWSzJz5m9tvXkdePV5CYez88yz32Ja+dG4LoSsv602SzY0aYLZ7i5r888upPN7iMII+bbX+B2YkuKOM4F6TRYx8XXLHQzx379gsXfJLr6u3nAk98GfWIC1Y5w+y0mWb7uftTPzIbcYl/1Uo/c8Erv35i1v8ity7jzPa53wWYdI+8riGOBlxndvTQyF+/8916Pea28dLI63OHmA11dXXfww3v4zLMnDzLsrY7z61nYeT1qv6Pd+dzhy3dsEnvWVbx9PKpa7r9vzzrhlw6PlLPaLdPhp9bXqe/122Q+7DyptmpCyxr82Ot9Au3fYs+i7yq2ynvmw261bKO/cY956L2v7vDBfFsa1knTzXb/WazH51PomX0Y8EQVFmnTHUBPzu4oY9ccMz8MS7waUB5DQqsWX8bF3wTI5NM+VTcq2MBBZEoA5yuBwocUYYWnxkl+vqTyPv7ylY/+vqoa71+OKD3DXpfoWvFDjvsYNdee21ZNRoWVu9XNBSRhg3VZ7a5c10AVQJFdfkfByhbji81vRYq0FKfVxW07IuCehWME/5BhH+NWwQQQAABBBBAAAEEEEAgXQWU8Vd/FAQQQKA2AlnuF9mRKI3a1BKa96zzL3ad919b6bnDQs/W7u7QY/PtcxfEcWVUVpLbBuXaoZs1NcWr9H1omRW6oJP/7JFjW7uMKSe9ucLaNM+yv+2SYzt3zbab3HA/D45eZVu0axIMFzTCDT/00A/FNn7BajukdzN7ecIqW7rKDTd0dH4w7NC93xbbZzNK7OjNmtkZ2ze3J9y0//5ule3bQ8EwWTbkl9WWk11qzx6WbxPmrbEzP4h0gnzs1vXiD1faD3PX2MjTWtg+zywzBcD40ryJ2fgzW9qVH6+0Z36OpGHp4YJTPjmhhZ351gr7wAXjqGh4oWePyLPDXlhuo92QQ0OPz7dxbhiiS10gz46dmtjlA3KCgJmDnl/uhhxaY2+6aSe5WwXyqLzhHk9xATrnfxx5rOdu2i3H+rp593sxtEJ6oaZlxveW9cp59sPXa7+wrmk9aT5f3/4DgzWcPG5krdZUQ34oA4J+Aeg74XyFCmBQx5kCLjSNvsSNNTyInz4Zt+pQV1YHBdyoI1dfMKsDVx2CiRb9wrJ///5BB6o6TvWlr1Js+y90fT3J3D4FAynQROstJ1/060ltT2W/IpetOvuj18/XoVvVM2fOnMA/ej+Fp0vVfS3fO8YKKErVcjfafFt7/KF7bZutXSdYIylnn3+JfTF8hNX23K0th9+fsY47dfbrmAwHofjlKehEryv9fVVF54TOvcqC9XR+KPgl1nG9cOHCYH79IjrRksh5rYAeZapRZg392lnnYGXnaGXLlocsFfSl4ZrCpart17L1pyCxyoq8tZxEzCurR68pu4fqi26r/HzJamtibZuvW9sRzpTll13VbSJtZVV1hF+Xg/ZZVf7heWLd1zVHnXmxTPWajoOaZnG66KKLgkAuZeVRYIsy91xxxRXBr+tjrUtNnlM7a25Yyh+++rQmszeYeX4cNdr+9OezbPL5P6RsnUtzN7as1cvNVrmAklhFw+QsHesu6m6a6KJgh5YuQ0vhd+6VqJSI0dNGP9a8p7vAEgWcaMghLWeFCxopmR09ZeRxtmu/W2y87rKCdXDX21L34SPeeppr51ptZ7Z8UiTzS+wlVP/Z2mx/JUtTtpWsbOejLCoxijLVZK1a4LbFBwi47WvpOv6Xaj9UszTtaKVuWVlFzkZFQyG5wKLS53a0YMipbVwQ1MaHmr3sAqI03FI1ypczWtoJL/VutJ9vys7PWn6uqQZphUmVLU3XrXhBrdHXH13Pqnp/X2EBoQfR10dd3/V+R8/rvUSs92WaXcNLaj3Dw0uGqq3x3epeC5XxTUFAynSmomuSAn8UyF8fRdewAbvsaPfceWt9LL5Gy1QgtX5EEitQu0YVMhMCCCCAAAIIIIAAAggggAACCNSLQMUeoXpZhZov9F/Di0zZUzq0KO/UfmTUKrt5cJMgQGSFy+Tyz8+KXEaW8g66MS7o41w3NNDVA3Pt0UPybPUal5nbBbW8MnFVkGXl9CEr7EYXKHPrXpEULkWrS+2xkavsru/dF86utHPBLJe6YJJrBmWZMsV899tq++eX5UEjR7263Bau/YHvHk8vs/nlP/at8Ya6VbR7vim2C3bMse9ObWFzXfYXBdxcOyinxnUyY90LKEAlkSCVVP8aXJ2sCgTRl7gaTkdf7irbin7Br18l1qYk0pFY2+1T56zWO7pom6rqKE9k2aonVv3Ry0vVYy1fnbWUxiNQ2XkRr0NHW6/gkkQDKxKZrrKOGQXa1aYkcm6pzanqHK1sHeQR79ysavu17HgdV+FlVrY/wtMlcl8BafHWV/Mnq62JtW21rTuR/ZmIgZ8mWa4K2IpnqtcqO9f8usS7VRawE088MciqM2TIkCA7jzIYUdJTIGvlxMpXbMm38V9XRo9Cl70lGaWy5aj+1S6AI9aygnX4soo1cME2S0LZZ6qYOuGXk7n9oYVWyAYTet7fzVr5s7+79tZtX02CWTS3CyDKCgcRzXrJZcT5k2X1v8ZKv77GsrY9y+zdU6odzBK1gjxMgYCCamMF1vpFRV9/dD2r6XuH6Ouj3kdU9l7Ir4OCf/WX7FLda+FRRx0VZJjTUI8KWtbwfVdeeWWyV4v6EEAAAQQQQAABBBBAAAEEEEAAgbQXaBABLYOejfHrSke7sLjUdnxiWQXkH122FGUg6eqCXH5fUWolLhrk+QnuC9NQeXfaanv3yWXWrWWWLXU/2lM9vkxaXGpHvb7CCpq5TuV8s19cAhsX01JWnnVZVfTXsyDLZi4pNZcUpkIJB7CE7/uJNDRRr/uW+ofB7TRXT/RzI+asrvCctuFF99fNZXPR9CpPjosE2ej+wS9XzLpySNRjTXPZsPLAGz2mZKbA5MmTg6EblImlc+fOwdAU+uWjviCtbad2Zoqy1QgggAACDV1AQ2pp6All6FKH6sUXX9zQN4n1RyCzBDS01KYnW1brzd3wTy5Dy++vZNb2s7WNTkCZza6//vpgSEtl+tRQtJUFAzU6ADYIAQQQQAABBBBAAAEEGoWAhndVufnmmxvF9rARCCBQPwINIqClJjQzXBaTqsr0pfGn0fBFhYvj1zA1uSM1xV9Q6BVlavHBLKGnudsIBPbaa6+EMzHUdnN79+4dDC00duxY01jsxx13XDBOfI8ePapdtX41edJJJ1m3bt0qnbcut6/SFeFFBBBImkAi5/UWW2xRoyFvkraSVIRANQQGDhwYTL3VVltVYy4mzSiBUhccPvY5Fw0/IaM2u0Fs7PLRZiPXBqL93iDWmJVEoEqBTTfd1PRHQQABBBBAAAEEEEAAAQQaqsCIEUnKkttQAVhvBBBIikCjDWhJig6VIFBHAkceeWQdLcmCYTe23357019ti1J3n3feeVVWU5fbV+XKMAECCCRFIJHzeqeddjL9URBAAIFGIVDqUjsOO7ZRbAobgQACCCCAAAIIIIAAAggggAACCCCAAAIINASBJg1hJVlHBBBAAAEEEEAAAQQQQAABBBBAAAEEEEAAAQQQQAABBBBAAAEEEEAAgcwRIKAlc/Y1W4oAAggggAACCCCAAAIIIIAAAggggAACCCCAAAIIIIAAAggggAACCDQIAQJaGsRuYiURQAABBBBAAAEEEEAAAQQQQAABBBBAAAEEEEAAAQQQQAABBBBAAIHMESCgJXP2NVuKAAIIIIAAAggggAACCCCAAAIIIIAAAggggAACCCCAAAIIIIAAAgg0CAECWhrEbmIlEUAAAQQQQAABBBBAAAEEEEAAAQQQQAABBBBAAAEEEEAAAQQQQACBzBFomjmbypYigAACCCCAAAIIIIAAAggggAACCCCAAAIIIIAAAggggAACCKRa4O677071IqgfAQQyQICAlgzYyWwiAggggAACCCCAAAIIIIAAAggggAACCCCAAAIIIIAAAgggUFcCW265ZV0tiuUggEAjFmDIoUa8c9k0BBBAAAEEEEAAAQQQQAABBBBAAAEEEEAAAQQQQAABBBBAAAEEEECgIQoQ0NIQ9xrrjAACCCCAAAIIIIAAAggggAACCCCAAAIIIIAAAggggAACCKSpwOjRo01/FAQQQKA2Agw5VBs95kUAAQQQQAABBBBAAAEEEEAAAQQQQAABBBBAAAEEEEAAAQQQqCBwzjnnBI+HDh1a4XkeIIAAAtURIENLdbSYNiMFOnfumJHbzUZnjsDUab8GG5vdNLtRbfT6HToE27N8xYpGtV1sDAIINFyBNq0LGu7KJ7jmzZs3D6acURi5TXA2JkMgLQSmLcpJi/VgJRBAAAEEEEAAAQQQQAABBBBAAAEEEEAgIkBAC0cCAlUI7L3HoGCKufPmVzElLyPQMAXuf/ixYMULWrVqmBsQZ613322X4JVvvh0ZZwqeRgABBOpGYM7cecGC+m69Zd0ssB6X0r59u2Dp935DQHA97gYWXUOBx36MBMPWcPa0n61Fi7xgHUeNHpP268oKpo/AwoWLgpXpuH779Fkp1gQBBBBAAAEEEEAAAQQQQAABBDJGIOlDDjXNjvzCP6u01EqzsjIGMiM3dM2qjNjsY/54hD3x9PM2cO8D7ZgjD7d99tojI7abjWz8AkuWLLFnXnjZhg0bbhts0Mm6d+vaqDZ60MBdg+059Yyz7eCD9rcjDjvYmjZN+mWvUZmxMQggkHyBocM+d+8jngsqvvSCc5O/gDSrsUP79talS2d7/iez6Yub2/Fbz7fWuSVptpasDgIVBWa6jEIPj+xgE+fm2kEH7FvxxUb0qF3bSMDZzbffZU88eK9lr/3s3og2kU1JgcBzL70a1LrF5punoHaqRAABBBBAAAEEEEAAAQQQQAABBCoXSHrP3oCdd7TPhn1ptmS2WUGnypfOqw1bYPy7DXv9E1z7DTp3skcfuNtOOeMce+Kp54K/BGdlMgQahEAnN6zWU48+0CDWtbor+dqLT9mp//dXe/Otd4K/6s7P9AgggECyBP7z7xtd8GDnZFWX1vU89cj99re/X2PDv/3ehv/auLJ/pTU8K1drgQED+tvVf7+01vWkawXt2rW1LbfsY199+bXtvPu+1qN7V2vaPOlfCaTr5rNe1RQoXVNqM3+bZb/NnBXMecThh1SzBiZHAAEEEEAAAQQQQAABBBBAAAEEai+QVVhYWFr7asprmDnzNzvw8GOstMV6lnXkfUFQC5layn0aw73SVSst67cfLOv1S6xV61Y27IO3G8NmsQ0IIIAAAggggAACCCCAQKMXuPf+h+2VN96yBQsX2po1axr99rKBNRPIsixr07rAunXtag/ee6fl5OTUrKJ6mmvQoEF29913uyCuxj/cXz0Rs1gEEEAAAQQQQAABBKoU0PtylaFDhwa3/EMAAQRqIpD0n2N16bKBDR68m33yyTCzx/8YrBMDD9Vk16TvPOH9+fgD96TvirJmCCCAAAIIIIAAAggggAACFQTOOvM00x8FAQQQQAABBBBAAAEEEEAAAQQQQACBdBdIekCLNviOm/9lP0+cZB9+PNTGT5hoa1bzq690PxCqWr9SK0/k07pVgW3lUlUfd/SRVc3G6wgggAACCCCAAAIIIIAAAggggAACCCCAAAIIIIAAAgggkGEC/fv3z7AtZnMRQCAVAikJaNGKbrpx7+AvFStNnQgggAACCCCAAAIIIIAAAggggAACCCCAAAIIIIAAAggggAAC6Slwyy23pOeKsVYIINCgBJo0qLVlZRFAAAEEEEAAAQQQQAABBBBAAAEEEEAAAQQQQAABBBBAAAEEEEAAAQQavQABLY1+F7OBCCCAAAIIIIAAAggggAACCCCAAAIIIIAAAggggAACCCCAAAIIIIBAwxIgoKVh7S/WFgEEEEAAAQQQQAABBBBAAAEEEEAAAQQQQAABBBBAAAEEEEhrgUGDBpn+KAgggEBtBAhoqY0e8yKAAAIIIIAAAggggAACCCCAAAIIIIAAAggggAACCCCAAAIIIIAAAggkXYCAlqSTUiECCCCAAAIIIIAAAggggAACCCCAAAIIIIAAAggggAACCCCAAAIIIIBAbQQIaKmNHvMigAACCCCAAAIIIIAAAggggAACCCCAAAIIIIAAAggggAACCCCAAAIIJF2AgJakk1IhAggggAACCCCAAAIIIIAAAggggAACCCCAAAIIIIAAAggggAACCCCAQG0ECGipjR7zIoAAAggggAACCCCAAAIIIIAAAggggAACCCCAAAIIIIAAAggggAACCCRdgICWpJNSIQIIIIAAAggggAACCCCAAAIIIIAAAggggAACCCCAAAIIIIAAAggggEBtBJrWZmbmRQABBBBAAAEEEEAAAQQQQAABBBBAAAEEEEAAAQQQQAABBBqbQGlpqV1x1fU28sdRNnvuXCtdXdrYNjGl29MmP5JXoW//gSldTkOrfL0O61mnDu3tgXv/Yy3y8xva6rO+CNS5AAEtdU7OAhFAAAEEEEAAAQQQQAABBBBAAAEEECgXWLhwkf3r5tvsw48/K3+SexknsPnmm9i9d95mbdu2yaht5/jPqN1d5xt71RWX2B8OO7jOl1sfC/z402F24SV/r49Fs8w0F8jU60sydsu2O+4eVNMqq8C6WHdrkpWVjGozp44VkU0tgK3CPl8yd4mNmT/BBgzaz4YPfdfyCWqp4MMDBKIFCGiJFuExAggggAACCCCAAAIIIIAAAggggAACdShw8hln27Rp022XXXa04485yloXFNTh0llUfQssWbLEnnnhZRs2bLidcuY59toLT9X3KtXp8jn+65Q7YxY2asxYe/ixp+y6G261Nm1a2x6DGnd2gA8/HmoXX3aVred+8X/ScX+07bftmzH7mg2NL5Dp15f4Mom98uOo0cGEg21P23n1bonNxFQIJCgwrXSKPZ31hN16x1129d8vS3AuJkMgMwUIaMnM/c5WI4AAAggggAACCCCAAAIIIIAAAgikgcD8+QuCYJaj//gHu+Haf6TBGrEK9SGwz1572OVXXWcvvPiqTZ8x07p17VIfq1Hny+T4r3PyjFngzjv2s5OPP8b6D9zLbrn9rkYf0HLfg49ay4KWNuyDtywnJydj9jMbWrVAcH35x7X2wkuvZdT1pWqZqqcY+tmwYKK+pTtUPTFTIFBNgR6lvcxc5pqvvx1ZzTmZHIHME2iSeZvMFiOAAAIIIIAAAggggAACCCCAAAIIIJAeAnPmzQtW5KwzTkuPFWIt6k3gzNNODpZdWFhYb+tQ1wvm+K9r8cxangI7enTvbvMWLGr0Gz5z1izr2aMHwSyNfk/XbAPP/PMpwYyZdH2pmVTFuSZMmhI8kVeaV/EFHiGQRIGZM2clsTaqQqBxChDQ0jj3K1uFAAIIIIAAAggggAACCCCAAAIIINAABIqLioO17NplgwawtqxiKgV6dO8WVF+yenUqF5NWdXP8p9XuaJQr0yI/z0qKI+1so9zAtRu1cvlKy8/LbcybyLbVQqDs+lKSOdeXWnAxKwIIIIBAmgkQ0JJmO4TVQQABBBBAAAEEEEAAAQQQQAABBBBAAAEEEEAAAQQQQAABBBBAAAEEMl2AgJZMPwLYfgQQQAABBBBAAAEEEEAAAQQQQAABBBBAAAEEEEAAAQQQQAABBBBAIM0ECGhJsx3C6iCAAAIIIIAAAggggAACCCCAAAIIIIAAAggggAACCCCAAAIIIIAAApkuQEBLph8BbD8CCCCAAAIIIIAAAggggAACCCCAAAIIIIAAAggggAACCCCAAAIIIJBmAgS0pNkOYXUQQAABBBBAAAEEEEAAAQQQQAABBBBAAAEEEEAAAQQQQAABBBBAAIFMFyCgJdOPALYfAQQQQAABBBBAAAEEEEAAAQQQQAABBBBAAAEEEEAAAQQQQAABBBBIMwECWtJsh7A6CCCAAAIIIIAAAggggAACCCCAAAIIIIAAAggggAACCCCAAAIIIIBApgsQ0JLpRwDbjwACCCCAAAIIIIAAAggggAACCCCAAAIIIIAAAggggAACCCCAAAIIpJkAAS1ptkNYHQQQQAABBBBAAAEEEEAAAQQQQAABBBBAAAEEEEAAAQQQQAABBBBAINMFCGjJ9COA7UcAAQQQQAABBBBAAAEEEEAAAQQQQAABBBBAAAEEEEAAAQQQQAABBNJMgICWNNshrA4CCCCAAAIIIIAAAggggAACCCCAAAIIIIAAAggggAACCCCAAAIIIJDpAgS0ZPoRwPYjgAACCCCAAAIIIIAAAggggAACCCCAAAIIIIAAAggggECjF8hukW3WNKvRbycbiAACjUeAgJbGsy/ZEgQQQAABBBBAAAEEEEAAAQQQQAABBBBAIGMFVq5cmbHbHr3hI0eOtFdffTX6aR4jkHEC0efCggULbOzYsRnnwAanXiCvc64d+/m+dvjbg6xpQdN1Ftj/6i1tvyd2Xuf5Kp+IFXwS67lKKmq5YZ5tf9lmdujru9ufvj3QTv3pYNvvyV0qmSMNXnI92Ed+sKc1a9PMcjo0tyPe26N6K1VNo0orj1WXW7/9n9rFNjmhhx3w3ADrfWy3SqvgRQQQqLkAAS01t2NOBBBAAAEEEEAAAQQQQAABBBBAAAEEEKgHgTVr1iRtqbHqKi0ttYsvvtg+/PBDO++88+zjjz9O2vKoKLkCP//8s/33v/+1o446ygYMGBD8Pfnkk8ldSJJqGz58uB188MG2fPnyJNUYv5rvvvvOnn322XUmePPNN837PProozZkyJB1pon3RKxzJd60VT0fry6t9+mnn26yOvPMM2316tVVVcXrtRSIty8qqzZdjiOtY6z198eRjp/oc+Hxxx+3s846K+Z8sbY5Vv2xpkvlcwrC+eMf/2izZs1K5WIyom5dM+bPn5+Sbc1yiU/yO+Ramw0LrP/f+qyzjOYtm1peu5x1nq/siT3/18/6X16xrq3O6W0HuECKREvTVk1t/4cH2EZ7d7WJb/xq75w13EY+8rMVFRYnWkW9TNd2iwLLcoEkqxatsvW3b2tFixNf31huNd2IeN69j+lmrTrn28QXp9vop6dY/3P6xAxkqulymQ8BBMoFCGgpt+AeAggggAACCCCAAAIIIIAAAggggAACCKSxgAIBjjvuOPv++++TspbXXnutPfbYY+vU9cknn9ivv/5qgwcPDpZ3++23G9k/1mGK+cRvv/1mr7zySp0EIvzyyy926qmnmm7POecce+CBB+zEE0+0rKz0HEqhqKjI5FOf5dtvv7UNNtggWIURI0ZY165dE1od7dMLLrggoWmrmmj06NF20EEH2apVqypMquCD2267LQhO2nnnnYNj6LXXXqswTSY9uOaaa1LW8e4d4+0L/3q823Q4juJdD8LHUXa2izCIKmozHn74YWvSpOrusWQe91GrUa2H7dq1sz322MPuuuuuas3HxOsKTJ061Y444oignZHnsmXL1p2ols9MeW+6bfaHnrb+Lm1rWZNZu96tzZpUvKa17tHSmuaumwEm3sI67tjWCrq0sBF3jrGxD/9isz6ZZyNv/dk+OfvbeLOkxfMd+ra1+eMXB+vSfqs2NnfcooTXK5ZbwjNHTRjLW0FC/c7qYyP+M8ZKi9bYr2/OsoXTltp2520aNTcPEUAgGQKJt3jJWBp1IIAAAggggAACCCCAAAIIIIAAAggg0MgF1GH9v//9z0466STbcMMNLVaHWiMnSNnmFRcXm35dnawybty4ss59X6eCDu644w674oorgn2344472sYbb2zPPPNMEDzhp+M2voA6CfXXsmVLO/fcc61///7Wpk2b+DPU8JWhQ4easulcffXV1rq16/RzZfvtt69hbZkx208//WRnnHFGECyi41/HdiJFncArVqxIZNIqp5k3b57Nnj17neneeOMNy8vLs7333jsISrrwwgvtr3/9q+21115l+3edmRrxEzq+9adyyCGHBB3wXbp0SSgQI5gpgX/x9kVVs6bDcRTvehA+jmJth9oK317Eej38XDKP+3C9Nbmv9xSHH364aQilbbfdtiZVME9IYO7cuUHwpYKWVBQMecABB1jnzp1DU9Xs7i8f/2557fNs16v62quHfhoEPMSrqYMLNul3fp8gq8uy2SvsR5c5Zerrs6xg05Y26KbtrEXHPOu9Txfr1LedjXtxqvU+oKu1dUEuTXOz7ZBXB9rcMQtt0ZQlttF+XW3IScNtzcryDHYDbtrGZWFZZRNe/jVYfJteLW1avBVxz298XHfrc3Qvt8xcWzip0L66ebQt/KkwmKPPnze0Dfp3sDEuE8kOf93c5o1fZJPemGE7X76VfXH9KJv/fXmwSd/zN7F2m7a2j//yjWXlNLF+l25uPXbvbNnu/qzv5tmX/xxtxfMi2VZ2u21bWzJrmRUtLLbN3bJ/fOhnW3+bdtZ9YCfLadHMSl2A6tGf7W05rZpb6eo11nNwZ/vksu9szvAF1v2gzoFHJzf9snlF9v3/xtniKctiuk185tdg+h6DOlmn7dezpbNW2JR3Z9jPT6wVcZlgDnlxNxv50ATrNmB967LT+vbun4fbrtf1Xcf7yyt/so0O72Kri1bbtDdmlYmOfmKSDb6pn339rzEudVTZ09xBAIEkCBDQkgREqkAAAQQQQAABBBBAAAEEEEAAAQQQQCAs8Nlnn5n+mjZtaptuuqn9+c9/rrcOKA2XoOEhhg0bZurA7t27t1111VW23nrrBav80Ucf2XPPPWczZ860Pn36BAEI3bt3D15766237Ouvvw6GOrj33nttyy23tJ49e9q7774bBH2Eg3WU7WTzzTcPptUv5DWsw/vvvx9kNlG2BWXQaNGiRVDvv//97yCQRJ2KChRRB/vAgQPLCLVMLUO36lz6v//7v+BX1KpTRfMXFBQEQSc9evQIptP2ffXVV0HGif3339/22WefYFpt/1/+8pdgHygjhfbLP/7xD7v77rtt+vTp9vrrr5uyDWg4hz333NM+/fTToFNd6+yLOrqUneKUU05J2+wffl3T6Xbp0qV2ww03BKuk/ajABFk2b948KavZqVMnUwDSnDlz4nZQ1+RYVAYgHdsKpvClsLDQLr300uBY7Nu3ry1atCgY6uibb74JAneUceSYY44Jgg1iHXM63qKLgrOU/efyyy+3Bx980EaNGmXbbbddMNyVMgTpOZ2XCmZQR7YChFT8+aNj/6mnnrJp06bZNttsYwoAad++ffRiTB23OsdUVK/ORbn4DBfaHgUFaRvVufv5558HmUHUaa62QsNvjRkzJphewwBpWRqyZeHChcE5rvNO9er8Oeyww8qCxGK1H9r3ahdUVIcCWHzWiSeeeCIw9xl21B4p4EZtwdFHHx3Mk6n/FKThAzW23nrrYH9utNFGteJ46KGHYu6LeMdBOh1HuhbFux5EH0fRSLoeahgiZcBR0fmj64COe12zdQzrehDvuNc8lV03/fnZsWPHYNgvDROktu/ss8+2Zs2aafagJFJH9DVS66VrZk0DWt5843V76snIddSvR13f+vO7rpfrl6fjOFbRUGz603uLfv36lbWZsaat6rksN8EXV/9gh7+yh/U9d+MgG0qsedr3a2MHPbKrTflwpv348ETrPqij7XlLf3tr3jBb+PNSG//yNNvh7M1tvgsu+eWD32z+2EW2pmSNbXZEjyDQRa8v+31F8LfL37ax7vt3tKmvRgIs8rrk2iaH9LCPL/vGCl1dM7+aY9ufubnlr59rI++aYCtnF1VYpT5n9goyjox+brLN+WGBbXFMLzvgoQH2wr4fBkP+tHRD63TYsp0LYGlh04a6bCSTlti8kYtMz/c+tEt5QIsLDFFQzPjXpgb173nXDrbeZq3tx8cmWsnyEtvm1E1szzt3sHdOGB683qZXK1tvk9bWLL9pMM+Smctt8ssz7Uv7yQ55ZXf79q6x9tvQuXbsZ/va26d9YYUTlwbBIsp+s9et/eynpybZmGenWKft2gX1rZxfHNNNL/Y5qqdN+2yW/fzKVOu6a0fb9e99bd5Pi2z+yMWWlZ1lHfq0tb6nbWJrVq228W6akhVrbIIboinaW3W17d3KFkyJBPvoscr80YutWV62terdwpZMSH7mn8hS+I9AZgoQ0JKZ+52tRgABBBBAAAEEEEAAAQQQQAABBBCoA4GSkpKgI9gP1bHFFlsEHeKbbLKJ5eTk1MEamL300kt255132j//+c8gmEAd8OrMVlEHqYb4OO2004Jgleeffz7oxFGndn5+fpBFQZ37GtJFWROUcUbBLgoI0fPq9FFRZ7bqUhp/leuuu870C/7TTz896LBWx7w6zLUslYkTJwbBNQp4OOqoo0wdf76ok18df+rs1msaEkOlV69edvDBB9sPP/xggwYNMnXmtm0bSeevbdx9992DYUwUBKMAARkr+EYZPBSwok40mSvoQJ3+qnvGjBmmfaJtU6CPypQpU4IgpODB2n9attZVWSUURJHKct+999h4F3jU2Io6dX2HoYIaFOS1fsfa/RJ+1113NWWsUMCTMsEoqCQcZCXDmhyLOm5uvvnmICOPD8JSoJOOzc022ywIolFwk4buUSYfHUf33XdfEMyi4yvWMRfrfNdQFzo2r7/++iBgZYcddjAFjl155ZVBEIoyMixZssTuueeeIAjIB3Xo/NFxro5XdXArAEFDZylQRZ3d0UOpdOjQIQhUUSe+Ovv/85//BEEiOoe1/r6DWW2EzuVLLrkk2EZ/7um80/BACq7ReeODZnSOKxjg+OOPD7ZZ664MVapHRedLdPuhDnpt9+TJk+3II48s6+BX9hcFmEUHaeg81rS1KW3ymwRtRm3qSJd55aTAPP2p6BzQsViTosxJsfZFvOMgnY4jXYtiXQ/iHUdhHx2XY8eODZ5Slhe1RbqW6Rqlc9kPLxfvuK/quqnzc/jw4aaAM+0bZVR59NFHg0xVu+yyS7DcROpQAGr0NVLnhwJyalpmzJzRKK8vNfWINZ/aUwXIKmCvcMnyWJMk9NySKcvt+/vH2Q5uWJopQ36zxWOWrDPfDi4zy/yJhfbpeZFhFGd+OMc26NfBNj9mQxv61+9swlMuWPHkjW2hy8Ci+yoLfii0zv3au2wnTcue0/NzRi9wWVq6lQW0bHRYV1u5qNimDfldL9v7Z46w7S7czLY8diPb2E33w+MTbdS9k8xKSi07P9t2OGMzG+eCOL67MfL+Y96oxXbsh/vYRoduYOMfjyw7f70c+/z6kTb9ndlBnfo35f0ZtuEeXWzEtZGsJF336GC5rZvbz89Ps44D2lmPQZ3tg/NH2K/vRNZjzepSG/yvHazVJuVBH203amVPDXjHBc6UlNWb1SzL2m7YyuZ+v9DyN8i17NwmQWCOn6BNrwJzFy8b+/QvtmzqCps9bL5/KaabXnz3lC/LMqfMGb7QZXfpZj337RwEtPiZXZX29tFf+Ic2+YUZMb3b9Ghl836ODIfkJ14+Y6UVLym2tpsUENDiUbhFIEkCBLQkCZJqEEAAAQQQQAABBBBAAAEEEEAAAQTSQ0CduulalOVAWR/U4awAip13GZDyVVUwSteuXW3w4MFBx7WyK6ioI0+BLsqY8ac//Sl4Tp1lCu5QZ86+++4bPKdABGVfCQ/loowOH3zwQVlAi35prkwK+tX8+PHjTZkZ7r//flMHvYqCDM4//3z7/fffywJCZPHxxx8HAS/BRGv/qVNbAQHKSqEsMsr64osyVKjzX+vi69ZrCj7wnfLKiPPaa68FmVgUmOCL6lRHvi/KGKIMBdoP+vW8LwpoCS9Tz2u4HAXPqLM/1QEtfj0a863fV67fqFalVatWQSCHsp8ocOXpp58Osiqoo16lpseiAlV0TCljgz8P3nnnnaADPTc3N8i6MH/+/CBDhIJKVBTsoUxHCmjxJfqY889H3yoQR38qOl+1HVq+Py4VxKUsKD6gRdPpWNQ56LO2KCjsvPPOCzJP+EAzTeeLzOWhc1T31VmuDCh+X2g6BY4oM5E/133nu4LFFAyjYAG/Tpp+t912q5BZSYEtynqhtsVn4YnVfixYsECz2x577FEW0KLzXu2EApTCRYELb7/9dvgp7idJQJleYu2LeMeBFptOx1Gs68GECRNiHkfxyBYvXhwY6LhWcKP+fIl13Cd63ZSr2gNlZNF5pAAXncO6n2gdsa6RuqYp6EbnorIbVbf85S9n2zZbb1nd2RrV9O+9957deOONMbdJWaZOOOGEIHBX7dHZ518Sc7pEnxz94BTbcK8uNvDavvbmH4etM9v6m7WxJb8vt8H3RN4raQINy9OqSySb3TozVPLEhNd/tZ0u3sqaFjS1ksIS671fF5s0xA015AJWVDQU0bc3jLXxz/5i25+3eRBo06ZnS/vswpHWdvNW1qxlM2vXu6DCupQUrbGC7i3Llrpm1Rr77bN5ZY91Z8Irv9oWR29kHXduZ7O/WGC9D+xqM7+eEwSZ9DqoiymAZaODugZ/mr6py2CiouGPfBaTeeMWlQWztNwwzwbf1s+ymzWxJi7by34P72LNWmS7x9l28MsDbb4b6mj430fZ9I9m28pziu2w5wfZ6Gcm2djHpwaZZILK4/xr5mw2Oaa7dXFDJ8m4RYdca9OzVYWpf/um4vZVeDH0oKBHS5v0zozQM5G7i6YttbYbtbTIIE/rvMwTCCBQQwECWmoIx2wIIIAAAggggAACCCCAAAIIIIAAAuknoKFmfAddfa2dft39448/xl28MjVstdVWQVaUYpfW3OzhuNMm4wV1yL/66qumbA/KmKJf9CugRp1i6sxT1gmfUUHLU2YWveaLX1//WLf65bqCQ5TJQR12+sX4cccdF0yiX75r2AYFAGioEBV1vqkoe4MPCNHQKrE65NQZr0wA6hxX5pgDDzwwWKeggjj/ZK5hTPzQJwouUGBAuOy0007hh3HvqzNXx1F0UaYIZaPwwRLRryfr8V/Och2OWzXcDkftY38shE0UQKRgKXUW+mCHH0dFsu+Ep6vu/Xbt2gXD4ijYQ0PXKLPPTTfdFARe1PRYVKCMOrh1TOn8UUYHZUTRkD4qykyiQBY/VI6e0zmjP2Uy8RlSEj3mwsFZCjJRCc+rrDAaWihcNESXD2bR8zqfdN4p0CU6oEVDs+jcmDp1ajDslzJG6LxXEIy28W9/+5upo1xDrSjITUNyKLOElltZUXCDAggUcKKsFAoG07muIaAURKcSq/2IVafWW+ugbQgXBbSo7tqURcvX2A9ff1abKupl3kEuE1V0UZuZrCGHouv2j+MdBw35OPLbFn2ra42uicqKpDbk2GOPtfXXXz96srLHiV43dX6GhxdSEKgCVFQSrSPWNVLnlc471aEgUkrtBNSGKshXwxL6Nqt2NUbN7YJJhl090g5/bpD1OWVDs0hsSWQiF6yRnZttKxcWu+F7yoeu0f0VCyoOBxRVa8yHk16eYf3Pd8NCHtTZ5o1a5IJTWttHF367zrRLf1lhn57/vRVevMz6nrqpfXv7OBfMEml3l8xcZstmR96vaUaty7wxi8rqWDp3ha1eFsnw559Uxpj5ExbZRi6QZZ4buqf7wM726VWRjDMaRshFKLsMM2771vg5zOb+5LLf/Lqs7InFvy4tu7/styL76PyvbdOje9ji6UttxE2jre/Zm9rMEXPtp4cmBcMAaeIVs1baK4d9bFud0dtlsdnEtjqht7137lc298uFZXWF7+R1zrWjhuzpMtkstCnvzbRFbtv6X1gewOanXTy1fF38c7FuS1aWBIE20a81a9HUVi0rzzQT/TqPEUCgZgIV3x3WrA7mQgABBBBAAAEEEEAAAQQQQAABBBBAIC0E1DFb3yVeh746xtVZpiF7fId3Mjr0q9pedaRpKCF1Rl500UVB9hENDbJ8eSSVfrdu3SoM+aOMJeGObGVM8AEIfln6FfMtt9xiGr5I2UuUeUXB61Z+3AAAKBNJREFUCioawkIdbqpHt74oiCc8tJA6r2MVDUmiX7a/+OKLwfAryqKiwAFlXolVFJSjDlhlldhvv/0C3//+97/rTCr3RIoCerxNeHoN/RIrACc8DfcrCqizUFlDFGCh4ySVRceH9vull14aDO+hgJTaHIvKmKJhjHR8ffjhh0EQgY5pFdWr48Q/1nO6Hx2AUJ1jTnWo+IAO1e9LrOGK/LA/fhplfdAQZ9Hnql7/wx/+EAShqcNemV80jJKGB9N5pSwEft8oW5PO/UceeSQIKNM0GpIoXtG5+fLLLwfDHmnYFg2P4odX8/PEaj/8a+FbnVtyjS56zg/7FP1aJj1WxioN9yRPf/1I1fbHOw4a8nFUmdW///3vIPjy4YcfDobsuuqqq4JAyljz+GtDVdfNcLCZ6lFmpzVrIj36idYR6xqp4E3Vw7Uo1t5J/DmdS3rfoGxc4fcpideQ+JSLRi+xH5+YaNuf3ccFZcwpn9EFuyydtcKauKF1frhjQvnzUfeU6atJdE+uC4zJdgEx4aJAkykfzLSN9u1q7TYqsFnfz7clE9dtU/08c35YYE2ys2y9LVvb/NGRoXNWLCyqdF38vNG3E9+eYVuftLHNdnWWLC+xaWuHF1LQSpOmTWz2dwts1tDEMp+Uuqwwy6evtIJuLWy22wbdb+2yxIx5ZkpwP7zslb8X2TfXjbFR9020Q54daFv/qbd99OU3wSTRbr2P6GrKOBMMO+Tsm7ghjNr2apVY8FAMbwW+tNWwR+Hi9knrri1dINC6w0uFJ+M+AghUXyC6Gax+DcyBAAIIIIAAAggggAACCCCAAAIIIIAAAusIKMuDgkmUMULZKeqz9OjRI8hioSwtGhJl6NChNmBAZLgjZbgID5OSyHpq2xTUoiFP1BmuYB0FoqjoV87KUqEAFg1vUpOiutRBrvXSrQJcrr766rKq1HHvi4Y7UmehAmzU0avXNJyKhkOpqqgjK1yXpldggjJZhIs6EJW5JVYHY3g67kcEFMSiDngFS9Rl0f7XkCGffvppMKxHbY5FBeFoyCsNvzVkyJAgGM1viwJVNAzQ4YcfHmQg8c/729WrK/6C3T+fzFtlXFGHne+M/f77yC/iYx2jOl+VNUXBLhpWTJlrNKyWslNEF223/pR16ZprrgkyO/msEOFzRduooDO1b4ceemhQjR4nUvw6qz6fxUJtlIYnig5gUaalTM1EoQApDVGn4zBVJda+0LLiHQfpdBx5k/BxGe848tPGulUQmQLYlJnrhhtusPvuu88OOOCA4NyKvkb4IbFqct30y65NHcoSpvO4vt9T+G1piLd6v6K/uiwj/zPBeu7R2Xru3jmSrWTtwse/NtX6uUCXbc7b2Ca8NN1WLSmxDQ/awBaMd1lPvo9kRlkwsdA6br2e5XRoHsxVNLfY5v+8yHrv381abdzCVrnhhVbOjmR0+fnlaXbwI7u6YXRa2rf3jCvbxI2O6mKd+3WwyS7wZPHkpdZui9a27embWPGSYpvz3UJTnb9+8bttenAPK5y+zH55/Tdr3qaZ9Tmxp313y/gK2VXKKg3dmfTqdOt/Th/b4riNbOKQ6WXDHE19e5b1O7fIdvjr5vZ9059t5tC51mbTltZ19/Vt9L2TQzWse7e9G45pzBNTzJqYddi0tc35NjJUnZ+y2/4dLbddjk0dMisImtH1sDSUBSbaTZlwcgqa2fr93TBPLktN37M3dsMfJdZFHst74S9LrOM2Fdvm1m7bmrihkhaOI6DF7yduEUiWgGsKKAgggAACCCCAAAIIIIAAAggggAACCCCQTIFnnnnG3njjDbv++uvrveNJw4F89913pg5odfypg05/bdu2DTp1XnjhBfv444+DAIBFixbZE088EXSUV+WhYYc+//zz4M93aGueXXbZJdhmZYFRp7+CQTQ8goY9ile0/E8++SR4WeuqjBj6FbvW2a+vXlTwjDryRowYEbxeVFQUDP2iYaY0LImyaTzwwAMxMz3EWrY69RUIoMwS+lPp1auXTZo0qcLk6mjXshLNuFFh5gx7oF+8K9CjLoJZHnzwwSDYSftr3rx5QfCJjuedd9456PStybHod5eCY3Rc6zyePn267bHHHv6l4HkFXmh4HnUw6zjVMEQ6H+qqaIgeZUjROausUDpvFUCnQLJYZfz48cHQGnpNAS2xplMWJ1lqe3zR+aeiIbc0TJGGXyosLAyCxzTskoZX07mqYYyUrSWR4jPb6DzWOaui81od9fIMFw1jpHMyE4sCilIZzCLTWPuisuMgnY6jWNeDeMdRvONH2cVeeumlYJgtBWL6divecV/b66bWozZ1KNhS54Nfz3jbxfPpJaCsI59f88M6KzX6/sk25oXJtt0Zm9mxH+xjR3+4l/XYvZMLNFlVNu3Pr0yz/PVy7fhh+9umx/YInp/23u+2eNoSO+rNvWz3m7ctm3be1wtt0dQlLlAj26a4oBRflsxc4QJa2tsBDwywYz9yAT137eQCL7Lt/fNGBMEsmu7zv/9oCyYX2sCrtrOTvjnQDn56V8tvn+erqPS2aHaxTR8+29q7wJNxz08tm7bEBeh8eP4Iy2nV3Pa7Z2c75YeDbNBN21Uceqls6op33jrhczeEUSSo5/n9PjRlYwmXnLbNbacLtrATvtjfjnprD1v06xIbcfNPZZNEu015dabN+m6eHfjQbnb0+y6joLu0KYtNIiWW95wfFtp6mxRY04LyoJgNdlzPCt2wTT7AKJG6mQYBBBITKD/TEpueqRBAAAEEEEAAAQQQQAABBBBAAAEEEECgEgF16KdTUYYD/epcndTrr7++HXfcccHQPFpHDdGk1zRMizrINIyCggESKTvssEPQAa1pt9lmm7JZNDyKOvo1bMNpp50WZLBQ4IgCYOKVZ599NuggHzx4cNDBfdNNN5mG+NFQIwpKOPvss8tmPfnkk+3uu++2J5980jTfwIEDg2wsyj6jX9pr+3z2mbKZ4txRFhGtpzIhXHbZZXbkkUcGWWUUHKChHZT5RUWd9spsoQ58SvoI6Fy744477NZbbw1WSkEoGnbqwgsvDB7X5FgMb53qUoCUhuoJDwGkIABlBNK5owAaZUDZdtttg2wm4flTeV/HroI9NNSXgsb69+9v1113XdxF7rTTTrbjjjsGr+tc9B324RmUjUbnls4jbeM1LqDCZ5PQeahhnQ488EDTcE46R3Ve6lzffffdg8xMf/nLX+zyyy8PVxnzvurUOlxyySWmoVkUzKb2RwE5Otf69OkTzKc2S4EyylJCSY1ArH1R2XGQTseRRKKvB8rmE30cVSanIM+nn346OJ7VXmy33XZ24403ls0S67ivzXXTV1zTOhSAqbaGkp4Cy2estIc3fT3mys35aqE90ueNCq+Vriq1EVePsa9vGGctu+fZksluiKBQlhFNPPPDOfbs0Pctv3NO2ZA7Ws6rBw21/K65tjwq0CPLZQiZ/O4MUxCNL3OGL7AXB39oOR2bW257V89vK23VwvKgGU23YtZKe+9PX1qzNk2D7CzLpq7wswe3X1/v1tP9xSsfnvF1zJfmuiCbl/b5yPK6uGG3iteUBdD4id/8w2f+boVbZY3xJXzfPzfpmemmv1a98m3Jr25d3TBC4RLL7d0ThwcGq1essRKX2SZc5BVv38XynvHebJt30mLb9txN7Jt/jg0CW7Y9bVMbftuocLXcRwCBJAlkuWjqimd5kiqmGgQQQAABBBBAAAEEEEAAAQQQQAABBBCoXODHUaPtT38+yyaPG1n5hLV8VR3DymISa4gRVb1ixYogy0KyswEoe4Q6x9VpXVkpLo50XChDgy8a2qJ9+/ZBoIt/zt9qev2F61UAjIYv8UEoftqqbhUMoPXUEBK+XHTRRUFgyymnnBIEtijQ5YorrgiCa/w0yb5Vuvzefbazxx++17bZqmZDNSV7nVJdXzKOf+2/hQsXBseDjt/wMRRe/0SPxfA8Vd3XPtNxqmPHD51T1TzJeP3//u//ggArBYQoW4qCUxRUk4yibCs6t5T9IlaRtYYEU/CQigzmz58fnKuxpq/sOa27zle/z5Q5RsErr7zySrAM3b711ltBJhq/vMrqi/XasX/6s3399Xf2w9exO01jzdMQn+vbf6ALatrenn38oRqtfvS+qOo4qGohVc2fzOMo+noQfRxVta56Xe2DjsV414/o9dU8ybhuVqcOZU86/fTTg4wy1b1Wl11fHnLXl60z4/qifVTbcvb5l9gXw0fYFWuuqW1VdTJ/j4M72+7Xb2+vHP6RLXXD6lBSK9Bmi1Z2yFMD7ZWjPrHNj+lp623axhQ0U51yQ5Nrgskb+zWqOiZMi0AsATK0xFLhOQQQQAABBBBAAAEEEEAAAQQQQAABBBqRgLIfxAtm0Wbm5eUFf8ne5Hid4tHL8R3a4eeVTSZe0fTR89S0Q18d5eFgFi3zggsusBNPPNEOOOAAGzJkiG222WYpDWaJt508X7WA9l8inbuJHotVL7F8CgWSdOzYsfyJeriX7KxBykQTzkYTvUkaLiVcZKDAs5qU6HVXZpY999zTHnnkETv11FNNw5YpY0xNg1lqsk6ZOk/0vqjqOKjKqar5k3kcRV8PwseR2vJESlXtQ/T6qs5kXDerU8ftt99uZ555ZkLtXSLbzDSNR6Dz7u2t1/5drNdeG9jIh8YTzFJHu3bRmCX2xQ0/WKtu+bZyUbF9cf2PdbRkFoNA5gkQ0JJ5+5wtRgABBBBAAAEEEEAAAQQQQAABBBBAAIFKBLp27WrXXnttkH1DHb0XX3xxJVPzEgIIJEvgrLPOsvfee89mzZoVDImmYDIKAtUV8MeRspMpoLOhF2WQ0fB6yhZGQSBaYPWqNdakaRMbeuX3Nv392dEv8ziFApNfnBnUPuuTeSlcClUjgAABLRwDCCCAAAIIIIAAAggggAACCCCAAAIIIIBAlIA6D1W22mqrqFd4iED9Cuy1117rZBWq3zVK3tKVKePoo48OKiSYJXmumVZT+DhqDNuu7TnmmGMaw6awDSkQmDN8gemPggACCDRWAQJaGuueZbsQQAABBBBAAAEEEEAAAQQQQAABBBBAAAEEGp0AWRoa3S5lgxBAAAEEEEAAAQTiCDSJ8zxPI4AAAggggAACCCCAAAIIIIAAAggggAACCCCAAAIIIIAAAggggAACCCBQLwIEtNQLOwtFAAEEEEAAAQQQQAABBBBAAAEEEEAAAQQQQAABBBBAAAEEEEAAAQQQiCdAQEs8GZ5HAAEEEEAAAQQQQAABBBBAAAEEEEAAAQQQQAABBBBAAAEEEEAAAQQQqBcBAlrqhZ2FIoAAAggggAACCCCAAAIIIIAAAggggAACCCCAAAIIIIAAAggggAACCMQTIKAlngzPI4AAAggggAACCCCAAAIIIIAAAggggAACCCCAAAIIIIAAAggggAACCNSLAAEt9cLOQhFAAAEEEEAAAQQQQAABBBBAAAEEEEAAAQQQQAABBBBAAAEEEEAAAQTiCRDQEk+G5xFAAAEEEEAAAQQQQAABBBBAAAEEEEAAAQQQQAABBBBAAAEEEEAAAQTqRYCAlnphZ6EIIIAAAggggAACCCCAAAIIIIAAAggggAACCCCAAAIIIJCOAi1b5AertTprdTquHuvUSARy8nIayZawGQikToCAltTZUjMCCCCAAAIIIIAAAggggAACCCCAAAIIIIAAAggggAACCDQwgYG7DQjWeF7W3Aa25qxuQxAoySoJVrPvlls2hNVlHRGoVwECWuqVn4UjgAACCCCAAAIIIIAAAggggAACCCCAAAIIIIAAAggggEA6CQzefbdgdR5t8qCNzPrOyNSSTnunYa/LpCYT7b4mdwUbcerJJzTsjWHtEagDgaZ1sAwWgQACCCCAAAIIIIAAAggggAACCCCAAAIxBAoKWgXPDv3scxs0cNcYU/BUpgh88NEnwabm5eZlyiYbx3/G7Op629DZs+day4KW9bb8ulrweh3Ws7lz59XV4lhOAxMou77kZc71JRm7KN95XXLhX+0/995v76x8096xN82yklEzdSDgBErN9t17sO3Yb3s4EECgCgECWqoA4mUEEEAAAQQQQAABBBBAAAEEEEAAAQRSJbBeu3ZB1Vde+y/7aMjrlpPTPFWLot40FigqKrbrbrw1WMNWrRp/57vfFRz/XoLbVAgM//Jr+3XGDOvSpXMqqk+rOjt1aG9jf55o2uZddu6fVuvGytSvQFFRkV13Q+ZdX5KlfvwxR9khB+1vc+bMtWXLlikGgYJArQUULNWyZUvr3KljreuiAgQyQSCrsLCQ9jcT9jTbiAACCCCAAAIIIIAAAggggAACCCCQlgJ/v/p6e/udD9Jy3VipuhU4YL+97Ibrrqrbhdbz0jj+63kHZMDiP/vobStoFcmG1Vg3d9ny5TZg0H6NdfPYriQIZOL1JQlsVIEAAgggkAYCBLSkwU5gFRBAAAEEEEAAAQQQQAABBBBAAAEEMlvgp5/G2H0PP2rf/zDKVq4symyMDNv63Nwc23abrezEY/9ou+y0Y4ZtfWRzOf4zcrendKO7dOlkfbfc0i6+4K/Wtk2blC4rXSpfvnyF3XrHf+3r77+zmTN/T5fVYj3qUYDrSz3is2gEEEAAgaQJENCSNEoqQgABBBBAAAEEEEAAAQQQQAABBBBAAAEEEEAAgcYgUFBQkNUYtoNtQAABBBBAAAEEGrJAk4a88qw7AggggAACCCCAAAIIIIAAAggggAACCCCAAAIIIIAAAggggAACCCCAQOMTIKCl8e1TtggBBBBAAAEEEEAAAQQQQAABBBBAAAEEEEAAAQQQQAABBBBAAAEEEGjQAgS0NOjdx8ojgAACCCCAAAIIIIAAAggggAACCCCAAAIIIIAAAggggAACCCCAAAKNT4CAlsa3T9kiBBBAAAEEEEAAAQQQQAABBBBAAAEEEEAAAQQQQAABBBBAAAEEEECgQQsQ0JLi3bdy5UpbvnxFipdC9QgggEDtBWivam9IDQggUDcCtFd148xSEECg9gKR9mp57SuiBgQQQCDFArRXKQamegQQSJoA7VXSKKkIAQQQQAABBBBoEAIEtCRxN61evdoFryy30tLSoFa9uV61apXl5DRP4lKoCgEEEKi9AO1V7Q2pAQEE6kaA9qpunFkKAgjUXkDt1YoVKyp8HiwpKXGfB3NqXzk1IIAAAkkUoL1KIiZVIYBASgVor1LKS+UIIIAAAggggECDEGjaINaygaxkVlZW8OWlvsRs0qRJEMySn59v2dnZDWQLWE0EEMgUAdqrTNnTbCcCDV+A9qrh70O2AIFMEVB7tWbNmiCoRZ8HFcySl5fH58FMOQDYTgQakADtVQPaWawqAhkuQHuV4QcAm48AAggggAACCDgBMrQk8TDQl5b6wlJfYiozSziYRVlbioqKyn6tl8TFUhUCCCBQbQHaq2qTMQMCCNSTAO1VPcGzWAQQqLZAdHsVDmbh82C1OZkBAQRSKEB7lUJcqkYAgaQK0F4llZPKEEAAAQQQQACBBilAQEuSd1txcXEQtKI32z6ARV9eavghvaY/CgIIIJAOArRX6bAXWAcEEEhEgPYqESWmQQCBdBCgvUqHvcA6IIBAIgK0V4koMQ0CCKSDAO1VOuwF1gEBBBBAAAEEEKg/gazCwsLS+lt841qyglZ8ZhalQ9TQQ7r1qRGbN28eBLm0aNEieK5xbT1bgwACDUmA9qoh7S3WFYHMFqC9yuz9z9Yj0JAE1F75YYbifR4sLiq2/Bb5fB5sSDuWdUWgEQrQXjXCncomIdBIBeq7vSooKMhqpLRsFgIIIIAAAggg0GAEyNBSw12lrCvhomwsPpglOzvbfDrE1atXB0MQKd1006ZNg1n0HAUBBBCoKwHaq7qSZjkIIFBbAdqr2goyPwII1JVArPbKB7NU+nnQdYnwebCu9hLLQQABCdBecRwggEBDEaC9aih7ivVEAAEEEEAAAQTqVoCAlhp4r1mzxpYuXVrhi0gFq+Tn55u+vFTRG3AFufjAFt3qV3p6nS8wa4DOLAggUCMB2qsasTETAgjUgwDtVT2gs0gEEKiRQLz2Sj9iqPLzYBM+D9YInZkQQKBGArRXNWJjJgQQqAcB2qt6QGeRCCCAAAIIIIBAAxEgoKUGO0rBKRo+SEMKKThFqQ8VvBL+8lLP6TV9qanpfdF9vUEPFz0myCUswn0EEEiWAO1VsiSpBwEEUi1Ae5VqYepHAIFkCSTcXpWs+3kwq0kWnweTtSOoBwEEqhSgvaqSiAkQQCBNBGiv0mRHsBoIIIAAAggggEAaCkTGwEnDFUv3VcrJyQlWcfny5cGtsrP4olTTPkBFQS/NmjULgl2UoUV/PoBF0+lPjxUME67D18UtAgggUFsB2qvaCjI/AgjUlQDtVV1JsxwEEKitQLi90mc8/ZDBl7LPg254oUQ/DzbNbmp5+eV1+Lq4RQABBGorQHtVW0HmRwCBuhKgvaoraZaDAAIIIIAAAgg0LAECWmqxv/y4nvoC0xc954NT9LwCW1atWhX86TU/jzK4KPJcwS4arkj3KQgggECqBHzbQ3uVKmHqRQCBZAnQXiVLknoQQCDVAr69qrCcUuPzYAUQHiCAQDoI0F6lw15gHRBAIBEB2qtElJgGAQQQQAABBBDILIGswsJC95UbpTIBvZEOdwJrWgWpFBcXW25ubpBlRY/1qzxNq+fjZVtRIIuK5qMggAACyRagvUq2KPUhgECqBGivUiVLvQggkGwB2qtki1IfAgikSoD2KlWy1IsAAskWaCjtVUFBQfkvWZONQH0IIIAAAggggAACCQmQoaUKJg0HpGGFlPJQ2VR80X1lVVE2Fv2pKJ20Al/C0/np/a0ytlT2up+OWwQQQKC6ArRX1RVjegQQqC8B2qv6kme5CCBQXYHK2it9DvSfCVUvnwerq8v0CCCQTAHaq2RqUhcCCKRSgPYqlbrUjQACCCCAAAIIND4BxrmpYp/qC8rmzZubMqsoC0u4+EAWPaeAFw0dpDfk0dlc/DyKPNfr4fn8a9wigAACtRWgvaqtIPMjgEBdCdBe1ZU0y0EAgdoKVNZe6TVf+DzoJbhFAIH6EqC9qi95losAAtUVoL2qrhjTI4AAAggggAACmS1AhpYE9r8CWlT8cEHxMqwokEV/RUVFFX6p5xdRUlJi2U3KM7r457lFAAEEkiVAe5UsSepBAIFUC9BepVqY+hFAIFkCyWyv1IHDDxyStWeoBwEEogVor6JFeIwAAukqQHuVrnuG9UIAAQQQQAABBNJPoPwnZem3bmm1Rgpi0a/uYmVq0Yoq84oyuOTm5gZDCindtIYXCpfi4mJr2owYorAJ9xFAIPkCtFfJN6VGBBBIjQDtVWpcqRUBBJIvkKz2SvVQEEAAgVQK0F6lUpe6EUAgmQK0V8nUpC4EEEAAAQQQQKDxChBdEWffKvhEASoKVFHRr+jy8/OD+/EytWjIIf+nCRXUkpeXF8yr4YYUea7XKQgggEAyBWivkqlJXQggkEoB2qtU6lI3AggkU4D2Kpma1IUAAqkUoL1KpS51I4BAMgVor5KpSV0IIIAAAggggEDmCGQVFhaWZs7mVr6lCjpRAIuCV5RdRff9uOi61XBCKnrzrWGFfDYWDSUUK1BF0ygopkWLFmXzVr4GvIoAAggkJkB7lZgTUyGAQP0L0F7V/z5gDRBAIDEB2qvEnJgKAQTqX4D2qv73AWuAAAKJCTT09qqgoCDSIZDY5jIVAggggAACCCCAQAoESBcSQlXmldI1pZaXH8mqEm9s8/AYnwp6UYCLMrFEB7UobaJe80EyoUVxFwEEEKiVAO1VrfiYGQEE6lCA9qoOsVkUAgjUSkDtlT67KTOnPgvyebBWnMyMAAIpFKC9SiEuVSOAQFIFaK+SykllCCCAAAIIIIBARgoQ0LJ2tysjizKt6MtLn4nFHxHKtKJoch9RnpOTEwwfpNf1mrK3RAezaFoNOVTZF6G+fm4RQACB6gjQXlVHi2kRQKA+BWiv6lOfZSOAQHUEatJe6TOffsDA58HqSDMtAgjUVoD2qraCzI8AAnUlQHtVV9IsBwEEEEAAAQQQaNwCBLS4/asvIhUtHh3Iojfd+nJStyr+i0o/nX69p6JbDS2kjCy+aBoNSaR5KAgggECyBGivkiVJPQggkGoB2qtUC1M/AggkSyCR9kqf7/SnHzL4z4OaT4XPg8naE9SDAAJVCdBeVSXE6wggkC4CtFfpsidYDwQQQAABBBBAoOELENDi9qEyqagom4rua/ggfSmpIBdlbNFfdFE2FwWx6DUFvGhalXBQS7wU1dF18RgBBBBIVID2KlEppkMAgfoWoL2q7z3A8hFAIFEB2qtEpZgOAQTqW4D2qr73AMtHAIFEBWivEpViOgQQQAABBBBAAIGqBDI+oGVV8aogQ4vPpqLAFL3hVhS5AltiBaUo2EXTNG/evMKQQrGCWqraAbyOAAIIJCpAe5WoFNMhgEB9C9Be1fceYPkIIJCoQLH7PKjPd/rsp+ya+ky3fPnyYHY+DyaqyHQIIFAXArRXdaHMMhBAIBkCtFfJUKQOBBBAAAEEEEAAAS+Q8QEtzZo3s+ym2WVDAymARdlX/FBBuq/gFv3pNf3pS87sJtmWk5PjHYPgFj3QGOrhNNRlE3AHAQQQqKUA7VUtAZkdAQTqTID2qs6oWRACCNRSoLn7PNi0Bp8H9XmRz4O1xGd2BBColgDtVbW4mBgBBOpRgPaqHvFZNAIIIIAAAggg0AgFsgoLCyMDfzfCjavuJmkIIQWr6IvJoqKiYHYFsPgx0vWlpR7rNf8Lvuoug+kRQACBZAjQXiVDkToQQKAuBGiv6kKZZSCAQDIEaK+SoUgdCCBQFwK0V3WhzDIQQCAZAg29vSooKMhKhgN1IIAAAggggAACCNRcIGMztCittM/CIj5lYFF2FQWqKMOK3myr+PTTCmTxRfOF5/XPc4sAAgikQoD2KhWq1IkAAqkQoL1KhSp1IoBAKgRor1KhSp0IIJAKAdqrVKhSJwIIpEKA9ioVqtSJAAIIIIAAAgggkJEZWlavXm0rVqwIAldyc3NjHgUKbtGbcAW6aPp446fHnJknEUAAgSQJ0F4lCZJqEEAg5QK0VyknZgEIIJAkAdqrJEFSDQIIpFyA9irlxCwAAQSSJNBY2ysytCTpAKEaBBBAAAEEEECgFgJNajFvg5zVv7lWxpWSkpKyoYWiN0ava1oFvOi+AmD0mIIAAgjUlQDtVV1JsxwEEKitAO1VbQWZHwEE6kqA9qqupFkOAgjUVoD2qraC/9/eHfCkDYVRAAWGYjDx//9OE426Tedt9lijyFj3XlvgNFGgtK/1lNxQ/PhqfQIExhKQV2NJ2w4BAgQIECBA4DIFzr6gJV1WylTeXF9fX3cdV9J1JZcWSjeWj1MuKVQ6tChq+ajjMQECLQTkVQtVYxIg0EJAXrVQNSYBAi0E0nGzTM4Hi4RbAgTmKCCv5nhU7BMBAvsE5NU+FfMIECBAgAABAgRaCZx1QUv+2fL4+Nh1Vul/eJmClkzpvJJilefn509FLcvlcpGfjJFbRS2tXoLGJUAgAvLK64AAgVMRkFencqTsJwECyauHhwfng14KBAjMXkBezf4Q2UECBH4LyCsvBQIECBAgQIAAgbEFzrqgJV1WUoySgpVcMiiFLKWYJW++M63X665bS5ZJt5b+tNlsdg/7RS1Z1kSAAIGaAvKqpqaxCBBoKSCvWuoamwCBmgLyqqamsQgQaCkgr1rqGpsAgZoC8qqmprEIECBAgAABAgSOEVje39//6cF8zBontkyKVJ6enrpCllKgknkpSsklh9KlJVNZbrvd7ubt+1NLS8UUuJgIECBQU6DkUArv5FVNWWMRIFBbQF7VFjUeAQKtBORVK1njEiBQW0Be1RY1HgECrQQuKa/u7u78E6DVC8m4BAgQIECAAIEjBc66Q0sM0oElxSf9wpUUs+RxurbkUkSZrq6uunkvLy+LFK2kCKZ0cekW+P0rYylm6Yu4T4BALQF5VUvSOAQItBaQV62FjU+AQC0BeVVL0jgECLQWkFethY1PgEAtAXlVS9I4BAgQIECAAAECxwicbUFLilLyUwpQUpyS6vHSmSXdWdIFoRS1fFw+j/OciQABAq0FPuaPvGotbnwCBIYKyKuhctYjQGBsAXk1trjtESAwVEBeDZWzHgECYwvIq7HFbY8AAQIECBAgQCAC63NiKAUr+ZvyBjvV4uWyQnku89KZpXRrSVeWdGQpXVmy3s3NTW66YpfHx8ddUUw30y8CBAhUEpBXlSANQ4BAcwF51ZzYBggQqCQwNK+yXunO6Xyw0sEwDAECBwXk1UEeTxIgMCMBeTWjg2FXCBAgQIAAAQIXKnBWBS2r1Wqx2Wx2lwQqlwYqtyluSdeVdGlJd5YUrKS4JR9aptilLJfXQi5F1H98oa8PfzYBAo0E5FUjWMMSIFBdQF5VJzUgAQKNBIbmVc4hnQ82OiiGJUBgr4C82stiJgECMxSQVzM8KHaJAAECBAgQIHBhAsv7+/u3c/+b82270p0lhSrlUkKlmOVj4UpZJh9spouLiQABAmMJyKuxpG2HAIH/FZBX/ytofQIExhLYn1fL9y83rLovNzgfHOtI2A4BAn8TkFd/E/I8AQJzEbiUvLq7u1vOxdx+ECBAgAABAgQuVeCsOrT0D+KPHz+6SwllXopZSuvoFLGUTi2pMPfhZV/NfQIEphCQV1Oo2yYBAkME5NUQNesQIDCFQD+vFu9f4djcbLrdcD44xdGwTQIEDgnIq0M6niNAYE4C8mpOR8O+ECBAgAABAgQuR2B1Tn9qOqv0pxSs5Ge9/lO3k2XKh5j9a4BmPZ1Z+nruEyDQUkBetdQ1NgECNQXkVU1NYxEg0FLgq7z6tv6222yWcT6443CHAIGJBOTVRPA2S4DAPwvIq38mswIBAgQIECBAgEBlgZO85FCqwfNmOpcEKlMe51JChy4TlPWenp4Wt7e3XWeWsk4KXvKh5vPz88H1y7bcEiBA4FgBeXWslOUIEJhaQF5NfQRsnwCBYwXk1bFSliNAYGoBeTX1EbB9AgSOFZBX+6Vccmi/i7kECBAgQIAAgTEFTrZDy8vLy+6SQqUw5erqapGfr6YUrWTKG/RM5Zt5WT/jHSqG6VbwiwABAgME5NUANKsQIDCJgLyahN1GCRAYICCvBqBZhQCBSQTk1STsNkqAwAABeTUAzSoECBAgQIAAAQLNBU6yQ0tUUpSSjiwpYMn93PY7tnwll3XeXt8W29vtbpG3t7euY8tuhjsECBCoKCCvKmIaigCBpgLyqimvwQkQqCjwX3n1fv633TofrHg4DEWAwAEBeXUAx1MECMxKQF59Phw6tHw2MYcAAQIECBAgMLbAyXZoyWWCrq+vF9+/f1+slqujilmCm8KXn68/FyliKdNyuSx33RIgQKC6gLyqTmpAAgQaCcirRrCGJUCgukA/r3I+d8yXG7IT3fnge4dO54PVD4kBCRD4QkBefQFjNgECsxOQV7M7JHaIAAECBAgQIEDgXeBkC1pymaAUs+SNdgpU0hKxTK+vr4uHh4dFbj9OucxQPvDMuiYCBAiMISCvxlC2DQIEagjIqxqKxiBAYAyBfl7lvM/54BjqtkGAwBABeTVEzToECEwhIK+mULdNAgQIECBAgACBvwn8Avy4lFfZzQYBAAAAAElFTkSuQmCC;" vertex="1" parent="1">
          <mxGeometry x="-350" y="230" width="2228" height="284" as="geometry" />
        </mxCell>
      </root>
    </mxGraphModel>
  </diagram>
  <diagram id="ZmVcvWyvSVOhULv4TMMc" name="第 2 页">
    <mxGraphModel grid="1" page="1" gridSize="10" guides="1" tooltips="1" connect="1" arrows="1" fold="1" pageScale="1" pageWidth="827" pageHeight="1169" math="0" shadow="0">
      <root>
        <mxCell id="0" />
        <mxCell id="1" parent="0" />
      </root>
    </mxGraphModel>
  </diagram>
</mxfile>
